<ttFont>
    <TTGlyph name=".notdef" xMin="0" yMin="0" xMax="500" yMax="700">
      <contour>
        <pt x="500" y="0" on="1"/>
        <pt x="0" y="0" on="1"/>
        <pt x="0" y="700" on="1"/>
        <pt x="500" y="700" on="1"/>
      </contour>
      <contour>
        <pt x="450" y="50" on="1"/>
        <pt x="450" y="650" on="1"/>
        <pt x="50" y="650" on="1"/>
        <pt x="50" y="50" on="1"/>
      </contour>
      <contour>
        <pt x="425" y="133" on="1"/>
        <pt x="386" y="101" on="1"/>
        <pt x="250" y="305" on="1"/>
        <pt x="113" y="100" on="1"/>
        <pt x="73" y="129" on="1"/>
        <pt x="220" y="350" on="1"/>
        <pt x="73" y="571" on="1"/>
        <pt x="113" y="600" on="1"/>
        <pt x="250" y="395" on="1"/>
        <pt x="386" y="599" on="1"/>
        <pt x="425" y="567" on="1"/>
        <pt x="280" y="350" on="1"/>
      </contour>
    </TTGlyph>
    <TTGlyph name="A" xMin="12" yMin="0" xMax="517" yMax="700">
      <contour>
        <pt x="517" y="0" on="1"/>
        <pt x="482" y="0" on="1"/>
        <pt x="391" y="268" on="1"/>
        <pt x="137" y="268" on="1"/>
        <pt x="45" y="0" on="1"/>
        <pt x="12" y="0" on="1"/>
        <pt x="250" y="700" on="1"/>
        <pt x="277" y="700" on="1"/>
      </contour>
      <contour>
        <pt x="381" y="300" on="1"/>
        <pt x="263" y="644" on="1"/>
        <pt x="147" y="300" on="1"/>
      </contour>
    </TTGlyph>
    <TTGlyph name="AE" xMin="78" yMin="0" xMax="779" yMax="700">
      <contour>
        <pt x="777" y="0" on="1"/>
        <pt x="444" y="0" on="1"/>
        <pt x="445" y="268" on="1"/>
        <pt x="253" y="268" on="1"/>
        <pt x="113" y="0" on="1"/>
        <pt x="78" y="0" on="1"/>
        <pt x="444" y="700" on="1"/>
        <pt x="779" y="700" on="1"/>
        <pt x="779" y="669" on="1"/>
        <pt x="477" y="669" on="1"/>
        <pt x="477" y="413" on="1"/>
        <pt x="692" y="413" on="1"/>
        <pt x="681" y="381" on="1"/>
        <pt x="477" y="381" on="1"/>
        <pt x="477" y="30" on="1"/>
        <pt x="777" y="30" on="1"/>
      </contour>
      <contour>
        <pt x="445" y="300" on="1"/>
        <pt x="445" y="638" on="1"/>
        <pt x="269" y="300" on="1"/>
      </contour>
    </TTGlyph>
    <TTGlyph name="Aacute" xMin="12" yMin="0" xMax="517" yMax="872">
      <contour>
        <pt x="517" y="0" on="1"/>
        <pt x="482" y="0" on="1"/>
        <pt x="391" y="268" on="1"/>
        <pt x="137" y="268" on="1"/>
        <pt x="45" y="0" on="1"/>
        <pt x="12" y="0" on="1"/>
        <pt x="250" y="700" on="1"/>
        <pt x="277" y="700" on="1"/>
      </contour>
      <contour>
        <pt x="381" y="300" on="1"/>
        <pt x="263" y="644" on="1"/>
        <pt x="147" y="300" on="1"/>
      </contour>
      <contour>
        <pt x="270" y="731" on="1"/>
        <pt x="242" y="731" on="1"/>
        <pt x="296" y="855" on="1"/>
        <pt x="303" y="872" on="0"/>
        <pt x="316" y="872" on="1"/>
        <pt x="334" y="872" on="0"/>
        <pt x="338" y="856" on="1"/>
        <pt x="339" y="853" on="0"/>
        <pt x="339" y="843" on="0"/>
        <pt x="335" y="837" on="1"/>
      </contour>
    </TTGlyph>
    <TTGlyph name="Abreve" xMin="12" yMin="0" xMax="517" yMax="848">
      <contour>
        <pt x="517" y="0" on="1"/>
        <pt x="482" y="0" on="1"/>
        <pt x="391" y="268" on="1"/>
        <pt x="137" y="268" on="1"/>
        <pt x="45" y="0" on="1"/>
        <pt x="12" y="0" on="1"/>
        <pt x="250" y="700" on="1"/>
        <pt x="277" y="700" on="1"/>
      </contour>
      <contour>
        <pt x="381" y="300" on="1"/>
        <pt x="263" y="644" on="1"/>
        <pt x="147" y="300" on="1"/>
      </contour>
      <contour>
        <pt x="378" y="848" on="1"/>
        <pt x="378" y="843" on="1"/>
        <pt x="378" y="796" on="0"/>
        <pt x="312" y="730" on="0"/>
        <pt x="218" y="730" on="0"/>
        <pt x="152" y="796" on="0"/>
        <pt x="152" y="843" on="1"/>
        <pt x="152" y="848" on="1"/>
        <pt x="181" y="848" on="1"/>
        <pt x="181" y="843" on="1"/>
        <pt x="181" y="812" on="0"/>
        <pt x="228" y="759" on="0"/>
        <pt x="301" y="759" on="0"/>
        <pt x="349" y="812" on="0"/>
        <pt x="349" y="843" on="1"/>
        <pt x="349" y="848" on="1"/>
      </contour>
    </TTGlyph>
    <TTGlyph name="Acircumflex" xMin="12" yMin="0" xMax="517" yMax="913">
      <contour>
        <pt x="517" y="0" on="1"/>
        <pt x="482" y="0" on="1"/>
        <pt x="391" y="268" on="1"/>
        <pt x="137" y="268" on="1"/>
        <pt x="45" y="0" on="1"/>
        <pt x="12" y="0" on="1"/>
        <pt x="250" y="700" on="1"/>
        <pt x="277" y="700" on="1"/>
      </contour>
      <contour>
        <pt x="381" y="300" on="1"/>
        <pt x="263" y="644" on="1"/>
        <pt x="147" y="300" on="1"/>
      </contour>
      <contour>
        <pt x="384" y="748" on="1"/>
        <pt x="265" y="867" on="1"/>
        <pt x="142" y="748" on="1"/>
        <pt x="118" y="772" on="1"/>
        <pt x="266" y="913" on="1"/>
        <pt x="408" y="772" on="1"/>
      </contour>
    </TTGlyph>
    <TTGlyph name="Adieresis" xMin="12" yMin="0" xMax="517" yMax="700">
      <contour>
        <pt x="517" y="0" on="1"/>
        <pt x="482" y="0" on="1"/>
        <pt x="391" y="268" on="1"/>
        <pt x="137" y="268" on="1"/>
        <pt x="45" y="0" on="1"/>
        <pt x="12" y="0" on="1"/>
        <pt x="250" y="700" on="1"/>
        <pt x="277" y="700" on="1"/>
      </contour>
      <contour>
        <pt x="381" y="300" on="1"/>
        <pt x="263" y="644" on="1"/>
        <pt x="147" y="300" on="1"/>
      </contour>
    </TTGlyph>
    <TTGlyph name="Agrave" xMin="12" yMin="0" xMax="517" yMax="872">
      <contour>
        <pt x="517" y="0" on="1"/>
        <pt x="482" y="0" on="1"/>
        <pt x="391" y="268" on="1"/>
        <pt x="137" y="268" on="1"/>
        <pt x="45" y="0" on="1"/>
        <pt x="12" y="0" on="1"/>
        <pt x="250" y="700" on="1"/>
        <pt x="277" y="700" on="1"/>
      </contour>
      <contour>
        <pt x="381" y="300" on="1"/>
        <pt x="263" y="644" on="1"/>
        <pt x="147" y="300" on="1"/>
      </contour>
      <contour>
        <pt x="276" y="731" on="1"/>
        <pt x="248" y="731" on="1"/>
        <pt x="183" y="836" on="1"/>
        <pt x="179" y="842" on="0"/>
        <pt x="179" y="847" on="1"/>
        <pt x="179" y="865" on="0"/>
        <pt x="192" y="870" on="1"/>
        <pt x="197" y="872" on="0"/>
        <pt x="202" y="872" on="1"/>
        <pt x="215" y="872" on="0"/>
        <pt x="222" y="855" on="1"/>
      </contour>
    </TTGlyph>
    <TTGlyph name="Alpha" xMin="12" yMin="0" xMax="517" yMax="700">
      <contour>
        <pt x="517" y="0" on="1"/>
        <pt x="482" y="0" on="1"/>
        <pt x="391" y="268" on="1"/>
        <pt x="137" y="268" on="1"/>
        <pt x="45" y="0" on="1"/>
        <pt x="12" y="0" on="1"/>
        <pt x="250" y="700" on="1"/>
        <pt x="277" y="700" on="1"/>
      </contour>
      <contour>
        <pt x="381" y="300" on="1"/>
        <pt x="263" y="644" on="1"/>
        <pt x="147" y="300" on="1"/>
      </contour>
    </TTGlyph>
    <TTGlyph name="Alphatonos" xMin="78" yMin="0" xMax="583" yMax="709">
      <contour>
        <pt x="583" y="0" on="1"/>
        <pt x="548" y="0" on="1"/>
        <pt x="457" y="268" on="1"/>
        <pt x="203" y="268" on="1"/>
        <pt x="111" y="0" on="1"/>
        <pt x="78" y="0" on="1"/>
        <pt x="316" y="700" on="1"/>
        <pt x="343" y="700" on="1"/>
      </contour>
      <contour>
        <pt x="447" y="300" on="1"/>
        <pt x="329" y="644" on="1"/>
        <pt x="213" y="300" on="1"/>
      </contour>
      <contour>
        <pt x="131" y="568" on="1"/>
        <pt x="103" y="568" on="1"/>
        <pt x="157" y="692" on="1"/>
        <pt x="164" y="709" on="0"/>
        <pt x="177" y="709" on="1"/>
        <pt x="195" y="709" on="0"/>
        <pt x="200" y="693" on="1"/>
        <pt x="200" y="690" on="0"/>
        <pt x="200" y="680" on="0"/>
        <pt x="196" y="674" on="1"/>
      </contour>
    </TTGlyph>
    <TTGlyph name="Amacron" xMin="12" yMin="0" xMax="517" yMax="788">
      <contour>
        <pt x="517" y="0" on="1"/>
        <pt x="482" y="0" on="1"/>
        <pt x="391" y="268" on="1"/>
        <pt x="137" y="268" on="1"/>
        <pt x="45" y="0" on="1"/>
        <pt x="12" y="0" on="1"/>
        <pt x="250" y="700" on="1"/>
        <pt x="277" y="700" on="1"/>
      </contour>
      <contour>
        <pt x="381" y="300" on="1"/>
        <pt x="263" y="644" on="1"/>
        <pt x="147" y="300" on="1"/>
      </contour>
      <contour>
        <pt x="368" y="755" on="1"/>
        <pt x="151" y="755" on="1"/>
        <pt x="151" y="788" on="1"/>
        <pt x="368" y="788" on="1"/>
      </contour>
    </TTGlyph>
    <TTGlyph name="Aogonek" xMin="78" yMin="-213" xMax="639" yMax="700">
      <contour>
        <pt x="616" y="-139" on="1"/>
        <pt x="639" y="-163" on="1"/>
        <pt x="607" y="-213" on="0"/>
        <pt x="543" y="-213" on="1"/>
        <pt x="526" y="-213" on="0"/>
        <pt x="489" y="-204" on="0"/>
        <pt x="450" y="-163" on="0"/>
        <pt x="450" y="-129" on="1"/>
        <pt x="450" y="-64" on="0"/>
        <pt x="546" y="0" on="1"/>
        <pt x="548" y="0" on="1"/>
        <pt x="457" y="268" on="1"/>
        <pt x="203" y="268" on="1"/>
        <pt x="111" y="0" on="1"/>
        <pt x="78" y="0" on="1"/>
        <pt x="316" y="700" on="1"/>
        <pt x="343" y="700" on="1"/>
        <pt x="583" y="0" on="1"/>
        <pt x="582" y="0" on="1"/>
        <pt x="480" y="-75" on="0"/>
        <pt x="480" y="-130" on="1"/>
        <pt x="480" y="-153" on="0"/>
        <pt x="515" y="-184" on="0"/>
        <pt x="542" y="-184" on="1"/>
        <pt x="588" y="-184" on="0"/>
      </contour>
      <contour>
        <pt x="447" y="300" on="1"/>
        <pt x="329" y="644" on="1"/>
        <pt x="213" y="300" on="1"/>
      </contour>
    </TTGlyph>
    <TTGlyph name="Aring" xMin="12" yMin="0" xMax="517" yMax="886">
      <contour>
        <pt x="517" y="0" on="1"/>
        <pt x="482" y="0" on="1"/>
        <pt x="391" y="268" on="1"/>
        <pt x="137" y="268" on="1"/>
        <pt x="45" y="0" on="1"/>
        <pt x="12" y="0" on="1"/>
        <pt x="241" y="673" on="1"/>
        <pt x="204" y="681" on="0"/>
        <pt x="154" y="740" on="0"/>
        <pt x="154" y="823" on="0"/>
        <pt x="218" y="886" on="0"/>
        <pt x="306" y="886" on="0"/>
        <pt x="370" y="823" on="0"/>
        <pt x="370" y="741" on="0"/>
        <pt x="322" y="681" on="0"/>
        <pt x="286" y="673" on="1"/>
      </contour>
      <contour>
        <pt x="381" y="300" on="1"/>
        <pt x="263" y="644" on="1"/>
        <pt x="147" y="300" on="1"/>
      </contour>
      <contour>
        <pt x="277" y="700" on="1"/>
        <pt x="277" y="699" on="1"/>
        <pt x="304" y="705" on="0"/>
        <pt x="341" y="750" on="0"/>
        <pt x="341" y="811" on="0"/>
        <pt x="295" y="858" on="0"/>
        <pt x="229" y="858" on="0"/>
        <pt x="182" y="811" on="0"/>
        <pt x="182" y="749" on="0"/>
        <pt x="220" y="704" on="0"/>
        <pt x="249" y="699" on="1"/>
        <pt x="250" y="700" on="1"/>
      </contour>
    </TTGlyph>
    <TTGlyph name="Atilde" xMin="12" yMin="0" xMax="517" yMax="825">
      <contour>
        <pt x="517" y="0" on="1"/>
        <pt x="482" y="0" on="1"/>
        <pt x="391" y="268" on="1"/>
        <pt x="137" y="268" on="1"/>
        <pt x="45" y="0" on="1"/>
        <pt x="12" y="0" on="1"/>
        <pt x="250" y="700" on="1"/>
        <pt x="277" y="700" on="1"/>
      </contour>
      <contour>
        <pt x="381" y="300" on="1"/>
        <pt x="263" y="644" on="1"/>
        <pt x="147" y="300" on="1"/>
      </contour>
      <contour>
        <pt x="195" y="825" on="1"/>
        <pt x="221" y="825" on="0"/>
        <pt x="286" y="795" on="1"/>
        <pt x="312" y="783" on="0"/>
        <pt x="376" y="783" on="0"/>
        <pt x="406" y="815" on="1"/>
        <pt x="422" y="791" on="1"/>
        <pt x="381" y="750" on="0"/>
        <pt x="338" y="750" on="1"/>
        <pt x="316" y="750" on="0"/>
        <pt x="263" y="771" on="0"/>
        <pt x="242" y="780" on="1"/>
        <pt x="214" y="793" on="0"/>
        <pt x="192" y="793" on="1"/>
        <pt x="150" y="793" on="0"/>
        <pt x="112" y="751" on="1"/>
        <pt x="96" y="775" on="1"/>
        <pt x="141" y="825" on="0"/>
      </contour>
    </TTGlyph>
    <TTGlyph name="B" xMin="78" yMin="0" xMax="511" yMax="700">
      <contour>
        <pt x="308" y="0" on="1"/>
        <pt x="78" y="0" on="1"/>
        <pt x="78" y="700" on="1"/>
        <pt x="299" y="700" on="1"/>
        <pt x="381" y="700" on="0"/>
        <pt x="475" y="617" on="0"/>
        <pt x="475" y="537" on="1"/>
        <pt x="475" y="495" on="0"/>
        <pt x="435" y="420" on="0"/>
        <pt x="395" y="400" on="1"/>
        <pt x="394" y="399" on="0"/>
        <pt x="394" y="398" on="1"/>
        <pt x="394" y="397" on="1"/>
        <pt x="444" y="377" on="0"/>
        <pt x="511" y="285" on="0"/>
        <pt x="511" y="209" on="1"/>
        <pt x="511" y="129" on="0"/>
        <pt x="470" y="70" on="1"/>
        <pt x="449" y="38" on="0"/>
        <pt x="366" y="0" on="0"/>
      </contour>
      <contour>
        <pt x="110" y="413" on="1"/>
        <pt x="322" y="413" on="1"/>
        <pt x="371" y="413" on="0"/>
        <pt x="406" y="445" on="1"/>
        <pt x="442" y="478" on="0"/>
        <pt x="442" y="602" on="0"/>
        <pt x="366" y="669" on="0"/>
        <pt x="291" y="669" on="1"/>
        <pt x="110" y="669" on="1"/>
      </contour>
      <contour>
        <pt x="110" y="31" on="1"/>
        <pt x="306" y="31" on="1"/>
        <pt x="388" y="31" on="0"/>
        <pt x="478" y="121" on="0"/>
        <pt x="478" y="288" on="0"/>
        <pt x="388" y="381" on="0"/>
        <pt x="314" y="381" on="1"/>
        <pt x="110" y="381" on="1"/>
      </contour>
    </TTGlyph>
    <TTGlyph name="Beta" xMin="78" yMin="0" xMax="511" yMax="700">
      <contour>
        <pt x="308" y="0" on="1"/>
        <pt x="78" y="0" on="1"/>
        <pt x="78" y="700" on="1"/>
        <pt x="299" y="700" on="1"/>
        <pt x="381" y="700" on="0"/>
        <pt x="475" y="617" on="0"/>
        <pt x="475" y="537" on="1"/>
        <pt x="475" y="495" on="0"/>
        <pt x="435" y="420" on="0"/>
        <pt x="395" y="400" on="1"/>
        <pt x="394" y="399" on="0"/>
        <pt x="394" y="398" on="1"/>
        <pt x="394" y="397" on="1"/>
        <pt x="444" y="377" on="0"/>
        <pt x="511" y="285" on="0"/>
        <pt x="511" y="209" on="1"/>
        <pt x="511" y="129" on="0"/>
        <pt x="470" y="70" on="1"/>
        <pt x="449" y="38" on="0"/>
        <pt x="366" y="0" on="0"/>
      </contour>
      <contour>
        <pt x="110" y="413" on="1"/>
        <pt x="322" y="413" on="1"/>
        <pt x="371" y="413" on="0"/>
        <pt x="406" y="445" on="1"/>
        <pt x="442" y="478" on="0"/>
        <pt x="442" y="602" on="0"/>
        <pt x="366" y="669" on="0"/>
        <pt x="291" y="669" on="1"/>
        <pt x="110" y="669" on="1"/>
      </contour>
      <contour>
        <pt x="110" y="31" on="1"/>
        <pt x="306" y="31" on="1"/>
        <pt x="388" y="31" on="0"/>
        <pt x="478" y="121" on="0"/>
        <pt x="478" y="288" on="0"/>
        <pt x="388" y="381" on="0"/>
        <pt x="314" y="381" on="1"/>
        <pt x="110" y="381" on="1"/>
      </contour>
    </TTGlyph>
    <TTGlyph name="C" xMin="66" yMin="-10" xMax="427" yMax="710">
      <contour>
        <pt x="427" y="23" on="1"/>
        <pt x="342" y="-10" on="0"/>
        <pt x="265" y="-10" on="1"/>
        <pt x="249" y="-10" on="0"/>
        <pt x="184" y="-4" on="0"/>
        <pt x="111" y="35" on="0"/>
        <pt x="66" y="120" on="0"/>
        <pt x="66" y="183" on="1"/>
        <pt x="66" y="504" on="1"/>
        <pt x="66" y="580" on="0"/>
        <pt x="109" y="658" on="0"/>
        <pt x="153" y="685" on="1"/>
        <pt x="198" y="710" on="0"/>
        <pt x="261" y="710" on="1"/>
        <pt x="340" y="710" on="0"/>
        <pt x="402" y="677" on="1"/>
        <pt x="391" y="653" on="1"/>
        <pt x="325" y="680" on="0"/>
        <pt x="268" y="680" on="1"/>
        <pt x="187" y="680" on="0"/>
        <pt x="141" y="637" on="1"/>
        <pt x="123" y="620" on="0"/>
        <pt x="98" y="556" on="0"/>
        <pt x="98" y="513" on="1"/>
        <pt x="98" y="185" on="1"/>
        <pt x="98" y="67" on="0"/>
        <pt x="187" y="32" on="1"/>
        <pt x="222" y="18" on="0"/>
        <pt x="332" y="18" on="0"/>
        <pt x="419" y="51" on="1"/>
      </contour>
    </TTGlyph>
    <TTGlyph name="Cacute" xMin="66" yMin="-10" xMax="427" yMax="875">
      <contour>
        <pt x="427" y="23" on="1"/>
        <pt x="342" y="-10" on="0"/>
        <pt x="265" y="-10" on="1"/>
        <pt x="249" y="-10" on="0"/>
        <pt x="184" y="-4" on="0"/>
        <pt x="111" y="35" on="0"/>
        <pt x="66" y="120" on="0"/>
        <pt x="66" y="183" on="1"/>
        <pt x="66" y="504" on="1"/>
        <pt x="66" y="580" on="0"/>
        <pt x="109" y="658" on="0"/>
        <pt x="153" y="685" on="1"/>
        <pt x="198" y="710" on="0"/>
        <pt x="261" y="710" on="1"/>
        <pt x="340" y="710" on="0"/>
        <pt x="402" y="677" on="1"/>
        <pt x="391" y="653" on="1"/>
        <pt x="325" y="680" on="0"/>
        <pt x="268" y="680" on="1"/>
        <pt x="187" y="680" on="0"/>
        <pt x="141" y="637" on="1"/>
        <pt x="123" y="620" on="0"/>
        <pt x="98" y="556" on="0"/>
        <pt x="98" y="513" on="1"/>
        <pt x="98" y="185" on="1"/>
        <pt x="98" y="67" on="0"/>
        <pt x="187" y="32" on="1"/>
        <pt x="222" y="18" on="0"/>
        <pt x="332" y="18" on="0"/>
        <pt x="419" y="51" on="1"/>
      </contour>
      <contour>
        <pt x="262" y="734" on="1"/>
        <pt x="234" y="734" on="1"/>
        <pt x="288" y="858" on="1"/>
        <pt x="295" y="875" on="0"/>
        <pt x="308" y="875" on="1"/>
        <pt x="326" y="875" on="0"/>
        <pt x="330" y="859" on="1"/>
        <pt x="331" y="856" on="0"/>
        <pt x="331" y="846" on="0"/>
        <pt x="327" y="840" on="1"/>
      </contour>
    </TTGlyph>
    <TTGlyph name="Ccaron" xMin="66" yMin="-10" xMax="427" yMax="897">
      <contour>
        <pt x="427" y="23" on="1"/>
        <pt x="342" y="-10" on="0"/>
        <pt x="265" y="-10" on="1"/>
        <pt x="249" y="-10" on="0"/>
        <pt x="184" y="-4" on="0"/>
        <pt x="111" y="35" on="0"/>
        <pt x="66" y="120" on="0"/>
        <pt x="66" y="183" on="1"/>
        <pt x="66" y="504" on="1"/>
        <pt x="66" y="580" on="0"/>
        <pt x="109" y="658" on="0"/>
        <pt x="153" y="685" on="1"/>
        <pt x="198" y="710" on="0"/>
        <pt x="261" y="710" on="1"/>
        <pt x="340" y="710" on="0"/>
        <pt x="402" y="677" on="1"/>
        <pt x="391" y="653" on="1"/>
        <pt x="325" y="680" on="0"/>
        <pt x="268" y="680" on="1"/>
        <pt x="187" y="680" on="0"/>
        <pt x="141" y="637" on="1"/>
        <pt x="123" y="620" on="0"/>
        <pt x="98" y="556" on="0"/>
        <pt x="98" y="513" on="1"/>
        <pt x="98" y="185" on="1"/>
        <pt x="98" y="67" on="0"/>
        <pt x="187" y="32" on="1"/>
        <pt x="222" y="18" on="0"/>
        <pt x="332" y="18" on="0"/>
        <pt x="419" y="51" on="1"/>
      </contour>
      <contour>
        <pt x="398" y="874" on="1"/>
        <pt x="256" y="733" on="1"/>
        <pt x="108" y="874" on="1"/>
        <pt x="131" y="897" on="1"/>
        <pt x="255" y="779" on="1"/>
        <pt x="375" y="897" on="1"/>
      </contour>
    </TTGlyph>
    <TTGlyph name="Ccedilla" xMin="66" yMin="-210" xMax="427" yMax="710">
      <contour>
        <pt x="218" y="-55" on="1"/>
        <pt x="235" y="-47" on="0"/>
        <pt x="298" y="-47" on="0"/>
        <pt x="351" y="-81" on="0"/>
        <pt x="351" y="-169" on="0"/>
        <pt x="277" y="-210" on="0"/>
        <pt x="187" y="-210" on="0"/>
        <pt x="135" y="-191" on="1"/>
        <pt x="150" y="-159" on="1"/>
        <pt x="187" y="-183" on="0"/>
        <pt x="267" y="-183" on="0"/>
        <pt x="320" y="-152" on="0"/>
        <pt x="320" y="-89" on="0"/>
        <pt x="290" y="-76" on="1"/>
        <pt x="277" y="-71" on="0"/>
        <pt x="242" y="-71" on="0"/>
        <pt x="219" y="-80" on="1"/>
        <pt x="181" y="-94" on="1"/>
        <pt x="171" y="-78" on="1"/>
        <pt x="225" y="-8" on="1"/>
        <pt x="153" y="0" on="0"/>
        <pt x="66" y="92" on="0"/>
        <pt x="66" y="183" on="1"/>
        <pt x="66" y="504" on="1"/>
        <pt x="66" y="580" on="0"/>
        <pt x="109" y="658" on="0"/>
        <pt x="153" y="685" on="1"/>
        <pt x="198" y="710" on="0"/>
        <pt x="261" y="710" on="1"/>
        <pt x="340" y="710" on="0"/>
        <pt x="402" y="677" on="1"/>
        <pt x="391" y="653" on="1"/>
        <pt x="325" y="680" on="0"/>
        <pt x="268" y="680" on="1"/>
        <pt x="187" y="680" on="0"/>
        <pt x="141" y="637" on="1"/>
        <pt x="123" y="620" on="0"/>
        <pt x="98" y="556" on="0"/>
        <pt x="98" y="513" on="1"/>
        <pt x="98" y="185" on="1"/>
        <pt x="98" y="67" on="0"/>
        <pt x="187" y="32" on="1"/>
        <pt x="222" y="18" on="0"/>
        <pt x="332" y="18" on="0"/>
        <pt x="419" y="51" on="1"/>
        <pt x="427" y="23" on="1"/>
        <pt x="341" y="-10" on="0"/>
        <pt x="265" y="-10" on="1"/>
        <pt x="258" y="-10" on="0"/>
        <pt x="252" y="-10" on="1"/>
      </contour>
    </TTGlyph>
    <TTGlyph name="Ccircumflex" xMin="66" yMin="-10" xMax="427" yMax="913">
      <contour>
        <pt x="397" y="748" on="1"/>
        <pt x="278" y="867" on="1"/>
        <pt x="155" y="748" on="1"/>
        <pt x="131" y="772" on="1"/>
        <pt x="279" y="913" on="1"/>
        <pt x="421" y="772" on="1"/>
      </contour>
      <contour>
        <pt x="427" y="23" on="1"/>
        <pt x="342" y="-10" on="0"/>
        <pt x="265" y="-10" on="1"/>
        <pt x="249" y="-10" on="0"/>
        <pt x="184" y="-4" on="0"/>
        <pt x="111" y="35" on="0"/>
        <pt x="66" y="120" on="0"/>
        <pt x="66" y="183" on="1"/>
        <pt x="66" y="504" on="1"/>
        <pt x="66" y="580" on="0"/>
        <pt x="109" y="658" on="0"/>
        <pt x="153" y="685" on="1"/>
        <pt x="198" y="710" on="0"/>
        <pt x="261" y="710" on="1"/>
        <pt x="340" y="710" on="0"/>
        <pt x="402" y="677" on="1"/>
        <pt x="391" y="653" on="1"/>
        <pt x="325" y="680" on="0"/>
        <pt x="268" y="680" on="1"/>
        <pt x="187" y="680" on="0"/>
        <pt x="141" y="637" on="1"/>
        <pt x="123" y="620" on="0"/>
        <pt x="98" y="556" on="0"/>
        <pt x="98" y="513" on="1"/>
        <pt x="98" y="185" on="1"/>
        <pt x="98" y="67" on="0"/>
        <pt x="187" y="32" on="1"/>
        <pt x="222" y="18" on="0"/>
        <pt x="332" y="18" on="0"/>
        <pt x="419" y="51" on="1"/>
      </contour>
    </TTGlyph>
    <TTGlyph name="Cdotaccent" xMin="66" yMin="-10" xMax="427" yMax="797">
      <contour>
        <pt x="427" y="23" on="1"/>
        <pt x="342" y="-10" on="0"/>
        <pt x="265" y="-10" on="1"/>
        <pt x="249" y="-10" on="0"/>
        <pt x="184" y="-4" on="0"/>
        <pt x="111" y="35" on="0"/>
        <pt x="66" y="120" on="0"/>
        <pt x="66" y="183" on="1"/>
        <pt x="66" y="504" on="1"/>
        <pt x="66" y="580" on="0"/>
        <pt x="109" y="658" on="0"/>
        <pt x="153" y="685" on="1"/>
        <pt x="198" y="710" on="0"/>
        <pt x="261" y="710" on="1"/>
        <pt x="340" y="710" on="0"/>
        <pt x="402" y="677" on="1"/>
        <pt x="391" y="653" on="1"/>
        <pt x="325" y="680" on="0"/>
        <pt x="268" y="680" on="1"/>
        <pt x="187" y="680" on="0"/>
        <pt x="141" y="637" on="1"/>
        <pt x="123" y="620" on="0"/>
        <pt x="98" y="556" on="0"/>
        <pt x="98" y="513" on="1"/>
        <pt x="98" y="185" on="1"/>
        <pt x="98" y="67" on="0"/>
        <pt x="187" y="32" on="1"/>
        <pt x="222" y="18" on="0"/>
        <pt x="332" y="18" on="0"/>
        <pt x="419" y="51" on="1"/>
      </contour>
      <contour>
        <pt x="286" y="768" on="0"/>
        <pt x="274" y="756" on="0"/>
        <pt x="257" y="756" on="0"/>
        <pt x="245" y="768" on="0"/>
        <pt x="245" y="785" on="0"/>
        <pt x="257" y="797" on="0"/>
        <pt x="274" y="797" on="0"/>
        <pt x="286" y="785" on="0"/>
      </contour>
    </TTGlyph>
    <TTGlyph name="Chi" xMin="78" yMin="0" xMax="585" yMax="700">
      <contour>
        <pt x="585" y="2" on="1"/>
        <pt x="546" y="0" on="1"/>
        <pt x="332" y="328" on="1"/>
        <pt x="118" y="0" on="1"/>
        <pt x="78" y="0" on="1"/>
        <pt x="313" y="360" on="1"/>
        <pt x="97" y="700" on="1"/>
        <pt x="133" y="700" on="1"/>
        <pt x="332" y="390" on="1"/>
        <pt x="531" y="700" on="1"/>
        <pt x="569" y="700" on="1"/>
        <pt x="352" y="360" on="1"/>
      </contour>
    </TTGlyph>
    <TTGlyph name="D" xMin="78" yMin="0" xMax="498" yMax="701">
      <contour>
        <pt x="286" y="0" on="1"/>
        <pt x="78" y="0" on="1"/>
        <pt x="78" y="701" on="1"/>
        <pt x="266" y="701" on="1"/>
        <pt x="379" y="701" on="0"/>
        <pt x="498" y="577" on="0"/>
        <pt x="498" y="474" on="1"/>
        <pt x="498" y="200" on="1"/>
        <pt x="498" y="0" on="0"/>
      </contour>
      <contour>
        <pt x="466" y="206" on="1"/>
        <pt x="466" y="474" on="1"/>
        <pt x="466" y="572" on="0"/>
        <pt x="355" y="669" on="0"/>
        <pt x="276" y="669" on="1"/>
        <pt x="110" y="669" on="1"/>
        <pt x="110" y="30" on="1"/>
        <pt x="274" y="30" on="1"/>
        <pt x="302" y="30" on="0"/>
        <pt x="344" y="34" on="0"/>
        <pt x="402" y="55" on="0"/>
        <pt x="439" y="90" on="0"/>
        <pt x="466" y="159" on="0"/>
      </contour>
    </TTGlyph>
    <TTGlyph name="Dcaron" xMin="78" yMin="0" xMax="498" yMax="898">
      <contour>
        <pt x="286" y="0" on="1"/>
        <pt x="78" y="0" on="1"/>
        <pt x="78" y="701" on="1"/>
        <pt x="266" y="701" on="1"/>
        <pt x="379" y="701" on="0"/>
        <pt x="498" y="577" on="0"/>
        <pt x="498" y="474" on="1"/>
        <pt x="498" y="200" on="1"/>
        <pt x="498" y="0" on="0"/>
      </contour>
      <contour>
        <pt x="466" y="206" on="1"/>
        <pt x="466" y="474" on="1"/>
        <pt x="466" y="572" on="0"/>
        <pt x="355" y="669" on="0"/>
        <pt x="276" y="669" on="1"/>
        <pt x="110" y="669" on="1"/>
        <pt x="110" y="30" on="1"/>
        <pt x="274" y="30" on="1"/>
        <pt x="302" y="30" on="0"/>
        <pt x="344" y="34" on="0"/>
        <pt x="402" y="55" on="0"/>
        <pt x="439" y="90" on="0"/>
        <pt x="466" y="159" on="0"/>
      </contour>
      <contour>
        <pt x="416" y="875" on="1"/>
        <pt x="274" y="734" on="1"/>
        <pt x="126" y="875" on="1"/>
        <pt x="149" y="898" on="1"/>
        <pt x="273" y="780" on="1"/>
        <pt x="393" y="898" on="1"/>
      </contour>
    </TTGlyph>
    <TTGlyph name="Dcroat" xMin="78" yMin="0" xMax="498" yMax="788">
      <contour>
        <pt x="286" y="0" on="1"/>
        <pt x="78" y="0" on="1"/>
        <pt x="78" y="701" on="1"/>
        <pt x="266" y="701" on="1"/>
        <pt x="379" y="701" on="0"/>
        <pt x="498" y="577" on="0"/>
        <pt x="498" y="474" on="1"/>
        <pt x="498" y="200" on="1"/>
        <pt x="498" y="0" on="0"/>
      </contour>
      <contour>
        <pt x="466" y="206" on="1"/>
        <pt x="466" y="474" on="1"/>
        <pt x="466" y="572" on="0"/>
        <pt x="355" y="669" on="0"/>
        <pt x="276" y="669" on="1"/>
        <pt x="110" y="669" on="1"/>
        <pt x="110" y="30" on="1"/>
        <pt x="274" y="30" on="1"/>
        <pt x="302" y="30" on="0"/>
        <pt x="344" y="34" on="0"/>
        <pt x="402" y="55" on="0"/>
        <pt x="439" y="90" on="0"/>
        <pt x="466" y="159" on="0"/>
      </contour>
      <contour>
        <pt x="392" y="755" on="1"/>
        <pt x="175" y="755" on="1"/>
        <pt x="175" y="788" on="1"/>
        <pt x="392" y="788" on="1"/>
      </contour>
    </TTGlyph>
    <TTGlyph name="Delta" xMin="78" yMin="0" xMax="583" yMax="700">
      <contour>
        <pt x="583" y="0" on="1"/>
        <pt x="78" y="0" on="1"/>
        <pt x="312" y="700" on="1"/>
        <pt x="343" y="700" on="1"/>
      </contour>
      <contour>
        <pt x="539" y="30" on="1"/>
        <pt x="328" y="653" on="1"/>
        <pt x="121" y="30" on="1"/>
      </contour>
    </TTGlyph>
    <TTGlyph name="E" xMin="78" yMin="0" xMax="412" yMax="700">
      <contour>
        <pt x="410" y="0" on="1"/>
        <pt x="78" y="0" on="1"/>
        <pt x="78" y="700" on="1"/>
        <pt x="412" y="700" on="1"/>
        <pt x="412" y="669" on="1"/>
        <pt x="110" y="669" on="1"/>
        <pt x="110" y="413" on="1"/>
        <pt x="325" y="413" on="1"/>
        <pt x="314" y="381" on="1"/>
        <pt x="110" y="381" on="1"/>
        <pt x="110" y="30" on="1"/>
        <pt x="410" y="30" on="1"/>
      </contour>
    </TTGlyph>
    <TTGlyph name="Eacute" xMin="78" yMin="0" xMax="412" yMax="871">
      <contour>
        <pt x="410" y="0" on="1"/>
        <pt x="78" y="0" on="1"/>
        <pt x="78" y="700" on="1"/>
        <pt x="412" y="700" on="1"/>
        <pt x="412" y="669" on="1"/>
        <pt x="110" y="669" on="1"/>
        <pt x="110" y="413" on="1"/>
        <pt x="325" y="413" on="1"/>
        <pt x="314" y="381" on="1"/>
        <pt x="110" y="381" on="1"/>
        <pt x="110" y="30" on="1"/>
        <pt x="410" y="30" on="1"/>
      </contour>
      <contour>
        <pt x="265" y="730" on="1"/>
        <pt x="237" y="730" on="1"/>
        <pt x="291" y="854" on="1"/>
        <pt x="298" y="871" on="0"/>
        <pt x="311" y="871" on="1"/>
        <pt x="329" y="871" on="0"/>
        <pt x="334" y="855" on="1"/>
        <pt x="334" y="852" on="0"/>
        <pt x="334" y="842" on="0"/>
        <pt x="330" y="836" on="1"/>
      </contour>
    </TTGlyph>
    <TTGlyph name="Ecaron" xMin="78" yMin="0" xMax="412" yMax="898">
      <contour>
        <pt x="410" y="0" on="1"/>
        <pt x="78" y="0" on="1"/>
        <pt x="78" y="700" on="1"/>
        <pt x="412" y="700" on="1"/>
        <pt x="412" y="669" on="1"/>
        <pt x="110" y="669" on="1"/>
        <pt x="110" y="413" on="1"/>
        <pt x="325" y="413" on="1"/>
        <pt x="314" y="381" on="1"/>
        <pt x="110" y="381" on="1"/>
        <pt x="110" y="30" on="1"/>
        <pt x="410" y="30" on="1"/>
      </contour>
      <contour>
        <pt x="391" y="875" on="1"/>
        <pt x="249" y="734" on="1"/>
        <pt x="101" y="875" on="1"/>
        <pt x="124" y="898" on="1"/>
        <pt x="248" y="780" on="1"/>
        <pt x="368" y="898" on="1"/>
      </contour>
    </TTGlyph>
    <TTGlyph name="Ecircumflex" xMin="78" yMin="0" xMax="412" yMax="913">
      <contour>
        <pt x="410" y="0" on="1"/>
        <pt x="78" y="0" on="1"/>
        <pt x="78" y="700" on="1"/>
        <pt x="412" y="700" on="1"/>
        <pt x="412" y="669" on="1"/>
        <pt x="110" y="669" on="1"/>
        <pt x="110" y="413" on="1"/>
        <pt x="325" y="413" on="1"/>
        <pt x="314" y="381" on="1"/>
        <pt x="110" y="381" on="1"/>
        <pt x="110" y="30" on="1"/>
        <pt x="410" y="30" on="1"/>
      </contour>
      <contour>
        <pt x="360" y="748" on="1"/>
        <pt x="241" y="867" on="1"/>
        <pt x="118" y="748" on="1"/>
        <pt x="94" y="772" on="1"/>
        <pt x="242" y="913" on="1"/>
        <pt x="384" y="772" on="1"/>
      </contour>
    </TTGlyph>
    <TTGlyph name="Edieresis" xMin="78" yMin="0" xMax="412" yMax="700">
      <contour>
        <pt x="410" y="0" on="1"/>
        <pt x="78" y="0" on="1"/>
        <pt x="78" y="700" on="1"/>
        <pt x="412" y="700" on="1"/>
        <pt x="412" y="669" on="1"/>
        <pt x="110" y="669" on="1"/>
        <pt x="110" y="413" on="1"/>
        <pt x="325" y="413" on="1"/>
        <pt x="314" y="381" on="1"/>
        <pt x="110" y="381" on="1"/>
        <pt x="110" y="30" on="1"/>
        <pt x="410" y="30" on="1"/>
      </contour>
    </TTGlyph>
    <TTGlyph name="Edotaccent" xMin="78" yMin="0" xMax="412" yMax="797">
      <contour>
        <pt x="410" y="0" on="1"/>
        <pt x="78" y="0" on="1"/>
        <pt x="78" y="700" on="1"/>
        <pt x="412" y="700" on="1"/>
        <pt x="412" y="669" on="1"/>
        <pt x="110" y="669" on="1"/>
        <pt x="110" y="413" on="1"/>
        <pt x="325" y="413" on="1"/>
        <pt x="314" y="381" on="1"/>
        <pt x="110" y="381" on="1"/>
        <pt x="110" y="30" on="1"/>
        <pt x="410" y="30" on="1"/>
      </contour>
      <contour>
        <pt x="276" y="768" on="0"/>
        <pt x="264" y="756" on="0"/>
        <pt x="247" y="756" on="0"/>
        <pt x="235" y="768" on="0"/>
        <pt x="235" y="785" on="0"/>
        <pt x="247" y="797" on="0"/>
        <pt x="264" y="797" on="0"/>
        <pt x="276" y="785" on="0"/>
      </contour>
    </TTGlyph>
    <TTGlyph name="Egrave" xMin="78" yMin="0" xMax="412" yMax="871">
      <contour>
        <pt x="410" y="0" on="1"/>
        <pt x="78" y="0" on="1"/>
        <pt x="78" y="700" on="1"/>
        <pt x="412" y="700" on="1"/>
        <pt x="412" y="669" on="1"/>
        <pt x="110" y="669" on="1"/>
        <pt x="110" y="413" on="1"/>
        <pt x="325" y="413" on="1"/>
        <pt x="314" y="381" on="1"/>
        <pt x="110" y="381" on="1"/>
        <pt x="110" y="30" on="1"/>
        <pt x="410" y="30" on="1"/>
      </contour>
      <contour>
        <pt x="270" y="730" on="1"/>
        <pt x="242" y="730" on="1"/>
        <pt x="177" y="835" on="1"/>
        <pt x="173" y="841" on="0"/>
        <pt x="173" y="846" on="1"/>
        <pt x="173" y="864" on="0"/>
        <pt x="186" y="869" on="1"/>
        <pt x="191" y="871" on="0"/>
        <pt x="196" y="871" on="1"/>
        <pt x="209" y="871" on="0"/>
        <pt x="216" y="854" on="1"/>
      </contour>
    </TTGlyph>
    <TTGlyph name="Emacron" xMin="78" yMin="0" xMax="412" yMax="788">
      <contour>
        <pt x="410" y="0" on="1"/>
        <pt x="78" y="0" on="1"/>
        <pt x="78" y="700" on="1"/>
        <pt x="412" y="700" on="1"/>
        <pt x="412" y="669" on="1"/>
        <pt x="110" y="669" on="1"/>
        <pt x="110" y="413" on="1"/>
        <pt x="325" y="413" on="1"/>
        <pt x="314" y="381" on="1"/>
        <pt x="110" y="381" on="1"/>
        <pt x="110" y="30" on="1"/>
        <pt x="410" y="30" on="1"/>
      </contour>
      <contour>
        <pt x="352" y="755" on="1"/>
        <pt x="135" y="755" on="1"/>
        <pt x="135" y="788" on="1"/>
        <pt x="352" y="788" on="1"/>
      </contour>
    </TTGlyph>
    <TTGlyph name="Eng" xMin="78" yMin="-37" xMax="570" yMax="700">
      <contour>
        <pt x="539" y="129" on="1"/>
        <pt x="539" y="668" on="1"/>
        <pt x="461" y="670" on="1"/>
        <pt x="461" y="700" on="1"/>
        <pt x="570" y="700" on="1"/>
        <pt x="570" y="121" on="1"/>
        <pt x="570" y="-25" on="0"/>
        <pt x="459" y="-37" on="1"/>
        <pt x="454" y="-26" on="0"/>
        <pt x="450" y="-12" on="1"/>
        <pt x="496" y="-8" on="0"/>
        <pt x="519" y="29" on="1"/>
        <pt x="356" y="276" on="0"/>
        <pt x="109" y="644" on="1"/>
        <pt x="109" y="0" on="1"/>
        <pt x="78" y="0" on="1"/>
        <pt x="78" y="700" on="1"/>
        <pt x="109" y="700" on="1"/>
        <pt x="156" y="630" on="0"/>
        <pt x="533" y="66" on="1"/>
        <pt x="539" y="85" on="0"/>
      </contour>
    </TTGlyph>
    <TTGlyph name="Eogonek" xMin="78" yMin="-213" xMax="467" yMax="700">
      <contour>
        <pt x="444" y="-139" on="1"/>
        <pt x="467" y="-163" on="1"/>
        <pt x="435" y="-213" on="0"/>
        <pt x="371" y="-213" on="1"/>
        <pt x="354" y="-213" on="0"/>
        <pt x="317" y="-204" on="0"/>
        <pt x="278" y="-163" on="0"/>
        <pt x="278" y="-129" on="1"/>
        <pt x="278" y="-64" on="0"/>
        <pt x="374" y="0" on="1"/>
        <pt x="78" y="0" on="1"/>
        <pt x="78" y="700" on="1"/>
        <pt x="412" y="700" on="1"/>
        <pt x="412" y="669" on="1"/>
        <pt x="110" y="669" on="1"/>
        <pt x="110" y="413" on="1"/>
        <pt x="325" y="413" on="1"/>
        <pt x="314" y="381" on="1"/>
        <pt x="110" y="381" on="1"/>
        <pt x="110" y="30" on="1"/>
        <pt x="410" y="30" on="1"/>
        <pt x="410" y="0" on="1"/>
        <pt x="308" y="-75" on="0"/>
        <pt x="308" y="-130" on="1"/>
        <pt x="308" y="-153" on="0"/>
        <pt x="343" y="-184" on="0"/>
        <pt x="370" y="-184" on="1"/>
        <pt x="416" y="-184" on="0"/>
      </contour>
    </TTGlyph>
    <TTGlyph name="Epsilon" xMin="78" yMin="0" xMax="412" yMax="700">
      <contour>
        <pt x="410" y="0" on="1"/>
        <pt x="78" y="0" on="1"/>
        <pt x="78" y="700" on="1"/>
        <pt x="412" y="700" on="1"/>
        <pt x="412" y="669" on="1"/>
        <pt x="110" y="669" on="1"/>
        <pt x="110" y="413" on="1"/>
        <pt x="325" y="413" on="1"/>
        <pt x="314" y="381" on="1"/>
        <pt x="110" y="381" on="1"/>
        <pt x="110" y="30" on="1"/>
        <pt x="410" y="30" on="1"/>
      </contour>
    </TTGlyph>
    <TTGlyph name="Epsilontonos" xMin="78" yMin="0" xMax="579" yMax="709">
      <contour>
        <pt x="106" y="568" on="1"/>
        <pt x="78" y="568" on="1"/>
        <pt x="132" y="692" on="1"/>
        <pt x="139" y="709" on="0"/>
        <pt x="152" y="709" on="1"/>
        <pt x="170" y="709" on="0"/>
        <pt x="174" y="693" on="1"/>
        <pt x="177" y="683" on="0"/>
        <pt x="171" y="674" on="1"/>
      </contour>
      <contour>
        <pt x="577" y="0" on="1"/>
        <pt x="245" y="0" on="1"/>
        <pt x="245" y="700" on="1"/>
        <pt x="579" y="700" on="1"/>
        <pt x="579" y="669" on="1"/>
        <pt x="277" y="669" on="1"/>
        <pt x="277" y="413" on="1"/>
        <pt x="492" y="413" on="1"/>
        <pt x="481" y="381" on="1"/>
        <pt x="277" y="381" on="1"/>
        <pt x="277" y="30" on="1"/>
        <pt x="577" y="30" on="1"/>
      </contour>
    </TTGlyph>
    <TTGlyph name="Eta" xMin="80" yMin="0" xMax="510" yMax="700">
      <contour>
        <pt x="510" y="0" on="1"/>
        <pt x="478" y="0" on="1"/>
        <pt x="478" y="381" on="1"/>
        <pt x="112" y="381" on="1"/>
        <pt x="112" y="0" on="1"/>
        <pt x="80" y="0" on="1"/>
        <pt x="80" y="700" on="1"/>
        <pt x="112" y="700" on="1"/>
        <pt x="112" y="413" on="1"/>
        <pt x="478" y="413" on="1"/>
        <pt x="478" y="700" on="1"/>
        <pt x="510" y="700" on="1"/>
      </contour>
    </TTGlyph>
    <TTGlyph name="Etatonos" xMin="78" yMin="0" xMax="677" yMax="709">
      <contour>
        <pt x="106" y="568" on="1"/>
        <pt x="78" y="568" on="1"/>
        <pt x="132" y="692" on="1"/>
        <pt x="139" y="709" on="0"/>
        <pt x="152" y="709" on="1"/>
        <pt x="170" y="709" on="0"/>
        <pt x="174" y="693" on="1"/>
        <pt x="177" y="683" on="0"/>
        <pt x="171" y="674" on="1"/>
      </contour>
      <contour>
        <pt x="677" y="0" on="1"/>
        <pt x="645" y="0" on="1"/>
        <pt x="645" y="381" on="1"/>
        <pt x="279" y="381" on="1"/>
        <pt x="279" y="0" on="1"/>
        <pt x="247" y="0" on="1"/>
        <pt x="247" y="700" on="1"/>
        <pt x="279" y="700" on="1"/>
        <pt x="279" y="413" on="1"/>
        <pt x="645" y="413" on="1"/>
        <pt x="645" y="700" on="1"/>
        <pt x="677" y="700" on="1"/>
      </contour>
    </TTGlyph>
    <TTGlyph name="Eth" xMin="78" yMin="0" xMax="605" yMax="701">
      <contour>
        <pt x="335" y="0" on="1"/>
        <pt x="127" y="0" on="1"/>
        <pt x="127" y="506" on="1"/>
        <pt x="78" y="506" on="1"/>
        <pt x="78" y="538" on="1"/>
        <pt x="127" y="538" on="1"/>
        <pt x="127" y="701" on="1"/>
        <pt x="315" y="701" on="1"/>
        <pt x="408" y="701" on="0"/>
        <pt x="523" y="613" on="0"/>
        <pt x="540" y="538" on="1"/>
        <pt x="605" y="538" on="1"/>
        <pt x="605" y="506" on="1"/>
        <pt x="545" y="506" on="1"/>
        <pt x="547" y="484" on="0"/>
        <pt x="547" y="474" on="1"/>
        <pt x="547" y="200" on="1"/>
        <pt x="547" y="0" on="0"/>
      </contour>
      <contour>
        <pt x="515" y="206" on="1"/>
        <pt x="515" y="474" on="1"/>
        <pt x="515" y="486" on="0"/>
        <pt x="513" y="506" on="1"/>
        <pt x="159" y="506" on="1"/>
        <pt x="159" y="30" on="1"/>
        <pt x="323" y="30" on="1"/>
        <pt x="351" y="30" on="0"/>
        <pt x="393" y="34" on="0"/>
        <pt x="451" y="55" on="0"/>
        <pt x="488" y="90" on="0"/>
        <pt x="515" y="159" on="0"/>
      </contour>
      <contour>
        <pt x="325" y="669" on="1"/>
        <pt x="159" y="669" on="1"/>
        <pt x="159" y="538" on="1"/>
        <pt x="507" y="538" on="1"/>
        <pt x="490" y="604" on="0"/>
        <pt x="389" y="669" on="0"/>
      </contour>
    </TTGlyph>
    <TTGlyph name="Euro" xMin="78" yMin="-10" xMax="494" yMax="710">
      <contour>
        <pt x="494" y="23" on="1"/>
        <pt x="409" y="-10" on="0"/>
        <pt x="332" y="-10" on="1"/>
        <pt x="316" y="-10" on="0"/>
        <pt x="251" y="-4" on="0"/>
        <pt x="178" y="35" on="0"/>
        <pt x="133" y="120" on="0"/>
        <pt x="133" y="183" on="1"/>
        <pt x="133" y="276" on="1"/>
        <pt x="78" y="276" on="1"/>
        <pt x="78" y="308" on="1"/>
        <pt x="133" y="308" on="1"/>
        <pt x="133" y="381" on="1"/>
        <pt x="78" y="381" on="1"/>
        <pt x="78" y="413" on="1"/>
        <pt x="133" y="413" on="1"/>
        <pt x="133" y="504" on="1"/>
        <pt x="133" y="580" on="0"/>
        <pt x="176" y="658" on="0"/>
        <pt x="220" y="685" on="1"/>
        <pt x="265" y="710" on="0"/>
        <pt x="328" y="710" on="1"/>
        <pt x="407" y="710" on="0"/>
        <pt x="469" y="677" on="1"/>
        <pt x="458" y="653" on="1"/>
        <pt x="392" y="680" on="0"/>
        <pt x="335" y="680" on="1"/>
        <pt x="254" y="680" on="0"/>
        <pt x="208" y="637" on="1"/>
        <pt x="190" y="620" on="0"/>
        <pt x="165" y="556" on="0"/>
        <pt x="165" y="513" on="1"/>
        <pt x="165" y="413" on="1"/>
        <pt x="398" y="413" on="1"/>
        <pt x="398" y="381" on="1"/>
        <pt x="165" y="381" on="1"/>
        <pt x="165" y="308" on="1"/>
        <pt x="398" y="308" on="1"/>
        <pt x="398" y="276" on="1"/>
        <pt x="165" y="276" on="1"/>
        <pt x="165" y="185" on="1"/>
        <pt x="165" y="67" on="0"/>
        <pt x="254" y="32" on="1"/>
        <pt x="289" y="18" on="0"/>
        <pt x="399" y="18" on="0"/>
        <pt x="486" y="51" on="1"/>
      </contour>
    </TTGlyph>
    <TTGlyph name="F" xMin="78" yMin="0" xMax="412" yMax="700">
      <contour>
        <pt x="111" y="0" on="1"/>
        <pt x="78" y="0" on="1"/>
        <pt x="78" y="700" on="1"/>
        <pt x="412" y="700" on="1"/>
        <pt x="412" y="668" on="1"/>
        <pt x="111" y="668" on="1"/>
        <pt x="111" y="413" on="1"/>
        <pt x="305" y="413" on="1"/>
        <pt x="292" y="381" on="1"/>
        <pt x="111" y="381" on="1"/>
      </contour>
    </TTGlyph>
    <TTGlyph name="G" xMin="65" yMin="-10" xMax="476" yMax="709">
      <contour>
        <pt x="391" y="652" on="1"/>
        <pt x="320" y="680" on="0"/>
        <pt x="265" y="680" on="1"/>
        <pt x="225" y="680" on="0"/>
        <pt x="161" y="655" on="0"/>
        <pt x="124" y="619" on="0"/>
        <pt x="97" y="549" on="0"/>
        <pt x="97" y="502" on="1"/>
        <pt x="97" y="187" on="1"/>
        <pt x="97" y="112" on="0"/>
        <pt x="195" y="21" on="0"/>
        <pt x="362" y="21" on="0"/>
        <pt x="445" y="114" on="0"/>
        <pt x="445" y="183" on="1"/>
        <pt x="445" y="268" on="1"/>
        <pt x="350" y="268" on="1"/>
        <pt x="338" y="300" on="1"/>
        <pt x="476" y="300" on="1"/>
        <pt x="476" y="0" on="1"/>
        <pt x="449" y="0" on="1"/>
        <pt x="444" y="72" on="1"/>
        <pt x="398" y="-10" on="0"/>
        <pt x="276" y="-10" on="1"/>
        <pt x="188" y="-10" on="0"/>
        <pt x="65" y="90" on="0"/>
        <pt x="65" y="189" on="1"/>
        <pt x="65" y="503" on="1"/>
        <pt x="65" y="631" on="0"/>
        <pt x="152" y="684" on="1"/>
        <pt x="197" y="709" on="0"/>
        <pt x="259" y="709" on="1"/>
        <pt x="336" y="709" on="0"/>
        <pt x="401" y="676" on="1"/>
      </contour>
    </TTGlyph>
    <TTGlyph name="Gamma" xMin="78" yMin="0" xMax="412" yMax="700">
      <contour>
        <pt x="110" y="0" on="1"/>
        <pt x="78" y="0" on="1"/>
        <pt x="78" y="700" on="1"/>
        <pt x="412" y="700" on="1"/>
        <pt x="412" y="668" on="1"/>
        <pt x="110" y="668" on="1"/>
      </contour>
    </TTGlyph>
    <TTGlyph name="Gbreve" xMin="65" yMin="-10" xMax="476" yMax="846">
      <contour>
        <pt x="391" y="652" on="1"/>
        <pt x="320" y="680" on="0"/>
        <pt x="265" y="680" on="1"/>
        <pt x="225" y="680" on="0"/>
        <pt x="161" y="655" on="0"/>
        <pt x="124" y="619" on="0"/>
        <pt x="97" y="549" on="0"/>
        <pt x="97" y="502" on="1"/>
        <pt x="97" y="187" on="1"/>
        <pt x="97" y="112" on="0"/>
        <pt x="195" y="21" on="0"/>
        <pt x="362" y="21" on="0"/>
        <pt x="445" y="114" on="0"/>
        <pt x="445" y="183" on="1"/>
        <pt x="445" y="268" on="1"/>
        <pt x="350" y="268" on="1"/>
        <pt x="338" y="300" on="1"/>
        <pt x="476" y="300" on="1"/>
        <pt x="476" y="0" on="1"/>
        <pt x="449" y="0" on="1"/>
        <pt x="444" y="72" on="1"/>
        <pt x="398" y="-10" on="0"/>
        <pt x="276" y="-10" on="1"/>
        <pt x="188" y="-10" on="0"/>
        <pt x="65" y="90" on="0"/>
        <pt x="65" y="189" on="1"/>
        <pt x="65" y="503" on="1"/>
        <pt x="65" y="631" on="0"/>
        <pt x="152" y="684" on="1"/>
        <pt x="197" y="709" on="0"/>
        <pt x="259" y="709" on="1"/>
        <pt x="336" y="709" on="0"/>
        <pt x="401" y="676" on="1"/>
      </contour>
      <contour>
        <pt x="389" y="846" on="1"/>
        <pt x="389" y="841" on="1"/>
        <pt x="389" y="794" on="0"/>
        <pt x="322" y="728" on="0"/>
        <pt x="230" y="728" on="0"/>
        <pt x="163" y="794" on="0"/>
        <pt x="163" y="841" on="1"/>
        <pt x="163" y="846" on="1"/>
        <pt x="192" y="846" on="1"/>
        <pt x="192" y="841" on="1"/>
        <pt x="192" y="810" on="0"/>
        <pt x="239" y="757" on="0"/>
        <pt x="312" y="757" on="0"/>
        <pt x="360" y="810" on="0"/>
        <pt x="360" y="841" on="1"/>
        <pt x="360" y="846" on="1"/>
      </contour>
    </TTGlyph>
    <TTGlyph name="Gcircumflex" xMin="65" yMin="-10" xMax="476" yMax="913">
      <contour>
        <pt x="391" y="652" on="1"/>
        <pt x="320" y="680" on="0"/>
        <pt x="265" y="680" on="1"/>
        <pt x="225" y="680" on="0"/>
        <pt x="161" y="655" on="0"/>
        <pt x="124" y="619" on="0"/>
        <pt x="97" y="549" on="0"/>
        <pt x="97" y="502" on="1"/>
        <pt x="97" y="187" on="1"/>
        <pt x="97" y="112" on="0"/>
        <pt x="195" y="21" on="0"/>
        <pt x="362" y="21" on="0"/>
        <pt x="445" y="114" on="0"/>
        <pt x="445" y="183" on="1"/>
        <pt x="445" y="268" on="1"/>
        <pt x="350" y="268" on="1"/>
        <pt x="338" y="300" on="1"/>
        <pt x="476" y="300" on="1"/>
        <pt x="476" y="0" on="1"/>
        <pt x="449" y="0" on="1"/>
        <pt x="444" y="72" on="1"/>
        <pt x="398" y="-10" on="0"/>
        <pt x="276" y="-10" on="1"/>
        <pt x="188" y="-10" on="0"/>
        <pt x="65" y="90" on="0"/>
        <pt x="65" y="189" on="1"/>
        <pt x="65" y="503" on="1"/>
        <pt x="65" y="631" on="0"/>
        <pt x="152" y="684" on="1"/>
        <pt x="197" y="709" on="0"/>
        <pt x="259" y="709" on="1"/>
        <pt x="336" y="709" on="0"/>
        <pt x="401" y="676" on="1"/>
      </contour>
      <contour>
        <pt x="400" y="748" on="1"/>
        <pt x="281" y="867" on="1"/>
        <pt x="158" y="748" on="1"/>
        <pt x="134" y="772" on="1"/>
        <pt x="282" y="913" on="1"/>
        <pt x="424" y="772" on="1"/>
      </contour>
    </TTGlyph>
    <TTGlyph name="Gcommaaccent" xMin="65" yMin="-184" xMax="476" yMax="709">
      <contour>
        <pt x="391" y="652" on="1"/>
        <pt x="320" y="680" on="0"/>
        <pt x="265" y="680" on="1"/>
        <pt x="225" y="680" on="0"/>
        <pt x="161" y="655" on="0"/>
        <pt x="124" y="619" on="0"/>
        <pt x="97" y="549" on="0"/>
        <pt x="97" y="502" on="1"/>
        <pt x="97" y="187" on="1"/>
        <pt x="97" y="112" on="0"/>
        <pt x="195" y="21" on="0"/>
        <pt x="362" y="21" on="0"/>
        <pt x="445" y="114" on="0"/>
        <pt x="445" y="183" on="1"/>
        <pt x="445" y="268" on="1"/>
        <pt x="350" y="268" on="1"/>
        <pt x="338" y="300" on="1"/>
        <pt x="476" y="300" on="1"/>
        <pt x="476" y="0" on="1"/>
        <pt x="449" y="0" on="1"/>
        <pt x="444" y="72" on="1"/>
        <pt x="398" y="-10" on="0"/>
        <pt x="276" y="-10" on="1"/>
        <pt x="188" y="-10" on="0"/>
        <pt x="65" y="90" on="0"/>
        <pt x="65" y="189" on="1"/>
        <pt x="65" y="503" on="1"/>
        <pt x="65" y="631" on="0"/>
        <pt x="152" y="684" on="1"/>
        <pt x="197" y="709" on="0"/>
        <pt x="259" y="709" on="1"/>
        <pt x="336" y="709" on="0"/>
        <pt x="401" y="676" on="1"/>
      </contour>
      <contour>
        <pt x="238" y="-184" on="1"/>
        <pt x="213" y="-167" on="1"/>
        <pt x="237" y="-154" on="0"/>
        <pt x="269" y="-121" on="0"/>
        <pt x="272" y="-112" on="1"/>
        <pt x="276" y="-102" on="1"/>
        <pt x="271" y="-101" on="1"/>
        <pt x="256" y="-94" on="0"/>
        <pt x="256" y="-70" on="0"/>
        <pt x="269" y="-58" on="0"/>
        <pt x="286" y="-58" on="0"/>
        <pt x="300" y="-72" on="0"/>
        <pt x="300" y="-81" on="1"/>
        <pt x="300" y="-133" on="0"/>
      </contour>
    </TTGlyph>
    <TTGlyph name="Gdotaccent" xMin="65" yMin="-10" xMax="476" yMax="796">
      <contour>
        <pt x="293" y="767" on="0"/>
        <pt x="281" y="755" on="0"/>
        <pt x="264" y="755" on="0"/>
        <pt x="252" y="767" on="0"/>
        <pt x="252" y="784" on="0"/>
        <pt x="264" y="796" on="0"/>
        <pt x="281" y="796" on="0"/>
        <pt x="293" y="784" on="0"/>
      </contour>
      <contour>
        <pt x="391" y="652" on="1"/>
        <pt x="320" y="680" on="0"/>
        <pt x="265" y="680" on="1"/>
        <pt x="225" y="680" on="0"/>
        <pt x="161" y="655" on="0"/>
        <pt x="124" y="619" on="0"/>
        <pt x="97" y="549" on="0"/>
        <pt x="97" y="502" on="1"/>
        <pt x="97" y="187" on="1"/>
        <pt x="97" y="112" on="0"/>
        <pt x="195" y="21" on="0"/>
        <pt x="362" y="21" on="0"/>
        <pt x="445" y="114" on="0"/>
        <pt x="445" y="183" on="1"/>
        <pt x="445" y="268" on="1"/>
        <pt x="350" y="268" on="1"/>
        <pt x="338" y="300" on="1"/>
        <pt x="476" y="300" on="1"/>
        <pt x="476" y="0" on="1"/>
        <pt x="449" y="0" on="1"/>
        <pt x="444" y="72" on="1"/>
        <pt x="398" y="-10" on="0"/>
        <pt x="276" y="-10" on="1"/>
        <pt x="188" y="-10" on="0"/>
        <pt x="65" y="90" on="0"/>
        <pt x="65" y="189" on="1"/>
        <pt x="65" y="503" on="1"/>
        <pt x="65" y="631" on="0"/>
        <pt x="152" y="684" on="1"/>
        <pt x="197" y="709" on="0"/>
        <pt x="259" y="709" on="1"/>
        <pt x="336" y="709" on="0"/>
        <pt x="401" y="676" on="1"/>
      </contour>
    </TTGlyph>
    <TTGlyph name="H" xMin="78" yMin="0" xMax="508" yMax="700">
      <contour>
        <pt x="508" y="0" on="1"/>
        <pt x="476" y="0" on="1"/>
        <pt x="476" y="381" on="1"/>
        <pt x="110" y="381" on="1"/>
        <pt x="110" y="0" on="1"/>
        <pt x="78" y="0" on="1"/>
        <pt x="78" y="700" on="1"/>
        <pt x="110" y="700" on="1"/>
        <pt x="110" y="413" on="1"/>
        <pt x="476" y="413" on="1"/>
        <pt x="476" y="700" on="1"/>
        <pt x="508" y="700" on="1"/>
      </contour>
    </TTGlyph>
    <TTGlyph name="Hbar" xMin="78" yMin="0" xMax="605" yMax="700">
      <contour>
        <pt x="557" y="0" on="1"/>
        <pt x="525" y="0" on="1"/>
        <pt x="525" y="381" on="1"/>
        <pt x="159" y="381" on="1"/>
        <pt x="159" y="0" on="1"/>
        <pt x="127" y="0" on="1"/>
        <pt x="127" y="506" on="1"/>
        <pt x="78" y="506" on="1"/>
        <pt x="78" y="538" on="1"/>
        <pt x="127" y="538" on="1"/>
        <pt x="127" y="700" on="1"/>
        <pt x="159" y="700" on="1"/>
        <pt x="159" y="538" on="1"/>
        <pt x="525" y="538" on="1"/>
        <pt x="525" y="700" on="1"/>
        <pt x="557" y="700" on="1"/>
        <pt x="557" y="538" on="1"/>
        <pt x="605" y="538" on="1"/>
        <pt x="605" y="506" on="1"/>
        <pt x="557" y="506" on="1"/>
      </contour>
      <contour>
        <pt x="525" y="413" on="1"/>
        <pt x="525" y="506" on="1"/>
        <pt x="159" y="506" on="1"/>
        <pt x="159" y="413" on="1"/>
      </contour>
    </TTGlyph>
    <TTGlyph name="Hcircumflex" xMin="78" yMin="0" xMax="508" yMax="913">
      <contour>
        <pt x="508" y="0" on="1"/>
        <pt x="476" y="0" on="1"/>
        <pt x="476" y="381" on="1"/>
        <pt x="110" y="381" on="1"/>
        <pt x="110" y="0" on="1"/>
        <pt x="78" y="0" on="1"/>
        <pt x="78" y="700" on="1"/>
        <pt x="110" y="700" on="1"/>
        <pt x="110" y="413" on="1"/>
        <pt x="476" y="413" on="1"/>
        <pt x="476" y="700" on="1"/>
        <pt x="508" y="700" on="1"/>
      </contour>
      <contour>
        <pt x="416" y="748" on="1"/>
        <pt x="297" y="867" on="1"/>
        <pt x="174" y="748" on="1"/>
        <pt x="150" y="772" on="1"/>
        <pt x="298" y="913" on="1"/>
        <pt x="440" y="772" on="1"/>
      </contour>
    </TTGlyph>
    <TTGlyph name="I" xMin="29" yMin="0" xMax="141" yMax="700">
      <contour>
        <pt x="141" y="0" on="1"/>
        <pt x="109" y="0" on="1"/>
        <pt x="109" y="668" on="1"/>
        <pt x="29" y="670" on="1"/>
        <pt x="29" y="700" on="1"/>
        <pt x="141" y="700" on="1"/>
      </contour>
    </TTGlyph>
    <TTGlyph name="Iacute" xMin="78" yMin="0" xMax="257" yMax="871">
      <contour>
        <pt x="190" y="0" on="1"/>
        <pt x="158" y="0" on="1"/>
        <pt x="158" y="668" on="1"/>
        <pt x="78" y="670" on="1"/>
        <pt x="78" y="700" on="1"/>
        <pt x="190" y="700" on="1"/>
      </contour>
      <contour>
        <pt x="188" y="730" on="1"/>
        <pt x="160" y="730" on="1"/>
        <pt x="214" y="854" on="1"/>
        <pt x="221" y="871" on="0"/>
        <pt x="234" y="871" on="1"/>
        <pt x="252" y="871" on="0"/>
        <pt x="256" y="855" on="1"/>
        <pt x="257" y="852" on="0"/>
        <pt x="257" y="842" on="0"/>
        <pt x="253" y="836" on="1"/>
      </contour>
    </TTGlyph>
    <TTGlyph name="Icircumflex" xMin="78" yMin="0" xMax="368" yMax="913">
      <contour>
        <pt x="252" y="0" on="1"/>
        <pt x="220" y="0" on="1"/>
        <pt x="220" y="668" on="1"/>
        <pt x="140" y="670" on="1"/>
        <pt x="140" y="700" on="1"/>
        <pt x="252" y="700" on="1"/>
      </contour>
      <contour>
        <pt x="344" y="748" on="1"/>
        <pt x="225" y="867" on="1"/>
        <pt x="102" y="748" on="1"/>
        <pt x="78" y="772" on="1"/>
        <pt x="226" y="913" on="1"/>
        <pt x="368" y="772" on="1"/>
      </contour>
    </TTGlyph>
    <TTGlyph name="Idieresis" xMin="78" yMin="0" xMax="190" yMax="700">
      <contour>
        <pt x="190" y="0" on="1"/>
        <pt x="158" y="0" on="1"/>
        <pt x="158" y="668" on="1"/>
        <pt x="78" y="670" on="1"/>
        <pt x="78" y="700" on="1"/>
        <pt x="190" y="700" on="1"/>
      </contour>
    </TTGlyph>
    <TTGlyph name="Idotaccent" xMin="78" yMin="0" xMax="194" yMax="797">
      <contour>
        <pt x="190" y="0" on="1"/>
        <pt x="158" y="0" on="1"/>
        <pt x="158" y="668" on="1"/>
        <pt x="78" y="670" on="1"/>
        <pt x="78" y="700" on="1"/>
        <pt x="190" y="700" on="1"/>
      </contour>
      <contour>
        <pt x="194" y="768" on="0"/>
        <pt x="182" y="756" on="0"/>
        <pt x="165" y="756" on="0"/>
        <pt x="153" y="768" on="0"/>
        <pt x="153" y="785" on="0"/>
        <pt x="165" y="797" on="0"/>
        <pt x="182" y="797" on="0"/>
        <pt x="194" y="785" on="0"/>
      </contour>
    </TTGlyph>
    <TTGlyph name="Igrave" xMin="80" yMin="0" xMax="192" yMax="871">
      <contour>
        <pt x="192" y="0" on="1"/>
        <pt x="160" y="0" on="1"/>
        <pt x="160" y="668" on="1"/>
        <pt x="80" y="670" on="1"/>
        <pt x="80" y="700" on="1"/>
        <pt x="192" y="700" on="1"/>
      </contour>
      <contour>
        <pt x="187" y="730" on="1"/>
        <pt x="159" y="730" on="1"/>
        <pt x="94" y="835" on="1"/>
        <pt x="90" y="841" on="0"/>
        <pt x="90" y="846" on="1"/>
        <pt x="90" y="864" on="0"/>
        <pt x="103" y="869" on="1"/>
        <pt x="108" y="871" on="0"/>
        <pt x="113" y="871" on="1"/>
        <pt x="126" y="871" on="0"/>
        <pt x="133" y="854" on="1"/>
      </contour>
    </TTGlyph>
    <TTGlyph name="Imacron" xMin="78" yMin="0" xMax="294" yMax="788">
      <contour>
        <pt x="234" y="0" on="1"/>
        <pt x="202" y="0" on="1"/>
        <pt x="202" y="668" on="1"/>
        <pt x="122" y="670" on="1"/>
        <pt x="122" y="700" on="1"/>
        <pt x="234" y="700" on="1"/>
      </contour>
      <contour>
        <pt x="294" y="755" on="1"/>
        <pt x="78" y="755" on="1"/>
        <pt x="78" y="788" on="1"/>
        <pt x="294" y="788" on="1"/>
      </contour>
    </TTGlyph>
    <TTGlyph name="Iogonek" xMin="78" yMin="-213" xMax="267" yMax="700">
      <contour>
        <pt x="209" y="0" on="1"/>
        <pt x="177" y="0" on="1"/>
        <pt x="177" y="668" on="1"/>
        <pt x="97" y="670" on="1"/>
        <pt x="97" y="700" on="1"/>
        <pt x="209" y="700" on="1"/>
      </contour>
      <contour>
        <pt x="244" y="-139" on="1"/>
        <pt x="267" y="-163" on="1"/>
        <pt x="235" y="-213" on="0"/>
        <pt x="171" y="-213" on="1"/>
        <pt x="154" y="-213" on="0"/>
        <pt x="117" y="-204" on="0"/>
        <pt x="78" y="-163" on="0"/>
        <pt x="78" y="-129" on="1"/>
        <pt x="78" y="-64" on="0"/>
        <pt x="174" y="0" on="1"/>
        <pt x="210" y="0" on="1"/>
        <pt x="108" y="-75" on="0"/>
        <pt x="108" y="-130" on="1"/>
        <pt x="108" y="-153" on="0"/>
        <pt x="143" y="-184" on="0"/>
        <pt x="170" y="-184" on="1"/>
        <pt x="216" y="-184" on="0"/>
      </contour>
    </TTGlyph>
    <TTGlyph name="Iota" xMin="80" yMin="0" xMax="192" yMax="700">
      <contour>
        <pt x="192" y="0" on="1"/>
        <pt x="160" y="0" on="1"/>
        <pt x="160" y="668" on="1"/>
        <pt x="80" y="670" on="1"/>
        <pt x="80" y="700" on="1"/>
        <pt x="192" y="700" on="1"/>
      </contour>
    </TTGlyph>
    <TTGlyph name="Iotadieresis" xMin="48" yMin="0" xMax="249" yMax="797">
      <contour>
        <pt x="163" y="0" on="1"/>
        <pt x="131" y="0" on="1"/>
        <pt x="131" y="668" on="1"/>
        <pt x="51" y="670" on="1"/>
        <pt x="51" y="700" on="1"/>
        <pt x="163" y="700" on="1"/>
      </contour>
      <contour>
        <pt x="90" y="766" on="0"/>
        <pt x="77" y="753" on="0"/>
        <pt x="60" y="753" on="0"/>
        <pt x="48" y="766" on="0"/>
        <pt x="48" y="783" on="0"/>
        <pt x="60" y="796" on="0"/>
        <pt x="77" y="796" on="0"/>
        <pt x="90" y="783" on="0"/>
      </contour>
      <contour>
        <pt x="249" y="767" on="0"/>
        <pt x="236" y="754" on="0"/>
        <pt x="219" y="754" on="0"/>
        <pt x="206" y="767" on="0"/>
        <pt x="206" y="784" on="0"/>
        <pt x="219" y="797" on="0"/>
        <pt x="236" y="797" on="0"/>
        <pt x="249" y="784" on="0"/>
      </contour>
    </TTGlyph>
    <TTGlyph name="Iotatonos" xMin="78" yMin="0" xMax="346" yMax="709">
      <contour>
        <pt x="346" y="0" on="1"/>
        <pt x="314" y="0" on="1"/>
        <pt x="314" y="668" on="1"/>
        <pt x="234" y="670" on="1"/>
        <pt x="234" y="700" on="1"/>
        <pt x="346" y="700" on="1"/>
      </contour>
      <contour>
        <pt x="106" y="568" on="1"/>
        <pt x="78" y="568" on="1"/>
        <pt x="132" y="692" on="1"/>
        <pt x="139" y="709" on="0"/>
        <pt x="152" y="709" on="1"/>
        <pt x="170" y="709" on="0"/>
        <pt x="174" y="693" on="1"/>
        <pt x="175" y="690" on="0"/>
        <pt x="175" y="680" on="0"/>
        <pt x="171" y="674" on="1"/>
      </contour>
    </TTGlyph>
    <TTGlyph name="Itilde" xMin="78" yMin="0" xMax="404" yMax="826">
      <contour>
        <pt x="275" y="0" on="1"/>
        <pt x="243" y="0" on="1"/>
        <pt x="243" y="668" on="1"/>
        <pt x="163" y="670" on="1"/>
        <pt x="163" y="700" on="1"/>
        <pt x="275" y="700" on="1"/>
      </contour>
      <contour>
        <pt x="177" y="826" on="1"/>
        <pt x="203" y="826" on="0"/>
        <pt x="268" y="796" on="1"/>
        <pt x="294" y="784" on="0"/>
        <pt x="358" y="784" on="0"/>
        <pt x="388" y="816" on="1"/>
        <pt x="404" y="792" on="1"/>
        <pt x="363" y="751" on="0"/>
        <pt x="320" y="751" on="1"/>
        <pt x="298" y="751" on="0"/>
        <pt x="245" y="772" on="0"/>
        <pt x="224" y="781" on="1"/>
        <pt x="196" y="794" on="0"/>
        <pt x="174" y="794" on="1"/>
        <pt x="132" y="794" on="0"/>
        <pt x="94" y="752" on="1"/>
        <pt x="78" y="776" on="1"/>
        <pt x="123" y="826" on="0"/>
      </contour>
    </TTGlyph>
    <TTGlyph name="J" xMin="1" yMin="-37" xMax="121" yMax="700">
      <contour>
        <pt x="9" y="-37" on="1"/>
        <pt x="1" y="-12" on="1"/>
        <pt x="89" y="-3" on="0"/>
        <pt x="89" y="117" on="1"/>
        <pt x="89" y="668" on="1"/>
        <pt x="11" y="670" on="1"/>
        <pt x="11" y="700" on="1"/>
        <pt x="121" y="700" on="1"/>
        <pt x="121" y="121" on="1"/>
        <pt x="121" y="46" on="0"/>
        <pt x="67" y="-31" on="0"/>
      </contour>
    </TTGlyph>
    <TTGlyph name="Jcircumflex" xMin="1" yMin="-37" xMax="227" yMax="846">
      <contour>
        <pt x="22" y="-37" on="1"/>
        <pt x="14" y="-12" on="1"/>
        <pt x="102" y="-3" on="0"/>
        <pt x="102" y="117" on="1"/>
        <pt x="102" y="668" on="1"/>
        <pt x="24" y="670" on="1"/>
        <pt x="24" y="700" on="1"/>
        <pt x="134" y="700" on="1"/>
        <pt x="134" y="121" on="1"/>
        <pt x="134" y="46" on="0"/>
        <pt x="80" y="-31" on="0"/>
      </contour>
      <contour>
        <pt x="227" y="846" on="1"/>
        <pt x="227" y="841" on="1"/>
        <pt x="227" y="794" on="0"/>
        <pt x="160" y="728" on="0"/>
        <pt x="68" y="728" on="0"/>
        <pt x="1" y="794" on="0"/>
        <pt x="1" y="841" on="1"/>
        <pt x="1" y="846" on="1"/>
        <pt x="30" y="846" on="1"/>
        <pt x="30" y="841" on="1"/>
        <pt x="30" y="810" on="0"/>
        <pt x="77" y="757" on="0"/>
        <pt x="150" y="757" on="0"/>
        <pt x="198" y="810" on="0"/>
        <pt x="198" y="841" on="1"/>
        <pt x="198" y="846" on="1"/>
      </contour>
    </TTGlyph>
    <TTGlyph name="K" xMin="79" yMin="0" xMax="476" yMax="701">
      <contour>
        <pt x="476" y="0" on="1"/>
        <pt x="439" y="0" on="1"/>
        <pt x="191" y="383" on="1"/>
        <pt x="111" y="276" on="1"/>
        <pt x="111" y="0" on="1"/>
        <pt x="79" y="0" on="1"/>
        <pt x="79" y="701" on="1"/>
        <pt x="111" y="701" on="1"/>
        <pt x="111" y="329" on="1"/>
        <pt x="387" y="701" on="1"/>
        <pt x="424" y="701" on="1"/>
        <pt x="211" y="411" on="1"/>
      </contour>
    </TTGlyph>
    <TTGlyph name="Kappa" xMin="78" yMin="0" xMax="475" yMax="701">
      <contour>
        <pt x="475" y="0" on="1"/>
        <pt x="438" y="0" on="1"/>
        <pt x="190" y="383" on="1"/>
        <pt x="110" y="276" on="1"/>
        <pt x="110" y="0" on="1"/>
        <pt x="78" y="0" on="1"/>
        <pt x="78" y="701" on="1"/>
        <pt x="110" y="701" on="1"/>
        <pt x="110" y="329" on="1"/>
        <pt x="386" y="701" on="1"/>
        <pt x="423" y="701" on="1"/>
        <pt x="210" y="411" on="1"/>
      </contour>
    </TTGlyph>
    <TTGlyph name="Kcommaaccent" xMin="79" yMin="-184" xMax="476" yMax="701">
      <contour>
        <pt x="476" y="0" on="1"/>
        <pt x="439" y="0" on="1"/>
        <pt x="191" y="383" on="1"/>
        <pt x="111" y="276" on="1"/>
        <pt x="111" y="0" on="1"/>
        <pt x="79" y="0" on="1"/>
        <pt x="79" y="701" on="1"/>
        <pt x="111" y="701" on="1"/>
        <pt x="111" y="329" on="1"/>
        <pt x="387" y="701" on="1"/>
        <pt x="424" y="701" on="1"/>
        <pt x="211" y="411" on="1"/>
      </contour>
      <contour>
        <pt x="227" y="-184" on="1"/>
        <pt x="202" y="-167" on="1"/>
        <pt x="226" y="-154" on="0"/>
        <pt x="258" y="-121" on="0"/>
        <pt x="262" y="-112" on="1"/>
        <pt x="265" y="-102" on="1"/>
        <pt x="260" y="-101" on="1"/>
        <pt x="245" y="-94" on="0"/>
        <pt x="245" y="-70" on="0"/>
        <pt x="258" y="-58" on="0"/>
        <pt x="276" y="-58" on="0"/>
        <pt x="289" y="-72" on="0"/>
        <pt x="289" y="-81" on="1"/>
        <pt x="289" y="-133" on="0"/>
      </contour>
    </TTGlyph>
    <TTGlyph name="L" xMin="78" yMin="0" xMax="439" yMax="700">
      <contour>
        <pt x="439" y="0" on="1"/>
        <pt x="78" y="0" on="1"/>
        <pt x="78" y="700" on="1"/>
        <pt x="110" y="700" on="1"/>
        <pt x="110" y="30" on="1"/>
        <pt x="439" y="30" on="1"/>
      </contour>
    </TTGlyph>
    <TTGlyph name="Lacute" xMin="78" yMin="0" xMax="439" yMax="871">
      <contour>
        <pt x="439" y="0" on="1"/>
        <pt x="78" y="0" on="1"/>
        <pt x="78" y="700" on="1"/>
        <pt x="110" y="700" on="1"/>
        <pt x="110" y="30" on="1"/>
        <pt x="439" y="30" on="1"/>
      </contour>
      <contour>
        <pt x="109" y="730" on="1"/>
        <pt x="81" y="730" on="1"/>
        <pt x="135" y="854" on="1"/>
        <pt x="142" y="871" on="0"/>
        <pt x="155" y="871" on="1"/>
        <pt x="173" y="871" on="0"/>
        <pt x="178" y="855" on="1"/>
        <pt x="178" y="852" on="0"/>
        <pt x="178" y="842" on="0"/>
        <pt x="174" y="836" on="1"/>
      </contour>
    </TTGlyph>
    <TTGlyph name="Lambda" xMin="12" yMin="0" xMax="517" yMax="700">
      <contour>
        <pt x="517" y="0" on="1"/>
        <pt x="483" y="0" on="1"/>
        <pt x="262" y="650" on="1"/>
        <pt x="45" y="0" on="1"/>
        <pt x="12" y="0" on="1"/>
        <pt x="247" y="700" on="1"/>
        <pt x="278" y="700" on="1"/>
      </contour>
    </TTGlyph>
    <TTGlyph name="Lcaron" xMin="-48" yMin="0" xMax="442" yMax="898">
      <contour>
        <pt x="442" y="0" on="1"/>
        <pt x="81" y="0" on="1"/>
        <pt x="81" y="700" on="1"/>
        <pt x="113" y="700" on="1"/>
        <pt x="113" y="30" on="1"/>
        <pt x="442" y="30" on="1"/>
      </contour>
      <contour>
        <pt x="242" y="875" on="1"/>
        <pt x="100" y="734" on="1"/>
        <pt x="-48" y="875" on="1"/>
        <pt x="-25" y="898" on="1"/>
        <pt x="99" y="780" on="1"/>
        <pt x="219" y="898" on="1"/>
      </contour>
    </TTGlyph>
    <TTGlyph name="Lcommaaccent" xMin="78" yMin="-184" xMax="439" yMax="700">
      <contour>
        <pt x="439" y="0" on="1"/>
        <pt x="78" y="0" on="1"/>
        <pt x="78" y="700" on="1"/>
        <pt x="110" y="700" on="1"/>
        <pt x="110" y="30" on="1"/>
        <pt x="439" y="30" on="1"/>
      </contour>
      <contour>
        <pt x="238" y="-184" on="1"/>
        <pt x="213" y="-167" on="1"/>
        <pt x="237" y="-154" on="0"/>
        <pt x="269" y="-121" on="0"/>
        <pt x="272" y="-112" on="1"/>
        <pt x="276" y="-102" on="1"/>
        <pt x="271" y="-101" on="1"/>
        <pt x="256" y="-94" on="0"/>
        <pt x="256" y="-70" on="0"/>
        <pt x="269" y="-58" on="0"/>
        <pt x="286" y="-58" on="0"/>
        <pt x="300" y="-72" on="0"/>
        <pt x="300" y="-81" on="1"/>
        <pt x="300" y="-133" on="0"/>
      </contour>
    </TTGlyph>
    <TTGlyph name="Lslash" xMin="78" yMin="0" xMax="562" yMax="700">
      <contour>
        <pt x="562" y="0" on="1"/>
        <pt x="201" y="0" on="1"/>
        <pt x="201" y="379" on="1"/>
        <pt x="90" y="329" on="1"/>
        <pt x="78" y="358" on="1"/>
        <pt x="201" y="413" on="1"/>
        <pt x="201" y="700" on="1"/>
        <pt x="233" y="700" on="1"/>
        <pt x="233" y="428" on="1"/>
        <pt x="369" y="489" on="1"/>
        <pt x="382" y="460" on="1"/>
        <pt x="233" y="393" on="1"/>
        <pt x="233" y="30" on="1"/>
        <pt x="562" y="30" on="1"/>
      </contour>
    </TTGlyph>
    <TTGlyph name="M" xMin="78" yMin="0" xMax="614" yMax="700">
      <contour>
        <pt x="614" y="0" on="1"/>
        <pt x="583" y="0" on="1"/>
        <pt x="583" y="608" on="1"/>
        <pt x="362" y="0" on="1"/>
        <pt x="329" y="0" on="1"/>
        <pt x="109" y="608" on="1"/>
        <pt x="109" y="0" on="1"/>
        <pt x="78" y="0" on="1"/>
        <pt x="78" y="700" on="1"/>
        <pt x="109" y="700" on="1"/>
        <pt x="346" y="50" on="1"/>
        <pt x="583" y="700" on="1"/>
        <pt x="614" y="700" on="1"/>
      </contour>
    </TTGlyph>
    <TTGlyph name="Mu" xMin="80" yMin="0" xMax="616" yMax="700">
      <contour>
        <pt x="616" y="0" on="1"/>
        <pt x="585" y="0" on="1"/>
        <pt x="585" y="608" on="1"/>
        <pt x="364" y="0" on="1"/>
        <pt x="331" y="0" on="1"/>
        <pt x="111" y="608" on="1"/>
        <pt x="111" y="0" on="1"/>
        <pt x="80" y="0" on="1"/>
        <pt x="80" y="700" on="1"/>
        <pt x="111" y="700" on="1"/>
        <pt x="348" y="50" on="1"/>
        <pt x="585" y="700" on="1"/>
        <pt x="616" y="700" on="1"/>
      </contour>
    </TTGlyph>
    <TTGlyph name="N" xMin="78" yMin="0" xMax="570" yMax="700">
      <contour>
        <pt x="570" y="0" on="1"/>
        <pt x="539" y="0" on="1"/>
        <pt x="109" y="644" on="1"/>
        <pt x="109" y="0" on="1"/>
        <pt x="78" y="0" on="1"/>
        <pt x="78" y="700" on="1"/>
        <pt x="109" y="700" on="1"/>
        <pt x="539" y="57" on="1"/>
        <pt x="539" y="700" on="1"/>
        <pt x="570" y="700" on="1"/>
      </contour>
    </TTGlyph>
    <TTGlyph name="Nacute" xMin="78" yMin="0" xMax="570" yMax="871">
      <contour>
        <pt x="570" y="0" on="1"/>
        <pt x="539" y="0" on="1"/>
        <pt x="109" y="644" on="1"/>
        <pt x="109" y="0" on="1"/>
        <pt x="78" y="0" on="1"/>
        <pt x="78" y="700" on="1"/>
        <pt x="109" y="700" on="1"/>
        <pt x="539" y="57" on="1"/>
        <pt x="539" y="700" on="1"/>
        <pt x="570" y="700" on="1"/>
      </contour>
      <contour>
        <pt x="306" y="730" on="1"/>
        <pt x="278" y="730" on="1"/>
        <pt x="332" y="854" on="1"/>
        <pt x="339" y="871" on="0"/>
        <pt x="352" y="871" on="1"/>
        <pt x="370" y="871" on="0"/>
        <pt x="374" y="855" on="1"/>
        <pt x="375" y="852" on="0"/>
        <pt x="375" y="842" on="0"/>
        <pt x="371" y="836" on="1"/>
      </contour>
    </TTGlyph>
    <TTGlyph name="Ncaron" xMin="78" yMin="0" xMax="570" yMax="898">
      <contour>
        <pt x="570" y="0" on="1"/>
        <pt x="539" y="0" on="1"/>
        <pt x="109" y="644" on="1"/>
        <pt x="109" y="0" on="1"/>
        <pt x="78" y="0" on="1"/>
        <pt x="78" y="700" on="1"/>
        <pt x="109" y="700" on="1"/>
        <pt x="539" y="57" on="1"/>
        <pt x="539" y="700" on="1"/>
        <pt x="570" y="700" on="1"/>
      </contour>
      <contour>
        <pt x="474" y="875" on="1"/>
        <pt x="332" y="734" on="1"/>
        <pt x="184" y="875" on="1"/>
        <pt x="207" y="898" on="1"/>
        <pt x="331" y="780" on="1"/>
        <pt x="451" y="898" on="1"/>
      </contour>
    </TTGlyph>
    <TTGlyph name="Ncommaaccent" xMin="78" yMin="-184" xMax="570" yMax="700">
      <contour>
        <pt x="570" y="0" on="1"/>
        <pt x="539" y="0" on="1"/>
        <pt x="109" y="644" on="1"/>
        <pt x="109" y="0" on="1"/>
        <pt x="78" y="0" on="1"/>
        <pt x="78" y="700" on="1"/>
        <pt x="109" y="700" on="1"/>
        <pt x="539" y="57" on="1"/>
        <pt x="539" y="700" on="1"/>
        <pt x="570" y="700" on="1"/>
      </contour>
      <contour>
        <pt x="311" y="-184" on="1"/>
        <pt x="286" y="-167" on="1"/>
        <pt x="310" y="-154" on="0"/>
        <pt x="342" y="-121" on="0"/>
        <pt x="346" y="-112" on="1"/>
        <pt x="349" y="-102" on="1"/>
        <pt x="344" y="-101" on="1"/>
        <pt x="329" y="-94" on="0"/>
        <pt x="329" y="-70" on="0"/>
        <pt x="342" y="-58" on="0"/>
        <pt x="360" y="-58" on="0"/>
        <pt x="373" y="-72" on="0"/>
        <pt x="373" y="-81" on="1"/>
        <pt x="373" y="-133" on="0"/>
      </contour>
    </TTGlyph>
    <TTGlyph name="Ntilde" xMin="78" yMin="0" xMax="570" yMax="825">
      <contour>
        <pt x="570" y="0" on="1"/>
        <pt x="539" y="0" on="1"/>
        <pt x="109" y="644" on="1"/>
        <pt x="109" y="0" on="1"/>
        <pt x="78" y="0" on="1"/>
        <pt x="78" y="700" on="1"/>
        <pt x="109" y="700" on="1"/>
        <pt x="539" y="57" on="1"/>
        <pt x="539" y="700" on="1"/>
        <pt x="570" y="700" on="1"/>
      </contour>
      <contour>
        <pt x="257" y="825" on="1"/>
        <pt x="283" y="825" on="0"/>
        <pt x="348" y="795" on="1"/>
        <pt x="374" y="783" on="0"/>
        <pt x="438" y="783" on="0"/>
        <pt x="468" y="815" on="1"/>
        <pt x="484" y="791" on="1"/>
        <pt x="443" y="750" on="0"/>
        <pt x="400" y="750" on="1"/>
        <pt x="378" y="750" on="0"/>
        <pt x="325" y="771" on="0"/>
        <pt x="304" y="780" on="1"/>
        <pt x="276" y="793" on="0"/>
        <pt x="254" y="793" on="1"/>
        <pt x="212" y="793" on="0"/>
        <pt x="174" y="751" on="1"/>
        <pt x="158" y="775" on="1"/>
        <pt x="203" y="825" on="0"/>
      </contour>
    </TTGlyph>
    <TTGlyph name="Nu" xMin="80" yMin="0" xMax="572" yMax="700">
      <contour>
        <pt x="572" y="0" on="1"/>
        <pt x="541" y="0" on="1"/>
        <pt x="111" y="644" on="1"/>
        <pt x="111" y="0" on="1"/>
        <pt x="80" y="0" on="1"/>
        <pt x="80" y="700" on="1"/>
        <pt x="111" y="700" on="1"/>
        <pt x="541" y="57" on="1"/>
        <pt x="541" y="700" on="1"/>
        <pt x="572" y="700" on="1"/>
      </contour>
    </TTGlyph>
    <TTGlyph name="O" xMin="63" yMin="-11" xMax="483" yMax="716">
      <contour>
        <pt x="483" y="506" on="1"/>
        <pt x="483" y="185" on="1"/>
        <pt x="483" y="84" on="0"/>
        <pt x="360" y="-11" on="0"/>
        <pt x="188" y="-11" on="0"/>
        <pt x="63" y="84" on="0"/>
        <pt x="63" y="185" on="1"/>
        <pt x="63" y="507" on="1"/>
        <pt x="63" y="610" on="0"/>
        <pt x="176" y="716" on="0"/>
        <pt x="374" y="716" on="0"/>
        <pt x="483" y="604" on="0"/>
      </contour>
      <contour>
        <pt x="451" y="185" on="1"/>
        <pt x="451" y="512" on="1"/>
        <pt x="451" y="593" on="0"/>
        <pt x="359" y="684" on="0"/>
        <pt x="187" y="684" on="0"/>
        <pt x="95" y="593" on="0"/>
        <pt x="95" y="511" on="1"/>
        <pt x="95" y="185" on="1"/>
        <pt x="95" y="103" on="0"/>
        <pt x="198" y="20" on="0"/>
        <pt x="350" y="20" on="0"/>
        <pt x="451" y="99" on="0"/>
      </contour>
    </TTGlyph>
    <TTGlyph name="OE" xMin="78" yMin="-11" xMax="801" yMax="716">
      <contour>
        <pt x="799" y="0" on="1"/>
        <pt x="467" y="0" on="1"/>
        <pt x="467" y="70" on="1"/>
        <pt x="412" y="-11" on="0"/>
        <pt x="289" y="-11" on="1"/>
        <pt x="203" y="-11" on="0"/>
        <pt x="78" y="84" on="0"/>
        <pt x="78" y="185" on="1"/>
        <pt x="78" y="507" on="1"/>
        <pt x="78" y="610" on="0"/>
        <pt x="191" y="716" on="0"/>
        <pt x="290" y="716" on="1"/>
        <pt x="413" y="716" on="0"/>
        <pt x="467" y="630" on="1"/>
        <pt x="467" y="700" on="1"/>
        <pt x="801" y="700" on="1"/>
        <pt x="801" y="669" on="1"/>
        <pt x="499" y="669" on="1"/>
        <pt x="499" y="413" on="1"/>
        <pt x="714" y="413" on="1"/>
        <pt x="703" y="381" on="1"/>
        <pt x="499" y="381" on="1"/>
        <pt x="499" y="30" on="1"/>
        <pt x="799" y="30" on="1"/>
      </contour>
      <contour>
        <pt x="466" y="185" on="1"/>
        <pt x="466" y="512" on="1"/>
        <pt x="466" y="593" on="0"/>
        <pt x="374" y="684" on="0"/>
        <pt x="202" y="684" on="0"/>
        <pt x="110" y="593" on="0"/>
        <pt x="110" y="511" on="1"/>
        <pt x="110" y="185" on="1"/>
        <pt x="110" y="103" on="0"/>
        <pt x="213" y="20" on="0"/>
        <pt x="365" y="20" on="0"/>
        <pt x="466" y="99" on="0"/>
      </contour>
    </TTGlyph>
    <TTGlyph name="Oacute" xMin="63" yMin="-11" xMax="483" yMax="871">
      <contour>
        <pt x="483" y="506" on="1"/>
        <pt x="483" y="185" on="1"/>
        <pt x="483" y="84" on="0"/>
        <pt x="360" y="-11" on="0"/>
        <pt x="188" y="-11" on="0"/>
        <pt x="63" y="84" on="0"/>
        <pt x="63" y="185" on="1"/>
        <pt x="63" y="507" on="1"/>
        <pt x="63" y="610" on="0"/>
        <pt x="176" y="716" on="0"/>
        <pt x="374" y="716" on="0"/>
        <pt x="483" y="604" on="0"/>
      </contour>
      <contour>
        <pt x="451" y="185" on="1"/>
        <pt x="451" y="512" on="1"/>
        <pt x="451" y="593" on="0"/>
        <pt x="359" y="684" on="0"/>
        <pt x="187" y="684" on="0"/>
        <pt x="95" y="593" on="0"/>
        <pt x="95" y="511" on="1"/>
        <pt x="95" y="185" on="1"/>
        <pt x="95" y="103" on="0"/>
        <pt x="198" y="20" on="0"/>
        <pt x="350" y="20" on="0"/>
        <pt x="451" y="99" on="0"/>
      </contour>
      <contour>
        <pt x="285" y="730" on="1"/>
        <pt x="257" y="730" on="1"/>
        <pt x="311" y="854" on="1"/>
        <pt x="318" y="871" on="0"/>
        <pt x="331" y="871" on="1"/>
        <pt x="349" y="871" on="0"/>
        <pt x="354" y="855" on="1"/>
        <pt x="354" y="852" on="0"/>
        <pt x="354" y="842" on="0"/>
        <pt x="350" y="836" on="1"/>
      </contour>
    </TTGlyph>
    <TTGlyph name="Ocircumflex" xMin="63" yMin="-11" xMax="483" yMax="913">
      <contour>
        <pt x="483" y="506" on="1"/>
        <pt x="483" y="185" on="1"/>
        <pt x="483" y="84" on="0"/>
        <pt x="360" y="-11" on="0"/>
        <pt x="188" y="-11" on="0"/>
        <pt x="63" y="84" on="0"/>
        <pt x="63" y="185" on="1"/>
        <pt x="63" y="507" on="1"/>
        <pt x="63" y="610" on="0"/>
        <pt x="176" y="716" on="0"/>
        <pt x="374" y="716" on="0"/>
        <pt x="483" y="604" on="0"/>
      </contour>
      <contour>
        <pt x="451" y="185" on="1"/>
        <pt x="451" y="512" on="1"/>
        <pt x="451" y="593" on="0"/>
        <pt x="359" y="684" on="0"/>
        <pt x="187" y="684" on="0"/>
        <pt x="95" y="593" on="0"/>
        <pt x="95" y="511" on="1"/>
        <pt x="95" y="185" on="1"/>
        <pt x="95" y="103" on="0"/>
        <pt x="198" y="20" on="0"/>
        <pt x="350" y="20" on="0"/>
        <pt x="451" y="99" on="0"/>
      </contour>
      <contour>
        <pt x="392" y="748" on="1"/>
        <pt x="273" y="867" on="1"/>
        <pt x="150" y="748" on="1"/>
        <pt x="126" y="772" on="1"/>
        <pt x="274" y="913" on="1"/>
        <pt x="416" y="772" on="1"/>
      </contour>
    </TTGlyph>
    <TTGlyph name="Odieresis" xMin="63" yMin="-11" xMax="483" yMax="716">
      <contour>
        <pt x="483" y="506" on="1"/>
        <pt x="483" y="185" on="1"/>
        <pt x="483" y="84" on="0"/>
        <pt x="360" y="-11" on="0"/>
        <pt x="188" y="-11" on="0"/>
        <pt x="63" y="84" on="0"/>
        <pt x="63" y="185" on="1"/>
        <pt x="63" y="507" on="1"/>
        <pt x="63" y="610" on="0"/>
        <pt x="176" y="716" on="0"/>
        <pt x="374" y="716" on="0"/>
        <pt x="483" y="604" on="0"/>
      </contour>
      <contour>
        <pt x="451" y="185" on="1"/>
        <pt x="451" y="512" on="1"/>
        <pt x="451" y="593" on="0"/>
        <pt x="359" y="684" on="0"/>
        <pt x="187" y="684" on="0"/>
        <pt x="95" y="593" on="0"/>
        <pt x="95" y="511" on="1"/>
        <pt x="95" y="185" on="1"/>
        <pt x="95" y="103" on="0"/>
        <pt x="198" y="20" on="0"/>
        <pt x="350" y="20" on="0"/>
        <pt x="451" y="99" on="0"/>
      </contour>
    </TTGlyph>
    <TTGlyph name="Ograve" xMin="63" yMin="-11" xMax="483" yMax="871">
      <contour>
        <pt x="483" y="506" on="1"/>
        <pt x="483" y="185" on="1"/>
        <pt x="483" y="84" on="0"/>
        <pt x="360" y="-11" on="0"/>
        <pt x="188" y="-11" on="0"/>
        <pt x="63" y="84" on="0"/>
        <pt x="63" y="185" on="1"/>
        <pt x="63" y="507" on="1"/>
        <pt x="63" y="610" on="0"/>
        <pt x="176" y="716" on="0"/>
        <pt x="374" y="716" on="0"/>
        <pt x="483" y="604" on="0"/>
      </contour>
      <contour>
        <pt x="451" y="185" on="1"/>
        <pt x="451" y="512" on="1"/>
        <pt x="451" y="593" on="0"/>
        <pt x="359" y="684" on="0"/>
        <pt x="187" y="684" on="0"/>
        <pt x="95" y="593" on="0"/>
        <pt x="95" y="511" on="1"/>
        <pt x="95" y="185" on="1"/>
        <pt x="95" y="103" on="0"/>
        <pt x="198" y="20" on="0"/>
        <pt x="350" y="20" on="0"/>
        <pt x="451" y="99" on="0"/>
      </contour>
      <contour>
        <pt x="292" y="730" on="1"/>
        <pt x="264" y="730" on="1"/>
        <pt x="199" y="835" on="1"/>
        <pt x="195" y="841" on="0"/>
        <pt x="195" y="846" on="1"/>
        <pt x="195" y="864" on="0"/>
        <pt x="208" y="869" on="1"/>
        <pt x="213" y="871" on="0"/>
        <pt x="218" y="871" on="1"/>
        <pt x="231" y="871" on="0"/>
        <pt x="238" y="854" on="1"/>
      </contour>
    </TTGlyph>
    <TTGlyph name="Ohungarumlaut" xMin="63" yMin="-11" xMax="483" yMax="872">
      <contour>
        <pt x="483" y="506" on="1"/>
        <pt x="483" y="185" on="1"/>
        <pt x="483" y="84" on="0"/>
        <pt x="360" y="-11" on="0"/>
        <pt x="188" y="-11" on="0"/>
        <pt x="63" y="84" on="0"/>
        <pt x="63" y="185" on="1"/>
        <pt x="63" y="507" on="1"/>
        <pt x="63" y="610" on="0"/>
        <pt x="176" y="716" on="0"/>
        <pt x="374" y="716" on="0"/>
        <pt x="483" y="604" on="0"/>
      </contour>
      <contour>
        <pt x="451" y="185" on="1"/>
        <pt x="451" y="512" on="1"/>
        <pt x="451" y="593" on="0"/>
        <pt x="359" y="684" on="0"/>
        <pt x="187" y="684" on="0"/>
        <pt x="95" y="593" on="0"/>
        <pt x="95" y="511" on="1"/>
        <pt x="95" y="185" on="1"/>
        <pt x="95" y="103" on="0"/>
        <pt x="198" y="20" on="0"/>
        <pt x="350" y="20" on="0"/>
        <pt x="451" y="99" on="0"/>
      </contour>
      <contour>
        <pt x="329" y="731" on="1"/>
        <pt x="301" y="731" on="1"/>
        <pt x="355" y="855" on="1"/>
        <pt x="362" y="872" on="0"/>
        <pt x="375" y="872" on="1"/>
        <pt x="393" y="872" on="0"/>
        <pt x="398" y="856" on="1"/>
        <pt x="398" y="853" on="0"/>
        <pt x="398" y="843" on="0"/>
        <pt x="394" y="837" on="1"/>
      </contour>
      <contour>
        <pt x="217" y="731" on="1"/>
        <pt x="189" y="731" on="1"/>
        <pt x="243" y="855" on="1"/>
        <pt x="250" y="872" on="0"/>
        <pt x="263" y="872" on="1"/>
        <pt x="281" y="872" on="0"/>
        <pt x="286" y="856" on="1"/>
        <pt x="286" y="853" on="0"/>
        <pt x="286" y="843" on="0"/>
        <pt x="282" y="837" on="1"/>
      </contour>
    </TTGlyph>
    <TTGlyph name="Omacron" xMin="63" yMin="-11" xMax="483" yMax="788">
      <contour>
        <pt x="483" y="506" on="1"/>
        <pt x="483" y="185" on="1"/>
        <pt x="483" y="84" on="0"/>
        <pt x="360" y="-11" on="0"/>
        <pt x="188" y="-11" on="0"/>
        <pt x="63" y="84" on="0"/>
        <pt x="63" y="185" on="1"/>
        <pt x="63" y="507" on="1"/>
        <pt x="63" y="610" on="0"/>
        <pt x="176" y="716" on="0"/>
        <pt x="374" y="716" on="0"/>
        <pt x="483" y="604" on="0"/>
      </contour>
      <contour>
        <pt x="451" y="185" on="1"/>
        <pt x="451" y="512" on="1"/>
        <pt x="451" y="593" on="0"/>
        <pt x="359" y="684" on="0"/>
        <pt x="187" y="684" on="0"/>
        <pt x="95" y="593" on="0"/>
        <pt x="95" y="511" on="1"/>
        <pt x="95" y="185" on="1"/>
        <pt x="95" y="103" on="0"/>
        <pt x="198" y="20" on="0"/>
        <pt x="350" y="20" on="0"/>
        <pt x="451" y="99" on="0"/>
      </contour>
      <contour>
        <pt x="377" y="755" on="1"/>
        <pt x="160" y="755" on="1"/>
        <pt x="160" y="788" on="1"/>
        <pt x="377" y="788" on="1"/>
      </contour>
    </TTGlyph>
    <TTGlyph name="Omega" xMin="78" yMin="0" xMax="592" yMax="707">
      <contour>
        <pt x="592" y="0" on="1"/>
        <pt x="364" y="0" on="1"/>
        <pt x="364" y="31" on="1"/>
        <pt x="429" y="35" on="0"/>
        <pt x="483" y="69" on="1"/>
        <pt x="512" y="87" on="0"/>
        <pt x="549" y="153" on="0"/>
        <pt x="549" y="196" on="1"/>
        <pt x="549" y="506" on="1"/>
        <pt x="549" y="591" on="0"/>
        <pt x="462" y="677" on="0"/>
        <pt x="391" y="677" on="1"/>
        <pt x="279" y="677" on="1"/>
        <pt x="207" y="677" on="0"/>
        <pt x="122" y="590" on="0"/>
        <pt x="122" y="506" on="1"/>
        <pt x="122" y="196" on="1"/>
        <pt x="122" y="139" on="0"/>
        <pt x="154" y="100" on="1"/>
        <pt x="209" y="36" on="0"/>
        <pt x="306" y="31" on="1"/>
        <pt x="306" y="0" on="1"/>
        <pt x="78" y="0" on="1"/>
        <pt x="88" y="31" on="1"/>
        <pt x="196" y="31" on="1"/>
        <pt x="140" y="59" on="0"/>
        <pt x="91" y="138" on="0"/>
        <pt x="91" y="196" on="1"/>
        <pt x="91" y="503" on="1"/>
        <pt x="91" y="595" on="0"/>
        <pt x="185" y="707" on="0"/>
        <pt x="279" y="707" on="1"/>
        <pt x="391" y="707" on="1"/>
        <pt x="485" y="707" on="0"/>
        <pt x="579" y="595" on="0"/>
        <pt x="579" y="503" on="1"/>
        <pt x="579" y="196" on="1"/>
        <pt x="579" y="136" on="0"/>
        <pt x="528" y="61" on="0"/>
        <pt x="473" y="31" on="1"/>
        <pt x="580" y="31" on="1"/>
      </contour>
    </TTGlyph>
    <TTGlyph name="Omegatonos" xMin="78" yMin="0" xMax="686" yMax="709">
      <contour>
        <pt x="686" y="0" on="1"/>
        <pt x="458" y="0" on="1"/>
        <pt x="458" y="31" on="1"/>
        <pt x="523" y="35" on="0"/>
        <pt x="577" y="69" on="1"/>
        <pt x="606" y="87" on="0"/>
        <pt x="643" y="153" on="0"/>
        <pt x="643" y="196" on="1"/>
        <pt x="643" y="506" on="1"/>
        <pt x="643" y="591" on="0"/>
        <pt x="556" y="677" on="0"/>
        <pt x="485" y="677" on="1"/>
        <pt x="373" y="677" on="1"/>
        <pt x="301" y="677" on="0"/>
        <pt x="216" y="590" on="0"/>
        <pt x="216" y="506" on="1"/>
        <pt x="216" y="196" on="1"/>
        <pt x="216" y="139" on="0"/>
        <pt x="248" y="100" on="1"/>
        <pt x="303" y="36" on="0"/>
        <pt x="400" y="31" on="1"/>
        <pt x="400" y="0" on="1"/>
        <pt x="172" y="0" on="1"/>
        <pt x="182" y="31" on="1"/>
        <pt x="290" y="31" on="1"/>
        <pt x="234" y="59" on="0"/>
        <pt x="185" y="138" on="0"/>
        <pt x="185" y="196" on="1"/>
        <pt x="185" y="503" on="1"/>
        <pt x="185" y="595" on="0"/>
        <pt x="279" y="707" on="0"/>
        <pt x="373" y="707" on="1"/>
        <pt x="485" y="707" on="1"/>
        <pt x="579" y="707" on="0"/>
        <pt x="673" y="595" on="0"/>
        <pt x="673" y="503" on="1"/>
        <pt x="673" y="196" on="1"/>
        <pt x="673" y="136" on="0"/>
        <pt x="622" y="61" on="0"/>
        <pt x="567" y="31" on="1"/>
        <pt x="674" y="31" on="1"/>
      </contour>
      <contour>
        <pt x="106" y="568" on="1"/>
        <pt x="78" y="568" on="1"/>
        <pt x="132" y="692" on="1"/>
        <pt x="139" y="709" on="0"/>
        <pt x="152" y="709" on="1"/>
        <pt x="170" y="709" on="0"/>
        <pt x="174" y="693" on="1"/>
        <pt x="175" y="690" on="0"/>
        <pt x="175" y="680" on="0"/>
        <pt x="171" y="674" on="1"/>
      </contour>
    </TTGlyph>
    <TTGlyph name="Omicron" xMin="62" yMin="-11" xMax="482" yMax="716">
      <contour>
        <pt x="482" y="506" on="1"/>
        <pt x="482" y="185" on="1"/>
        <pt x="482" y="84" on="0"/>
        <pt x="359" y="-11" on="0"/>
        <pt x="187" y="-11" on="0"/>
        <pt x="62" y="84" on="0"/>
        <pt x="62" y="185" on="1"/>
        <pt x="62" y="507" on="1"/>
        <pt x="62" y="610" on="0"/>
        <pt x="175" y="716" on="0"/>
        <pt x="373" y="716" on="0"/>
        <pt x="482" y="604" on="0"/>
      </contour>
      <contour>
        <pt x="450" y="185" on="1"/>
        <pt x="450" y="512" on="1"/>
        <pt x="450" y="593" on="0"/>
        <pt x="358" y="684" on="0"/>
        <pt x="186" y="684" on="0"/>
        <pt x="94" y="593" on="0"/>
        <pt x="94" y="511" on="1"/>
        <pt x="94" y="185" on="1"/>
        <pt x="94" y="103" on="0"/>
        <pt x="197" y="20" on="0"/>
        <pt x="349" y="20" on="0"/>
        <pt x="450" y="99" on="0"/>
      </contour>
    </TTGlyph>
    <TTGlyph name="Omicrontonos" xMin="78" yMin="-11" xMax="615" yMax="716">
      <contour>
        <pt x="615" y="506" on="1"/>
        <pt x="615" y="185" on="1"/>
        <pt x="615" y="84" on="0"/>
        <pt x="492" y="-11" on="0"/>
        <pt x="320" y="-11" on="0"/>
        <pt x="195" y="84" on="0"/>
        <pt x="195" y="185" on="1"/>
        <pt x="195" y="507" on="1"/>
        <pt x="195" y="610" on="0"/>
        <pt x="308" y="716" on="0"/>
        <pt x="506" y="716" on="0"/>
        <pt x="615" y="604" on="0"/>
      </contour>
      <contour>
        <pt x="583" y="185" on="1"/>
        <pt x="583" y="512" on="1"/>
        <pt x="583" y="593" on="0"/>
        <pt x="491" y="684" on="0"/>
        <pt x="319" y="684" on="0"/>
        <pt x="227" y="593" on="0"/>
        <pt x="227" y="511" on="1"/>
        <pt x="227" y="185" on="1"/>
        <pt x="227" y="103" on="0"/>
        <pt x="330" y="20" on="0"/>
        <pt x="482" y="20" on="0"/>
        <pt x="583" y="99" on="0"/>
      </contour>
      <contour>
        <pt x="106" y="568" on="1"/>
        <pt x="78" y="568" on="1"/>
        <pt x="132" y="692" on="1"/>
        <pt x="139" y="709" on="0"/>
        <pt x="152" y="709" on="1"/>
        <pt x="170" y="709" on="0"/>
        <pt x="174" y="693" on="1"/>
        <pt x="175" y="690" on="0"/>
        <pt x="175" y="680" on="0"/>
        <pt x="171" y="674" on="1"/>
      </contour>
    </TTGlyph>
    <TTGlyph name="Oslash" xMin="78" yMin="-114" xMax="498" yMax="817">
      <contour>
        <pt x="134" y="-114" on="1"/>
        <pt x="100" y="-114" on="1"/>
        <pt x="150" y="29" on="1"/>
        <pt x="78" y="82" on="0"/>
        <pt x="78" y="185" on="1"/>
        <pt x="78" y="507" on="1"/>
        <pt x="78" y="610" on="0"/>
        <pt x="191" y="716" on="0"/>
        <pt x="290" y="716" on="1"/>
        <pt x="340" y="716" on="0"/>
        <pt x="383" y="700" on="1"/>
        <pt x="424" y="817" on="1"/>
        <pt x="457" y="817" on="1"/>
        <pt x="411" y="685" on="1"/>
        <pt x="498" y="633" on="0"/>
        <pt x="498" y="506" on="1"/>
        <pt x="498" y="185" on="1"/>
        <pt x="498" y="84" on="0"/>
        <pt x="375" y="-11" on="0"/>
        <pt x="289" y="-11" on="1"/>
        <pt x="227" y="-11" on="0"/>
        <pt x="178" y="12" on="1"/>
      </contour>
      <contour>
        <pt x="466" y="185" on="1"/>
        <pt x="466" y="512" on="1"/>
        <pt x="466" y="609" on="0"/>
        <pt x="400" y="654" on="1"/>
        <pt x="188" y="43" on="1"/>
        <pt x="231" y="20" on="0"/>
        <pt x="365" y="20" on="0"/>
        <pt x="466" y="99" on="0"/>
      </contour>
      <contour>
        <pt x="161" y="62" on="1"/>
        <pt x="372" y="669" on="1"/>
        <pt x="332" y="684" on="0"/>
        <pt x="288" y="684" on="1"/>
        <pt x="202" y="684" on="0"/>
        <pt x="110" y="593" on="0"/>
        <pt x="110" y="511" on="1"/>
        <pt x="110" y="185" on="1"/>
        <pt x="110" y="105" on="0"/>
      </contour>
    </TTGlyph>
    <TTGlyph name="Otilde" xMin="63" yMin="-11" xMax="483" yMax="825">
      <contour>
        <pt x="483" y="506" on="1"/>
        <pt x="483" y="185" on="1"/>
        <pt x="483" y="84" on="0"/>
        <pt x="360" y="-11" on="0"/>
        <pt x="188" y="-11" on="0"/>
        <pt x="63" y="84" on="0"/>
        <pt x="63" y="185" on="1"/>
        <pt x="63" y="507" on="1"/>
        <pt x="63" y="610" on="0"/>
        <pt x="176" y="716" on="0"/>
        <pt x="374" y="716" on="0"/>
        <pt x="483" y="604" on="0"/>
      </contour>
      <contour>
        <pt x="451" y="185" on="1"/>
        <pt x="451" y="512" on="1"/>
        <pt x="451" y="593" on="0"/>
        <pt x="359" y="684" on="0"/>
        <pt x="187" y="684" on="0"/>
        <pt x="95" y="593" on="0"/>
        <pt x="95" y="511" on="1"/>
        <pt x="95" y="185" on="1"/>
        <pt x="95" y="103" on="0"/>
        <pt x="198" y="20" on="0"/>
        <pt x="350" y="20" on="0"/>
        <pt x="451" y="99" on="0"/>
      </contour>
      <contour>
        <pt x="210" y="825" on="1"/>
        <pt x="236" y="825" on="0"/>
        <pt x="301" y="795" on="1"/>
        <pt x="327" y="783" on="0"/>
        <pt x="391" y="783" on="0"/>
        <pt x="421" y="815" on="1"/>
        <pt x="437" y="791" on="1"/>
        <pt x="396" y="750" on="0"/>
        <pt x="353" y="750" on="1"/>
        <pt x="331" y="750" on="0"/>
        <pt x="278" y="771" on="0"/>
        <pt x="258" y="780" on="1"/>
        <pt x="229" y="793" on="0"/>
        <pt x="207" y="793" on="1"/>
        <pt x="165" y="793" on="0"/>
        <pt x="127" y="751" on="1"/>
        <pt x="111" y="775" on="1"/>
        <pt x="156" y="825" on="0"/>
      </contour>
    </TTGlyph>
    <TTGlyph name="P" xMin="78" yMin="0" xMax="512" yMax="700">
      <contour>
        <pt x="110" y="300" on="1"/>
        <pt x="317" y="300" on="1"/>
        <pt x="480" y="300" on="0"/>
        <pt x="480" y="486" on="1"/>
        <pt x="480" y="572" on="0"/>
        <pt x="403" y="668" on="0"/>
        <pt x="326" y="668" on="1"/>
        <pt x="110" y="668" on="1"/>
      </contour>
      <contour>
        <pt x="110" y="0" on="1"/>
        <pt x="78" y="0" on="1"/>
        <pt x="78" y="700" on="1"/>
        <pt x="324" y="700" on="1"/>
        <pt x="419" y="700" on="0"/>
        <pt x="512" y="584" on="0"/>
        <pt x="512" y="486" on="1"/>
        <pt x="512" y="372" on="0"/>
        <pt x="462" y="319" on="1"/>
        <pt x="443" y="298" on="0"/>
        <pt x="368" y="268" on="0"/>
        <pt x="318" y="268" on="1"/>
        <pt x="110" y="268" on="1"/>
      </contour>
    </TTGlyph>
    <TTGlyph name="Phi" xMin="78" yMin="-32" xMax="605" yMax="711">
      <contour>
        <pt x="356" y="-32" on="1"/>
        <pt x="323" y="-25" on="1"/>
        <pt x="323" y="30" on="1"/>
        <pt x="266" y="30" on="1"/>
        <pt x="171" y="30" on="0"/>
        <pt x="78" y="134" on="0"/>
        <pt x="78" y="225" on="1"/>
        <pt x="78" y="517" on="1"/>
        <pt x="78" y="669" on="0"/>
        <pt x="194" y="706" on="1"/>
        <pt x="210" y="680" on="1"/>
        <pt x="110" y="649" on="0"/>
        <pt x="110" y="517" on="1"/>
        <pt x="110" y="215" on="1"/>
        <pt x="110" y="138" on="0"/>
        <pt x="193" y="60" on="0"/>
        <pt x="266" y="60" on="1"/>
        <pt x="323" y="60" on="1"/>
        <pt x="323" y="605" on="1"/>
        <pt x="324" y="655" on="0"/>
        <pt x="377" y="711" on="0"/>
        <pt x="424" y="711" on="1"/>
        <pt x="506" y="711" on="0"/>
        <pt x="605" y="601" on="0"/>
        <pt x="605" y="511" on="1"/>
        <pt x="605" y="225" on="1"/>
        <pt x="605" y="134" on="0"/>
        <pt x="512" y="30" on="0"/>
        <pt x="417" y="30" on="1"/>
        <pt x="356" y="30" on="1"/>
      </contour>
      <contour>
        <pt x="432" y="681" on="1"/>
        <pt x="356" y="681" on="0"/>
        <pt x="356" y="596" on="1"/>
        <pt x="356" y="60" on="1"/>
        <pt x="421" y="60" on="1"/>
        <pt x="493" y="60" on="0"/>
        <pt x="573" y="142" on="0"/>
        <pt x="573" y="215" on="1"/>
        <pt x="573" y="521" on="1"/>
        <pt x="573" y="563" on="0"/>
        <pt x="558" y="596" on="1"/>
        <pt x="534" y="652" on="0"/>
        <pt x="474" y="674" on="1"/>
        <pt x="453" y="681" on="0"/>
      </contour>
    </TTGlyph>
    <TTGlyph name="Pi" xMin="80" yMin="0" xMax="510" yMax="700">
      <contour>
        <pt x="510" y="0" on="1"/>
        <pt x="478" y="0" on="1"/>
        <pt x="478" y="668" on="1"/>
        <pt x="112" y="668" on="1"/>
        <pt x="112" y="0" on="1"/>
        <pt x="80" y="0" on="1"/>
        <pt x="80" y="700" on="1"/>
        <pt x="510" y="700" on="1"/>
      </contour>
    </TTGlyph>
    <TTGlyph name="Psi" xMin="44" yMin="0" xMax="571" yMax="709">
      <contour>
        <pt x="321" y="0" on="1"/>
        <pt x="288" y="0" on="1"/>
        <pt x="288" y="212" on="1"/>
        <pt x="232" y="212" on="1"/>
        <pt x="137" y="212" on="0"/>
        <pt x="44" y="315" on="0"/>
        <pt x="44" y="406" on="1"/>
        <pt x="44" y="700" on="1"/>
        <pt x="76" y="700" on="1"/>
        <pt x="76" y="402" on="1"/>
        <pt x="76" y="320" on="0"/>
        <pt x="161" y="242" on="0"/>
        <pt x="232" y="242" on="1"/>
        <pt x="288" y="242" on="1"/>
        <pt x="288" y="700" on="1"/>
        <pt x="321" y="700" on="1"/>
        <pt x="321" y="242" on="1"/>
        <pt x="383" y="242" on="1"/>
        <pt x="459" y="242" on="0"/>
        <pt x="539" y="325" on="0"/>
        <pt x="539" y="402" on="1"/>
        <pt x="539" y="564" on="1"/>
        <pt x="539" y="610" on="0"/>
        <pt x="529" y="643" on="0"/>
        <pt x="525" y="658" on="0"/>
        <pt x="511" y="676" on="0"/>
        <pt x="508" y="681" on="0"/>
        <pt x="489" y="698" on="0"/>
        <pt x="488" y="699" on="1"/>
        <pt x="515" y="709" on="1"/>
        <pt x="542" y="692" on="0"/>
        <pt x="568" y="633" on="0"/>
        <pt x="571" y="591" on="0"/>
        <pt x="571" y="549" on="1"/>
        <pt x="571" y="406" on="1"/>
        <pt x="571" y="315" on="0"/>
        <pt x="478" y="212" on="0"/>
        <pt x="383" y="212" on="1"/>
        <pt x="321" y="212" on="1"/>
      </contour>
    </TTGlyph>
    <TTGlyph name="Q" xMin="63" yMin="-94" xMax="483" yMax="716">
      <contour>
        <pt x="428" y="-63" on="1"/>
        <pt x="428" y="-94" on="1"/>
        <pt x="305" y="-94" on="0"/>
        <pt x="273" y="-11" on="1"/>
        <pt x="185" y="-10" on="0"/>
        <pt x="63" y="86" on="0"/>
        <pt x="63" y="185" on="1"/>
        <pt x="63" y="507" on="1"/>
        <pt x="63" y="610" on="0"/>
        <pt x="176" y="716" on="0"/>
        <pt x="374" y="716" on="0"/>
        <pt x="483" y="604" on="0"/>
        <pt x="483" y="506" on="1"/>
        <pt x="483" y="185" on="1"/>
        <pt x="483" y="97" on="0"/>
        <pt x="387" y="1" on="0"/>
        <pt x="308" y="-10" on="1"/>
        <pt x="327" y="-62" on="0"/>
      </contour>
      <contour>
        <pt x="451" y="186" on="1"/>
        <pt x="451" y="516" on="1"/>
        <pt x="451" y="600" on="0"/>
        <pt x="351" y="684" on="0"/>
        <pt x="197" y="684" on="0"/>
        <pt x="96" y="603" on="0"/>
        <pt x="96" y="516" on="1"/>
        <pt x="96" y="185" on="1"/>
        <pt x="96" y="103" on="0"/>
        <pt x="197" y="22" on="0"/>
        <pt x="265" y="20" on="1"/>
        <pt x="261" y="44" on="0"/>
        <pt x="261" y="88" on="1"/>
        <pt x="261" y="174" on="1"/>
        <pt x="293" y="174" on="1"/>
        <pt x="294" y="88" on="1"/>
        <pt x="294" y="44" on="0"/>
        <pt x="298" y="21" on="1"/>
        <pt x="370" y="26" on="0"/>
        <pt x="451" y="115" on="0"/>
      </contour>
    </TTGlyph>
    <TTGlyph name="R" xMin="78" yMin="0" xMax="513" yMax="700">
      <contour>
        <pt x="513" y="0" on="1"/>
        <pt x="479" y="0" on="1"/>
        <pt x="362" y="271" on="1"/>
        <pt x="347" y="268" on="0"/>
        <pt x="332" y="268" on="1"/>
        <pt x="111" y="268" on="1"/>
        <pt x="111" y="0" on="1"/>
        <pt x="78" y="0" on="1"/>
        <pt x="78" y="700" on="1"/>
        <pt x="319" y="700" on="1"/>
        <pt x="417" y="700" on="0"/>
        <pt x="512" y="584" on="0"/>
        <pt x="512" y="486" on="1"/>
        <pt x="512" y="321" on="0"/>
        <pt x="393" y="279" on="1"/>
      </contour>
      <contour>
        <pt x="111" y="300" on="1"/>
        <pt x="322" y="300" on="1"/>
        <pt x="368" y="300" on="0"/>
        <pt x="434" y="335" on="0"/>
        <pt x="450" y="364" on="1"/>
        <pt x="479" y="418" on="0"/>
        <pt x="479" y="574" on="0"/>
        <pt x="397" y="668" on="0"/>
        <pt x="320" y="668" on="1"/>
        <pt x="111" y="668" on="1"/>
      </contour>
    </TTGlyph>
    <TTGlyph name="Racute" xMin="78" yMin="0" xMax="513" yMax="871">
      <contour>
        <pt x="513" y="0" on="1"/>
        <pt x="479" y="0" on="1"/>
        <pt x="362" y="271" on="1"/>
        <pt x="347" y="268" on="0"/>
        <pt x="332" y="268" on="1"/>
        <pt x="111" y="268" on="1"/>
        <pt x="111" y="0" on="1"/>
        <pt x="78" y="0" on="1"/>
        <pt x="78" y="700" on="1"/>
        <pt x="319" y="700" on="1"/>
        <pt x="417" y="700" on="0"/>
        <pt x="512" y="584" on="0"/>
        <pt x="512" y="486" on="1"/>
        <pt x="512" y="321" on="0"/>
        <pt x="393" y="279" on="1"/>
      </contour>
      <contour>
        <pt x="111" y="300" on="1"/>
        <pt x="322" y="300" on="1"/>
        <pt x="368" y="300" on="0"/>
        <pt x="434" y="335" on="0"/>
        <pt x="450" y="364" on="1"/>
        <pt x="479" y="418" on="0"/>
        <pt x="479" y="574" on="0"/>
        <pt x="397" y="668" on="0"/>
        <pt x="320" y="668" on="1"/>
        <pt x="111" y="668" on="1"/>
      </contour>
      <contour>
        <pt x="255" y="730" on="1"/>
        <pt x="227" y="730" on="1"/>
        <pt x="281" y="854" on="1"/>
        <pt x="288" y="871" on="0"/>
        <pt x="301" y="871" on="1"/>
        <pt x="319" y="871" on="0"/>
        <pt x="324" y="855" on="1"/>
        <pt x="324" y="852" on="0"/>
        <pt x="324" y="842" on="0"/>
        <pt x="320" y="836" on="1"/>
      </contour>
    </TTGlyph>
    <TTGlyph name="Rcaron" xMin="78" yMin="0" xMax="513" yMax="898">
      <contour>
        <pt x="513" y="0" on="1"/>
        <pt x="479" y="0" on="1"/>
        <pt x="362" y="271" on="1"/>
        <pt x="347" y="268" on="0"/>
        <pt x="332" y="268" on="1"/>
        <pt x="111" y="268" on="1"/>
        <pt x="111" y="0" on="1"/>
        <pt x="78" y="0" on="1"/>
        <pt x="78" y="700" on="1"/>
        <pt x="319" y="700" on="1"/>
        <pt x="417" y="700" on="0"/>
        <pt x="512" y="584" on="0"/>
        <pt x="512" y="486" on="1"/>
        <pt x="512" y="321" on="0"/>
        <pt x="393" y="279" on="1"/>
      </contour>
      <contour>
        <pt x="111" y="300" on="1"/>
        <pt x="322" y="300" on="1"/>
        <pt x="368" y="300" on="0"/>
        <pt x="434" y="335" on="0"/>
        <pt x="450" y="364" on="1"/>
        <pt x="479" y="418" on="0"/>
        <pt x="479" y="574" on="0"/>
        <pt x="397" y="668" on="0"/>
        <pt x="320" y="668" on="1"/>
        <pt x="111" y="668" on="1"/>
      </contour>
      <contour>
        <pt x="427" y="875" on="1"/>
        <pt x="285" y="734" on="1"/>
        <pt x="137" y="875" on="1"/>
        <pt x="160" y="898" on="1"/>
        <pt x="284" y="780" on="1"/>
        <pt x="404" y="898" on="1"/>
      </contour>
    </TTGlyph>
    <TTGlyph name="Rcommaaccent" xMin="78" yMin="-184" xMax="513" yMax="700">
      <contour>
        <pt x="513" y="0" on="1"/>
        <pt x="479" y="0" on="1"/>
        <pt x="362" y="271" on="1"/>
        <pt x="347" y="268" on="0"/>
        <pt x="332" y="268" on="1"/>
        <pt x="111" y="268" on="1"/>
        <pt x="111" y="0" on="1"/>
        <pt x="78" y="0" on="1"/>
        <pt x="78" y="700" on="1"/>
        <pt x="319" y="700" on="1"/>
        <pt x="417" y="700" on="0"/>
        <pt x="512" y="584" on="0"/>
        <pt x="512" y="486" on="1"/>
        <pt x="512" y="321" on="0"/>
        <pt x="393" y="279" on="1"/>
      </contour>
      <contour>
        <pt x="111" y="300" on="1"/>
        <pt x="322" y="300" on="1"/>
        <pt x="368" y="300" on="0"/>
        <pt x="434" y="335" on="0"/>
        <pt x="450" y="364" on="1"/>
        <pt x="479" y="418" on="0"/>
        <pt x="479" y="574" on="0"/>
        <pt x="397" y="668" on="0"/>
        <pt x="320" y="668" on="1"/>
        <pt x="111" y="668" on="1"/>
      </contour>
      <contour>
        <pt x="248" y="-184" on="1"/>
        <pt x="223" y="-167" on="1"/>
        <pt x="247" y="-154" on="0"/>
        <pt x="278" y="-121" on="0"/>
        <pt x="282" y="-112" on="1"/>
        <pt x="286" y="-102" on="1"/>
        <pt x="281" y="-101" on="1"/>
        <pt x="266" y="-94" on="0"/>
        <pt x="266" y="-70" on="0"/>
        <pt x="279" y="-58" on="0"/>
        <pt x="296" y="-58" on="0"/>
        <pt x="310" y="-72" on="0"/>
        <pt x="310" y="-81" on="1"/>
        <pt x="310" y="-133" on="0"/>
      </contour>
    </TTGlyph>
    <TTGlyph name="Rho" xMin="78" yMin="0" xMax="512" yMax="700">
      <contour>
        <pt x="110" y="300" on="1"/>
        <pt x="317" y="300" on="1"/>
        <pt x="480" y="300" on="0"/>
        <pt x="480" y="486" on="1"/>
        <pt x="480" y="572" on="0"/>
        <pt x="403" y="668" on="0"/>
        <pt x="326" y="668" on="1"/>
        <pt x="110" y="668" on="1"/>
      </contour>
      <contour>
        <pt x="110" y="0" on="1"/>
        <pt x="78" y="0" on="1"/>
        <pt x="78" y="700" on="1"/>
        <pt x="324" y="700" on="1"/>
        <pt x="419" y="700" on="0"/>
        <pt x="512" y="584" on="0"/>
        <pt x="512" y="486" on="1"/>
        <pt x="512" y="372" on="0"/>
        <pt x="462" y="319" on="1"/>
        <pt x="443" y="298" on="0"/>
        <pt x="368" y="268" on="0"/>
        <pt x="318" y="268" on="1"/>
        <pt x="110" y="268" on="1"/>
      </contour>
    </TTGlyph>
    <TTGlyph name="S" xMin="37" yMin="-11" xMax="512" yMax="710">
      <contour>
        <pt x="37" y="178" on="1"/>
        <pt x="71" y="178" on="1"/>
        <pt x="73" y="119" on="0"/>
        <pt x="179" y="20" on="0"/>
        <pt x="362" y="20" on="0"/>
        <pt x="477" y="100" on="0"/>
        <pt x="477" y="187" on="1"/>
        <pt x="477" y="235" on="0"/>
        <pt x="414" y="304" on="0"/>
        <pt x="321" y="339" on="0"/>
        <pt x="211" y="379" on="0"/>
        <pt x="118" y="415" on="0"/>
        <pt x="55" y="488" on="0"/>
        <pt x="55" y="538" on="1"/>
        <pt x="55" y="608" on="0"/>
        <pt x="171" y="710" on="0"/>
        <pt x="280" y="710" on="1"/>
        <pt x="363" y="710" on="0"/>
        <pt x="426" y="680" on="1"/>
        <pt x="415" y="648" on="1"/>
        <pt x="355" y="679" on="0"/>
        <pt x="198" y="679" on="0"/>
        <pt x="89" y="604" on="0"/>
        <pt x="89" y="535" on="1"/>
        <pt x="89" y="486" on="0"/>
        <pt x="176" y="421" on="0"/>
        <pt x="300" y="382" on="0"/>
        <pt x="425" y="337" on="0"/>
        <pt x="512" y="252" on="0"/>
        <pt x="512" y="189" on="1"/>
        <pt x="512" y="97" on="0"/>
        <pt x="395" y="-11" on="0"/>
        <pt x="164" y="-11" on="0"/>
        <pt x="39" y="104" on="0"/>
      </contour>
    </TTGlyph>
    <TTGlyph name="Sacute" xMin="37" yMin="-11" xMax="512" yMax="876">
      <contour>
        <pt x="37" y="178" on="1"/>
        <pt x="71" y="178" on="1"/>
        <pt x="73" y="119" on="0"/>
        <pt x="179" y="20" on="0"/>
        <pt x="362" y="20" on="0"/>
        <pt x="477" y="100" on="0"/>
        <pt x="477" y="187" on="1"/>
        <pt x="477" y="235" on="0"/>
        <pt x="414" y="304" on="0"/>
        <pt x="321" y="339" on="0"/>
        <pt x="211" y="379" on="0"/>
        <pt x="118" y="415" on="0"/>
        <pt x="55" y="488" on="0"/>
        <pt x="55" y="538" on="1"/>
        <pt x="55" y="608" on="0"/>
        <pt x="171" y="710" on="0"/>
        <pt x="280" y="710" on="1"/>
        <pt x="363" y="710" on="0"/>
        <pt x="426" y="680" on="1"/>
        <pt x="415" y="648" on="1"/>
        <pt x="355" y="679" on="0"/>
        <pt x="198" y="679" on="0"/>
        <pt x="89" y="604" on="0"/>
        <pt x="89" y="535" on="1"/>
        <pt x="89" y="486" on="0"/>
        <pt x="176" y="421" on="0"/>
        <pt x="300" y="382" on="0"/>
        <pt x="425" y="337" on="0"/>
        <pt x="512" y="252" on="0"/>
        <pt x="512" y="189" on="1"/>
        <pt x="512" y="97" on="0"/>
        <pt x="395" y="-11" on="0"/>
        <pt x="164" y="-11" on="0"/>
        <pt x="39" y="104" on="0"/>
      </contour>
      <contour>
        <pt x="268" y="735" on="1"/>
        <pt x="240" y="735" on="1"/>
        <pt x="294" y="859" on="1"/>
        <pt x="301" y="876" on="0"/>
        <pt x="314" y="876" on="1"/>
        <pt x="332" y="876" on="0"/>
        <pt x="336" y="860" on="1"/>
        <pt x="337" y="857" on="0"/>
        <pt x="337" y="847" on="0"/>
        <pt x="333" y="841" on="1"/>
      </contour>
    </TTGlyph>
    <TTGlyph name="Scaron" xMin="37" yMin="-11" xMax="512" yMax="948">
      <contour>
        <pt x="37" y="178" on="1"/>
        <pt x="71" y="178" on="1"/>
        <pt x="73" y="119" on="0"/>
        <pt x="179" y="20" on="0"/>
        <pt x="362" y="20" on="0"/>
        <pt x="477" y="100" on="0"/>
        <pt x="477" y="187" on="1"/>
        <pt x="477" y="235" on="0"/>
        <pt x="414" y="304" on="0"/>
        <pt x="321" y="339" on="0"/>
        <pt x="211" y="379" on="0"/>
        <pt x="118" y="415" on="0"/>
        <pt x="55" y="488" on="0"/>
        <pt x="55" y="538" on="1"/>
        <pt x="55" y="608" on="0"/>
        <pt x="171" y="710" on="0"/>
        <pt x="280" y="710" on="1"/>
        <pt x="363" y="710" on="0"/>
        <pt x="426" y="680" on="1"/>
        <pt x="415" y="648" on="1"/>
        <pt x="355" y="679" on="0"/>
        <pt x="198" y="679" on="0"/>
        <pt x="89" y="604" on="0"/>
        <pt x="89" y="535" on="1"/>
        <pt x="89" y="486" on="0"/>
        <pt x="176" y="421" on="0"/>
        <pt x="300" y="382" on="0"/>
        <pt x="425" y="337" on="0"/>
        <pt x="512" y="252" on="0"/>
        <pt x="512" y="189" on="1"/>
        <pt x="512" y="97" on="0"/>
        <pt x="395" y="-11" on="0"/>
        <pt x="164" y="-11" on="0"/>
        <pt x="39" y="104" on="0"/>
      </contour>
      <contour>
        <pt x="444" y="925" on="1"/>
        <pt x="302" y="784" on="1"/>
        <pt x="154" y="925" on="1"/>
        <pt x="177" y="948" on="1"/>
        <pt x="301" y="830" on="1"/>
        <pt x="421" y="948" on="1"/>
      </contour>
    </TTGlyph>
    <TTGlyph name="Scircumflex" xMin="37" yMin="-11" xMax="512" yMax="913">
      <contour>
        <pt x="37" y="178" on="1"/>
        <pt x="71" y="178" on="1"/>
        <pt x="73" y="119" on="0"/>
        <pt x="179" y="20" on="0"/>
        <pt x="362" y="20" on="0"/>
        <pt x="477" y="100" on="0"/>
        <pt x="477" y="187" on="1"/>
        <pt x="477" y="235" on="0"/>
        <pt x="414" y="304" on="0"/>
        <pt x="321" y="339" on="0"/>
        <pt x="211" y="379" on="0"/>
        <pt x="118" y="415" on="0"/>
        <pt x="55" y="488" on="0"/>
        <pt x="55" y="538" on="1"/>
        <pt x="55" y="608" on="0"/>
        <pt x="171" y="710" on="0"/>
        <pt x="280" y="710" on="1"/>
        <pt x="363" y="710" on="0"/>
        <pt x="426" y="680" on="1"/>
        <pt x="415" y="648" on="1"/>
        <pt x="355" y="679" on="0"/>
        <pt x="198" y="679" on="0"/>
        <pt x="89" y="604" on="0"/>
        <pt x="89" y="535" on="1"/>
        <pt x="89" y="486" on="0"/>
        <pt x="176" y="421" on="0"/>
        <pt x="300" y="382" on="0"/>
        <pt x="425" y="337" on="0"/>
        <pt x="512" y="252" on="0"/>
        <pt x="512" y="189" on="1"/>
        <pt x="512" y="97" on="0"/>
        <pt x="395" y="-11" on="0"/>
        <pt x="164" y="-11" on="0"/>
        <pt x="39" y="104" on="0"/>
      </contour>
      <contour>
        <pt x="408" y="748" on="1"/>
        <pt x="289" y="867" on="1"/>
        <pt x="166" y="748" on="1"/>
        <pt x="142" y="772" on="1"/>
        <pt x="290" y="913" on="1"/>
        <pt x="432" y="772" on="1"/>
      </contour>
    </TTGlyph>
    <TTGlyph name="Scommaaccent" xMin="37" yMin="-184" xMax="512" yMax="710">
      <contour>
        <pt x="37" y="178" on="1"/>
        <pt x="71" y="178" on="1"/>
        <pt x="73" y="119" on="0"/>
        <pt x="179" y="20" on="0"/>
        <pt x="362" y="20" on="0"/>
        <pt x="477" y="100" on="0"/>
        <pt x="477" y="187" on="1"/>
        <pt x="477" y="235" on="0"/>
        <pt x="414" y="304" on="0"/>
        <pt x="321" y="339" on="0"/>
        <pt x="211" y="379" on="0"/>
        <pt x="118" y="415" on="0"/>
        <pt x="55" y="488" on="0"/>
        <pt x="55" y="538" on="1"/>
        <pt x="55" y="608" on="0"/>
        <pt x="171" y="710" on="0"/>
        <pt x="280" y="710" on="1"/>
        <pt x="363" y="710" on="0"/>
        <pt x="426" y="680" on="1"/>
        <pt x="415" y="648" on="1"/>
        <pt x="355" y="679" on="0"/>
        <pt x="198" y="679" on="0"/>
        <pt x="89" y="604" on="0"/>
        <pt x="89" y="535" on="1"/>
        <pt x="89" y="486" on="0"/>
        <pt x="176" y="421" on="0"/>
        <pt x="300" y="382" on="0"/>
        <pt x="425" y="337" on="0"/>
        <pt x="512" y="252" on="0"/>
        <pt x="512" y="189" on="1"/>
        <pt x="512" y="97" on="0"/>
        <pt x="395" y="-11" on="0"/>
        <pt x="164" y="-11" on="0"/>
        <pt x="39" y="104" on="0"/>
      </contour>
      <contour>
        <pt x="242" y="-184" on="1"/>
        <pt x="217" y="-167" on="1"/>
        <pt x="241" y="-154" on="0"/>
        <pt x="272" y="-121" on="0"/>
        <pt x="276" y="-112" on="1"/>
        <pt x="280" y="-102" on="1"/>
        <pt x="275" y="-101" on="1"/>
        <pt x="260" y="-94" on="0"/>
        <pt x="260" y="-70" on="0"/>
        <pt x="273" y="-58" on="0"/>
        <pt x="290" y="-58" on="0"/>
        <pt x="304" y="-72" on="0"/>
        <pt x="304" y="-81" on="1"/>
        <pt x="304" y="-133" on="0"/>
      </contour>
    </TTGlyph>
    <TTGlyph name="Sigma" xMin="78" yMin="0" xMax="546" yMax="700">
      <contour>
        <pt x="518" y="116" on="1"/>
        <pt x="546" y="106" on="1"/>
        <pt x="530" y="50" on="0"/>
        <pt x="460" y="0" on="0"/>
        <pt x="401" y="0" on="1"/>
        <pt x="78" y="0" on="1"/>
        <pt x="304" y="384" on="1"/>
        <pt x="94" y="700" on="1"/>
        <pt x="522" y="700" on="1"/>
        <pt x="510" y="668" on="1"/>
        <pt x="154" y="668" on="1"/>
        <pt x="342" y="385" on="1"/>
        <pt x="133" y="31" on="1"/>
        <pt x="389" y="31" on="1"/>
        <pt x="441" y="31" on="0"/>
        <pt x="503" y="68" on="0"/>
      </contour>
    </TTGlyph>
    <TTGlyph name="T" xMin="0" yMin="0" xMax="402" yMax="700">
      <contour>
        <pt x="214" y="0" on="1"/>
        <pt x="183" y="0" on="1"/>
        <pt x="182" y="669" on="1"/>
        <pt x="0" y="669" on="1"/>
        <pt x="0" y="700" on="1"/>
        <pt x="402" y="700" on="1"/>
        <pt x="402" y="669" on="1"/>
        <pt x="214" y="669" on="1"/>
      </contour>
    </TTGlyph>
    <TTGlyph name="Tau" xMin="78" yMin="0" xMax="480" yMax="700">
      <contour>
        <pt x="292" y="0" on="1"/>
        <pt x="261" y="0" on="1"/>
        <pt x="260" y="669" on="1"/>
        <pt x="78" y="669" on="1"/>
        <pt x="78" y="700" on="1"/>
        <pt x="480" y="700" on="1"/>
        <pt x="480" y="669" on="1"/>
        <pt x="292" y="669" on="1"/>
      </contour>
    </TTGlyph>
    <TTGlyph name="Tbar" xMin="0" yMin="0" xMax="402" yMax="788">
      <contour>
        <pt x="214" y="0" on="1"/>
        <pt x="183" y="0" on="1"/>
        <pt x="182" y="669" on="1"/>
        <pt x="0" y="669" on="1"/>
        <pt x="0" y="700" on="1"/>
        <pt x="402" y="700" on="1"/>
        <pt x="402" y="669" on="1"/>
        <pt x="214" y="669" on="1"/>
      </contour>
      <contour>
        <pt x="307" y="755" on="1"/>
        <pt x="90" y="755" on="1"/>
        <pt x="90" y="788" on="1"/>
        <pt x="307" y="788" on="1"/>
      </contour>
    </TTGlyph>
    <TTGlyph name="Tcaron" xMin="0" yMin="0" xMax="402" yMax="898">
      <contour>
        <pt x="214" y="0" on="1"/>
        <pt x="183" y="0" on="1"/>
        <pt x="182" y="669" on="1"/>
        <pt x="0" y="669" on="1"/>
        <pt x="0" y="700" on="1"/>
        <pt x="402" y="700" on="1"/>
        <pt x="402" y="669" on="1"/>
        <pt x="214" y="669" on="1"/>
      </contour>
      <contour>
        <pt x="344" y="875" on="1"/>
        <pt x="202" y="734" on="1"/>
        <pt x="54" y="875" on="1"/>
        <pt x="77" y="898" on="1"/>
        <pt x="201" y="780" on="1"/>
        <pt x="321" y="898" on="1"/>
      </contour>
    </TTGlyph>
    <TTGlyph name="Tcommaaccent" xMin="0" yMin="-184" xMax="402" yMax="700">
      <contour>
        <pt x="214" y="0" on="1"/>
        <pt x="183" y="0" on="1"/>
        <pt x="182" y="669" on="1"/>
        <pt x="0" y="669" on="1"/>
        <pt x="0" y="700" on="1"/>
        <pt x="402" y="700" on="1"/>
        <pt x="402" y="669" on="1"/>
        <pt x="214" y="669" on="1"/>
      </contour>
      <contour>
        <pt x="168" y="-184" on="1"/>
        <pt x="143" y="-167" on="1"/>
        <pt x="167" y="-154" on="0"/>
        <pt x="198" y="-121" on="0"/>
        <pt x="202" y="-112" on="1"/>
        <pt x="206" y="-102" on="1"/>
        <pt x="201" y="-101" on="1"/>
        <pt x="186" y="-94" on="0"/>
        <pt x="186" y="-70" on="0"/>
        <pt x="199" y="-58" on="0"/>
        <pt x="216" y="-58" on="0"/>
        <pt x="230" y="-72" on="0"/>
        <pt x="230" y="-81" on="1"/>
        <pt x="230" y="-133" on="0"/>
      </contour>
    </TTGlyph>
    <TTGlyph name="Theta" xMin="78" yMin="-11" xMax="498" yMax="716">
      <contour>
        <pt x="498" y="506" on="1"/>
        <pt x="498" y="185" on="1"/>
        <pt x="498" y="84" on="0"/>
        <pt x="375" y="-11" on="0"/>
        <pt x="203" y="-11" on="0"/>
        <pt x="78" y="84" on="0"/>
        <pt x="78" y="185" on="1"/>
        <pt x="78" y="507" on="1"/>
        <pt x="78" y="610" on="0"/>
        <pt x="191" y="716" on="0"/>
        <pt x="389" y="716" on="0"/>
        <pt x="498" y="604" on="0"/>
      </contour>
      <contour>
        <pt x="466" y="360" on="1"/>
        <pt x="466" y="512" on="1"/>
        <pt x="466" y="593" on="0"/>
        <pt x="374" y="684" on="0"/>
        <pt x="202" y="684" on="0"/>
        <pt x="110" y="593" on="0"/>
        <pt x="110" y="511" on="1"/>
        <pt x="110" y="360" on="1"/>
      </contour>
      <contour>
        <pt x="466" y="185" on="1"/>
        <pt x="466" y="328" on="1"/>
        <pt x="110" y="328" on="1"/>
        <pt x="110" y="185" on="1"/>
        <pt x="110" y="103" on="0"/>
        <pt x="213" y="20" on="0"/>
        <pt x="365" y="20" on="0"/>
        <pt x="466" y="99" on="0"/>
      </contour>
    </TTGlyph>
    <TTGlyph name="Thorn" xMin="78" yMin="0" xMax="456" yMax="700">
      <contour>
        <pt x="110" y="0" on="1"/>
        <pt x="78" y="0" on="1"/>
        <pt x="78" y="700" on="1"/>
        <pt x="110" y="700" on="1"/>
        <pt x="110" y="426" on="1"/>
        <pt x="166" y="510" on="0"/>
        <pt x="358" y="510" on="0"/>
        <pt x="456" y="399" on="0"/>
        <pt x="456" y="222" on="0"/>
        <pt x="348" y="116" on="0"/>
        <pt x="268" y="116" on="1"/>
        <pt x="222" y="116" on="0"/>
        <pt x="134" y="163" on="0"/>
        <pt x="110" y="217" on="1"/>
      </contour>
      <contour>
        <pt x="208" y="481" on="0"/>
        <pt x="112" y="400" on="0"/>
        <pt x="111" y="241" on="0"/>
        <pt x="200" y="147" on="0"/>
        <pt x="334" y="147" on="0"/>
        <pt x="424" y="233" on="0"/>
        <pt x="424" y="398" on="0"/>
        <pt x="330" y="481" on="0"/>
      </contour>
    </TTGlyph>
    <TTGlyph name="U" xMin="74" yMin="-7" xMax="495" yMax="701">
      <contour>
        <pt x="463" y="182" on="1"/>
        <pt x="463" y="701" on="1"/>
        <pt x="495" y="701" on="1"/>
        <pt x="495" y="186" on="1"/>
        <pt x="495" y="133" on="0"/>
        <pt x="458" y="55" on="0"/>
        <pt x="395" y="13" on="0"/>
        <pt x="325" y="-7" on="0"/>
        <pt x="245" y="-7" on="0"/>
        <pt x="174" y="13" on="0"/>
        <pt x="111" y="55" on="0"/>
        <pt x="74" y="133" on="0"/>
        <pt x="74" y="186" on="1"/>
        <pt x="74" y="701" on="1"/>
        <pt x="106" y="701" on="1"/>
        <pt x="106" y="182" on="1"/>
        <pt x="106" y="101" on="0"/>
        <pt x="213" y="23" on="0"/>
        <pt x="357" y="23" on="0"/>
        <pt x="463" y="102" on="0"/>
      </contour>
    </TTGlyph>
    <TTGlyph name="Uacute" xMin="74" yMin="-7" xMax="495" yMax="872">
      <contour>
        <pt x="463" y="182" on="1"/>
        <pt x="463" y="701" on="1"/>
        <pt x="495" y="701" on="1"/>
        <pt x="495" y="186" on="1"/>
        <pt x="495" y="133" on="0"/>
        <pt x="458" y="55" on="0"/>
        <pt x="395" y="13" on="0"/>
        <pt x="325" y="-7" on="0"/>
        <pt x="245" y="-7" on="0"/>
        <pt x="174" y="13" on="0"/>
        <pt x="111" y="55" on="0"/>
        <pt x="74" y="133" on="0"/>
        <pt x="74" y="186" on="1"/>
        <pt x="74" y="701" on="1"/>
        <pt x="106" y="701" on="1"/>
        <pt x="106" y="182" on="1"/>
        <pt x="106" y="101" on="0"/>
        <pt x="213" y="23" on="0"/>
        <pt x="357" y="23" on="0"/>
        <pt x="463" y="102" on="0"/>
      </contour>
      <contour>
        <pt x="290" y="731" on="1"/>
        <pt x="262" y="731" on="1"/>
        <pt x="316" y="855" on="1"/>
        <pt x="323" y="872" on="0"/>
        <pt x="336" y="872" on="1"/>
        <pt x="354" y="872" on="0"/>
        <pt x="358" y="856" on="1"/>
        <pt x="359" y="853" on="0"/>
        <pt x="359" y="843" on="0"/>
        <pt x="355" y="837" on="1"/>
      </contour>
    </TTGlyph>
    <TTGlyph name="Ubreve" xMin="74" yMin="-7" xMax="495" yMax="842">
      <contour>
        <pt x="463" y="182" on="1"/>
        <pt x="463" y="701" on="1"/>
        <pt x="495" y="701" on="1"/>
        <pt x="495" y="186" on="1"/>
        <pt x="495" y="133" on="0"/>
        <pt x="458" y="55" on="0"/>
        <pt x="395" y="13" on="0"/>
        <pt x="325" y="-7" on="0"/>
        <pt x="245" y="-7" on="0"/>
        <pt x="174" y="13" on="0"/>
        <pt x="111" y="55" on="0"/>
        <pt x="74" y="133" on="0"/>
        <pt x="74" y="186" on="1"/>
        <pt x="74" y="701" on="1"/>
        <pt x="106" y="701" on="1"/>
        <pt x="106" y="182" on="1"/>
        <pt x="106" y="101" on="0"/>
        <pt x="213" y="23" on="0"/>
        <pt x="357" y="23" on="0"/>
        <pt x="463" y="102" on="0"/>
      </contour>
      <contour>
        <pt x="397" y="842" on="1"/>
        <pt x="397" y="837" on="1"/>
        <pt x="397" y="790" on="0"/>
        <pt x="330" y="724" on="0"/>
        <pt x="238" y="724" on="0"/>
        <pt x="171" y="790" on="0"/>
        <pt x="171" y="837" on="1"/>
        <pt x="171" y="842" on="1"/>
        <pt x="200" y="842" on="1"/>
        <pt x="200" y="837" on="1"/>
        <pt x="200" y="806" on="0"/>
        <pt x="247" y="753" on="0"/>
        <pt x="320" y="753" on="0"/>
        <pt x="368" y="806" on="0"/>
        <pt x="368" y="837" on="1"/>
        <pt x="368" y="842" on="1"/>
      </contour>
    </TTGlyph>
    <TTGlyph name="Ucircumflex" xMin="74" yMin="-7" xMax="495" yMax="913">
      <contour>
        <pt x="463" y="182" on="1"/>
        <pt x="463" y="701" on="1"/>
        <pt x="495" y="701" on="1"/>
        <pt x="495" y="186" on="1"/>
        <pt x="495" y="133" on="0"/>
        <pt x="458" y="55" on="0"/>
        <pt x="395" y="13" on="0"/>
        <pt x="325" y="-7" on="0"/>
        <pt x="245" y="-7" on="0"/>
        <pt x="174" y="13" on="0"/>
        <pt x="111" y="55" on="0"/>
        <pt x="74" y="133" on="0"/>
        <pt x="74" y="186" on="1"/>
        <pt x="74" y="701" on="1"/>
        <pt x="106" y="701" on="1"/>
        <pt x="106" y="182" on="1"/>
        <pt x="106" y="101" on="0"/>
        <pt x="213" y="23" on="0"/>
        <pt x="357" y="23" on="0"/>
        <pt x="463" y="102" on="0"/>
      </contour>
      <contour>
        <pt x="409" y="748" on="1"/>
        <pt x="290" y="867" on="1"/>
        <pt x="167" y="748" on="1"/>
        <pt x="143" y="772" on="1"/>
        <pt x="291" y="913" on="1"/>
        <pt x="433" y="772" on="1"/>
      </contour>
    </TTGlyph>
    <TTGlyph name="Udieresis" xMin="74" yMin="-7" xMax="495" yMax="701">
      <contour>
        <pt x="463" y="182" on="1"/>
        <pt x="463" y="701" on="1"/>
        <pt x="495" y="701" on="1"/>
        <pt x="495" y="186" on="1"/>
        <pt x="495" y="133" on="0"/>
        <pt x="458" y="55" on="0"/>
        <pt x="395" y="13" on="0"/>
        <pt x="325" y="-7" on="0"/>
        <pt x="245" y="-7" on="0"/>
        <pt x="174" y="13" on="0"/>
        <pt x="111" y="55" on="0"/>
        <pt x="74" y="133" on="0"/>
        <pt x="74" y="186" on="1"/>
        <pt x="74" y="701" on="1"/>
        <pt x="106" y="701" on="1"/>
        <pt x="106" y="182" on="1"/>
        <pt x="106" y="101" on="0"/>
        <pt x="213" y="23" on="0"/>
        <pt x="357" y="23" on="0"/>
        <pt x="463" y="102" on="0"/>
      </contour>
    </TTGlyph>
    <TTGlyph name="Ugrave" xMin="74" yMin="-7" xMax="495" yMax="871">
      <contour>
        <pt x="463" y="182" on="1"/>
        <pt x="463" y="701" on="1"/>
        <pt x="495" y="701" on="1"/>
        <pt x="495" y="186" on="1"/>
        <pt x="495" y="133" on="0"/>
        <pt x="458" y="55" on="0"/>
        <pt x="395" y="13" on="0"/>
        <pt x="325" y="-7" on="0"/>
        <pt x="245" y="-7" on="0"/>
        <pt x="174" y="13" on="0"/>
        <pt x="111" y="55" on="0"/>
        <pt x="74" y="133" on="0"/>
        <pt x="74" y="186" on="1"/>
        <pt x="74" y="701" on="1"/>
        <pt x="106" y="701" on="1"/>
        <pt x="106" y="182" on="1"/>
        <pt x="106" y="101" on="0"/>
        <pt x="213" y="23" on="0"/>
        <pt x="357" y="23" on="0"/>
        <pt x="463" y="102" on="0"/>
      </contour>
      <contour>
        <pt x="301" y="730" on="1"/>
        <pt x="273" y="730" on="1"/>
        <pt x="208" y="835" on="1"/>
        <pt x="204" y="841" on="0"/>
        <pt x="204" y="846" on="1"/>
        <pt x="204" y="864" on="0"/>
        <pt x="217" y="869" on="1"/>
        <pt x="222" y="871" on="0"/>
        <pt x="227" y="871" on="1"/>
        <pt x="240" y="871" on="0"/>
        <pt x="247" y="854" on="1"/>
      </contour>
    </TTGlyph>
    <TTGlyph name="Uhungarumlaut" xMin="74" yMin="-7" xMax="495" yMax="872">
      <contour>
        <pt x="463" y="182" on="1"/>
        <pt x="463" y="701" on="1"/>
        <pt x="495" y="701" on="1"/>
        <pt x="495" y="186" on="1"/>
        <pt x="495" y="133" on="0"/>
        <pt x="458" y="55" on="0"/>
        <pt x="395" y="13" on="0"/>
        <pt x="325" y="-7" on="0"/>
        <pt x="245" y="-7" on="0"/>
        <pt x="174" y="13" on="0"/>
        <pt x="111" y="55" on="0"/>
        <pt x="74" y="133" on="0"/>
        <pt x="74" y="186" on="1"/>
        <pt x="74" y="701" on="1"/>
        <pt x="106" y="701" on="1"/>
        <pt x="106" y="182" on="1"/>
        <pt x="106" y="101" on="0"/>
        <pt x="213" y="23" on="0"/>
        <pt x="357" y="23" on="0"/>
        <pt x="463" y="102" on="0"/>
      </contour>
      <contour>
        <pt x="341" y="731" on="1"/>
        <pt x="313" y="731" on="1"/>
        <pt x="367" y="855" on="1"/>
        <pt x="374" y="872" on="0"/>
        <pt x="387" y="872" on="1"/>
        <pt x="405" y="872" on="0"/>
        <pt x="410" y="856" on="1"/>
        <pt x="410" y="853" on="0"/>
        <pt x="410" y="843" on="0"/>
        <pt x="406" y="837" on="1"/>
      </contour>
      <contour>
        <pt x="229" y="731" on="1"/>
        <pt x="201" y="731" on="1"/>
        <pt x="255" y="855" on="1"/>
        <pt x="262" y="872" on="0"/>
        <pt x="275" y="872" on="1"/>
        <pt x="293" y="872" on="0"/>
        <pt x="298" y="856" on="1"/>
        <pt x="298" y="853" on="0"/>
        <pt x="298" y="843" on="0"/>
        <pt x="294" y="837" on="1"/>
      </contour>
    </TTGlyph>
    <TTGlyph name="Umacron" xMin="74" yMin="-7" xMax="495" yMax="788">
      <contour>
        <pt x="463" y="182" on="1"/>
        <pt x="463" y="701" on="1"/>
        <pt x="495" y="701" on="1"/>
        <pt x="495" y="186" on="1"/>
        <pt x="495" y="133" on="0"/>
        <pt x="458" y="55" on="0"/>
        <pt x="395" y="13" on="0"/>
        <pt x="325" y="-7" on="0"/>
        <pt x="245" y="-7" on="0"/>
        <pt x="174" y="13" on="0"/>
        <pt x="111" y="55" on="0"/>
        <pt x="74" y="133" on="0"/>
        <pt x="74" y="186" on="1"/>
        <pt x="74" y="701" on="1"/>
        <pt x="106" y="701" on="1"/>
        <pt x="106" y="182" on="1"/>
        <pt x="106" y="101" on="0"/>
        <pt x="213" y="23" on="0"/>
        <pt x="357" y="23" on="0"/>
        <pt x="463" y="102" on="0"/>
      </contour>
      <contour>
        <pt x="391" y="755" on="1"/>
        <pt x="174" y="755" on="1"/>
        <pt x="174" y="788" on="1"/>
        <pt x="391" y="788" on="1"/>
      </contour>
    </TTGlyph>
    <TTGlyph name="Uogonek" xMin="74" yMin="-213" xMax="495" yMax="701">
      <contour>
        <pt x="351" y="-139" on="1"/>
        <pt x="374" y="-163" on="1"/>
        <pt x="342" y="-213" on="0"/>
        <pt x="278" y="-213" on="1"/>
        <pt x="261" y="-213" on="0"/>
        <pt x="224" y="-204" on="0"/>
        <pt x="185" y="-163" on="0"/>
        <pt x="185" y="-129" on="1"/>
        <pt x="185" y="-67" on="0"/>
        <pt x="271" y="-6" on="1"/>
        <pt x="219" y="-4" on="0"/>
        <pt x="135" y="31" on="0"/>
        <pt x="74" y="119" on="0"/>
        <pt x="74" y="186" on="1"/>
        <pt x="74" y="701" on="1"/>
        <pt x="106" y="701" on="1"/>
        <pt x="106" y="182" on="1"/>
        <pt x="106" y="101" on="0"/>
        <pt x="213" y="23" on="0"/>
        <pt x="357" y="23" on="0"/>
        <pt x="463" y="102" on="0"/>
        <pt x="463" y="182" on="1"/>
        <pt x="463" y="701" on="1"/>
        <pt x="495" y="701" on="1"/>
        <pt x="495" y="186" on="1"/>
        <pt x="495" y="93" on="0"/>
        <pt x="388" y="0" on="0"/>
        <pt x="309" y="-6" on="1"/>
        <pt x="215" y="-76" on="0"/>
        <pt x="215" y="-130" on="1"/>
        <pt x="215" y="-153" on="0"/>
        <pt x="250" y="-184" on="0"/>
        <pt x="277" y="-184" on="1"/>
        <pt x="323" y="-184" on="0"/>
      </contour>
    </TTGlyph>
    <TTGlyph name="Upsilon" xMin="60" yMin="-7" xMax="503" yMax="700">
      <contour>
        <pt x="399" y="-7" on="1"/>
        <pt x="391" y="18" on="1"/>
        <pt x="408" y="24" on="0"/>
        <pt x="424" y="33" on="0"/>
        <pt x="440" y="47" on="1"/>
        <pt x="471" y="74" on="0"/>
        <pt x="471" y="152" on="1"/>
        <pt x="471" y="325" on="1"/>
        <pt x="442" y="282" on="0"/>
        <pt x="337" y="245" on="0"/>
        <pt x="289" y="245" on="1"/>
        <pt x="183" y="245" on="0"/>
        <pt x="60" y="350" on="0"/>
        <pt x="60" y="453" on="1"/>
        <pt x="60" y="700" on="1"/>
        <pt x="92" y="700" on="1"/>
        <pt x="92" y="453" on="1"/>
        <pt x="92" y="368" on="0"/>
        <pt x="193" y="277" on="0"/>
        <pt x="289" y="277" on="1"/>
        <pt x="362" y="277" on="0"/>
        <pt x="461" y="347" on="0"/>
        <pt x="471" y="403" on="1"/>
        <pt x="471" y="700" on="1"/>
        <pt x="503" y="700" on="1"/>
        <pt x="503" y="149" on="1"/>
        <pt x="503" y="15" on="0"/>
      </contour>
    </TTGlyph>
    <TTGlyph name="Upsilon_alt" xMin="14" yMin="0" xMax="486" yMax="700">
      <contour>
        <pt x="265" y="0" on="1"/>
        <pt x="234" y="0" on="1"/>
        <pt x="234" y="341" on="1"/>
        <pt x="14" y="700" on="1"/>
        <pt x="51" y="700" on="1"/>
        <pt x="249" y="377" on="1"/>
        <pt x="449" y="700" on="1"/>
        <pt x="486" y="700" on="1"/>
        <pt x="265" y="342" on="1"/>
      </contour>
    </TTGlyph>
    <TTGlyph name="Upsilondieresis" xMin="78" yMin="-7" xMax="521" yMax="795">
      <contour>
        <pt x="417" y="-7" on="1"/>
        <pt x="409" y="18" on="1"/>
        <pt x="426" y="24" on="0"/>
        <pt x="442" y="33" on="0"/>
        <pt x="458" y="47" on="1"/>
        <pt x="489" y="74" on="0"/>
        <pt x="489" y="152" on="1"/>
        <pt x="489" y="325" on="1"/>
        <pt x="460" y="282" on="0"/>
        <pt x="355" y="245" on="0"/>
        <pt x="307" y="245" on="1"/>
        <pt x="201" y="245" on="0"/>
        <pt x="78" y="350" on="0"/>
        <pt x="78" y="453" on="1"/>
        <pt x="78" y="700" on="1"/>
        <pt x="110" y="700" on="1"/>
        <pt x="110" y="453" on="1"/>
        <pt x="110" y="368" on="0"/>
        <pt x="211" y="277" on="0"/>
        <pt x="307" y="277" on="1"/>
        <pt x="380" y="277" on="0"/>
        <pt x="479" y="347" on="0"/>
        <pt x="489" y="403" on="1"/>
        <pt x="489" y="700" on="1"/>
        <pt x="521" y="700" on="1"/>
        <pt x="521" y="149" on="1"/>
        <pt x="521" y="15" on="0"/>
      </contour>
      <contour>
        <pt x="237" y="764" on="0"/>
        <pt x="224" y="751" on="0"/>
        <pt x="207" y="751" on="0"/>
        <pt x="195" y="764" on="0"/>
        <pt x="195" y="781" on="0"/>
        <pt x="207" y="794" on="0"/>
        <pt x="224" y="794" on="0"/>
        <pt x="237" y="781" on="0"/>
      </contour>
      <contour>
        <pt x="396" y="765" on="0"/>
        <pt x="383" y="752" on="0"/>
        <pt x="366" y="752" on="0"/>
        <pt x="353" y="765" on="0"/>
        <pt x="353" y="782" on="0"/>
        <pt x="366" y="795" on="0"/>
        <pt x="383" y="795" on="0"/>
        <pt x="396" y="782" on="0"/>
      </contour>
    </TTGlyph>
    <TTGlyph name="Upsilondieresis_alt" xMin="-3" yMin="0" xMax="469" yMax="795">
      <contour>
        <pt x="248" y="0" on="1"/>
        <pt x="217" y="0" on="1"/>
        <pt x="217" y="341" on="1"/>
        <pt x="-3" y="700" on="1"/>
        <pt x="34" y="700" on="1"/>
        <pt x="232" y="377" on="1"/>
        <pt x="432" y="700" on="1"/>
        <pt x="469" y="700" on="1"/>
        <pt x="248" y="342" on="1"/>
      </contour>
      <contour>
        <pt x="169" y="764" on="0"/>
        <pt x="156" y="751" on="0"/>
        <pt x="139" y="751" on="0"/>
        <pt x="127" y="764" on="0"/>
        <pt x="127" y="781" on="0"/>
        <pt x="139" y="794" on="0"/>
        <pt x="156" y="794" on="0"/>
        <pt x="169" y="781" on="0"/>
      </contour>
      <contour>
        <pt x="328" y="765" on="0"/>
        <pt x="315" y="752" on="0"/>
        <pt x="298" y="752" on="0"/>
        <pt x="285" y="765" on="0"/>
        <pt x="285" y="782" on="0"/>
        <pt x="298" y="795" on="0"/>
        <pt x="315" y="795" on="0"/>
        <pt x="328" y="782" on="0"/>
      </contour>
    </TTGlyph>
    <TTGlyph name="Upsilontonos" xMin="78" yMin="-7" xMax="688" yMax="709">
      <contour>
        <pt x="106" y="568" on="1"/>
        <pt x="78" y="568" on="1"/>
        <pt x="132" y="692" on="1"/>
        <pt x="139" y="709" on="0"/>
        <pt x="152" y="709" on="1"/>
        <pt x="170" y="709" on="0"/>
        <pt x="174" y="693" on="1"/>
        <pt x="177" y="683" on="0"/>
        <pt x="171" y="674" on="1"/>
      </contour>
      <contour>
        <pt x="584" y="-7" on="1"/>
        <pt x="576" y="18" on="1"/>
        <pt x="593" y="24" on="0"/>
        <pt x="609" y="33" on="0"/>
        <pt x="625" y="47" on="1"/>
        <pt x="656" y="74" on="0"/>
        <pt x="656" y="152" on="1"/>
        <pt x="656" y="325" on="1"/>
        <pt x="627" y="282" on="0"/>
        <pt x="522" y="245" on="0"/>
        <pt x="474" y="245" on="1"/>
        <pt x="368" y="245" on="0"/>
        <pt x="245" y="350" on="0"/>
        <pt x="245" y="453" on="1"/>
        <pt x="245" y="700" on="1"/>
        <pt x="277" y="700" on="1"/>
        <pt x="277" y="453" on="1"/>
        <pt x="277" y="368" on="0"/>
        <pt x="378" y="277" on="0"/>
        <pt x="474" y="277" on="1"/>
        <pt x="547" y="277" on="0"/>
        <pt x="646" y="347" on="0"/>
        <pt x="656" y="403" on="1"/>
        <pt x="656" y="700" on="1"/>
        <pt x="688" y="700" on="1"/>
        <pt x="688" y="149" on="1"/>
        <pt x="688" y="15" on="0"/>
      </contour>
    </TTGlyph>
    <TTGlyph name="Upsilontonos_alt" xMin="78" yMin="0" xMax="696" yMax="709">
      <contour>
        <pt x="106" y="568" on="1"/>
        <pt x="78" y="568" on="1"/>
        <pt x="132" y="692" on="1"/>
        <pt x="139" y="709" on="0"/>
        <pt x="152" y="709" on="1"/>
        <pt x="170" y="709" on="0"/>
        <pt x="174" y="693" on="1"/>
        <pt x="177" y="683" on="0"/>
        <pt x="171" y="674" on="1"/>
      </contour>
      <contour>
        <pt x="475" y="0" on="1"/>
        <pt x="444" y="0" on="1"/>
        <pt x="444" y="341" on="1"/>
        <pt x="224" y="700" on="1"/>
        <pt x="261" y="700" on="1"/>
        <pt x="459" y="377" on="1"/>
        <pt x="659" y="700" on="1"/>
        <pt x="696" y="700" on="1"/>
        <pt x="475" y="342" on="1"/>
      </contour>
    </TTGlyph>
    <TTGlyph name="Uring" xMin="74" yMin="-7" xMax="495" yMax="883">
      <contour>
        <pt x="463" y="182" on="1"/>
        <pt x="463" y="701" on="1"/>
        <pt x="495" y="701" on="1"/>
        <pt x="495" y="186" on="1"/>
        <pt x="495" y="133" on="0"/>
        <pt x="458" y="55" on="0"/>
        <pt x="395" y="13" on="0"/>
        <pt x="325" y="-7" on="0"/>
        <pt x="245" y="-7" on="0"/>
        <pt x="174" y="13" on="0"/>
        <pt x="111" y="55" on="0"/>
        <pt x="74" y="133" on="0"/>
        <pt x="74" y="186" on="1"/>
        <pt x="74" y="701" on="1"/>
        <pt x="106" y="701" on="1"/>
        <pt x="106" y="182" on="1"/>
        <pt x="106" y="101" on="0"/>
        <pt x="213" y="23" on="0"/>
        <pt x="357" y="23" on="0"/>
        <pt x="463" y="102" on="0"/>
      </contour>
      <contour>
        <pt x="250" y="686" on="0"/>
        <pt x="318" y="686" on="0"/>
        <pt x="367" y="735" on="0"/>
        <pt x="367" y="804" on="0"/>
        <pt x="318" y="853" on="0"/>
        <pt x="249" y="853" on="0"/>
        <pt x="200" y="804" on="0"/>
        <pt x="200" y="736" on="0"/>
      </contour>
      <contour>
        <pt x="330" y="657" on="0"/>
        <pt x="238" y="657" on="0"/>
        <pt x="171" y="724" on="0"/>
        <pt x="171" y="816" on="0"/>
        <pt x="238" y="883" on="0"/>
        <pt x="330" y="883" on="0"/>
        <pt x="397" y="816" on="0"/>
        <pt x="397" y="724" on="0"/>
      </contour>
    </TTGlyph>
    <TTGlyph name="Utilde" xMin="74" yMin="-7" xMax="495" yMax="826">
      <contour>
        <pt x="463" y="182" on="1"/>
        <pt x="463" y="701" on="1"/>
        <pt x="495" y="701" on="1"/>
        <pt x="495" y="186" on="1"/>
        <pt x="495" y="133" on="0"/>
        <pt x="458" y="55" on="0"/>
        <pt x="395" y="13" on="0"/>
        <pt x="325" y="-7" on="0"/>
        <pt x="245" y="-7" on="0"/>
        <pt x="174" y="13" on="0"/>
        <pt x="111" y="55" on="0"/>
        <pt x="74" y="133" on="0"/>
        <pt x="74" y="186" on="1"/>
        <pt x="74" y="701" on="1"/>
        <pt x="106" y="701" on="1"/>
        <pt x="106" y="182" on="1"/>
        <pt x="106" y="101" on="0"/>
        <pt x="213" y="23" on="0"/>
        <pt x="357" y="23" on="0"/>
        <pt x="463" y="102" on="0"/>
      </contour>
      <contour>
        <pt x="219" y="826" on="1"/>
        <pt x="245" y="826" on="0"/>
        <pt x="310" y="796" on="1"/>
        <pt x="336" y="784" on="0"/>
        <pt x="400" y="784" on="0"/>
        <pt x="430" y="816" on="1"/>
        <pt x="446" y="792" on="1"/>
        <pt x="405" y="751" on="0"/>
        <pt x="362" y="751" on="1"/>
        <pt x="340" y="751" on="0"/>
        <pt x="287" y="772" on="0"/>
        <pt x="266" y="781" on="1"/>
        <pt x="238" y="794" on="0"/>
        <pt x="216" y="794" on="1"/>
        <pt x="174" y="794" on="0"/>
        <pt x="136" y="752" on="1"/>
        <pt x="120" y="776" on="1"/>
        <pt x="165" y="826" on="0"/>
      </contour>
    </TTGlyph>
    <TTGlyph name="V" xMin="78" yMin="0" xMax="556" yMax="700">
      <contour>
        <pt x="338" y="0" on="1"/>
        <pt x="297" y="0" on="1"/>
        <pt x="78" y="700" on="1"/>
        <pt x="111" y="700" on="1"/>
        <pt x="317" y="42" on="1"/>
        <pt x="523" y="700" on="1"/>
        <pt x="556" y="700" on="1"/>
      </contour>
    </TTGlyph>
    <TTGlyph name="W" xMin="78" yMin="0" xMax="774" yMax="700">
      <contour>
        <pt x="599" y="0" on="1"/>
        <pt x="556" y="0" on="1"/>
        <pt x="427" y="634" on="1"/>
        <pt x="298" y="0" on="1"/>
        <pt x="255" y="0" on="1"/>
        <pt x="78" y="700" on="1"/>
        <pt x="113" y="700" on="1"/>
        <pt x="274" y="48" on="1"/>
        <pt x="407" y="700" on="1"/>
        <pt x="447" y="700" on="1"/>
        <pt x="579" y="47" on="1"/>
        <pt x="739" y="700" on="1"/>
        <pt x="774" y="700" on="1"/>
      </contour>
    </TTGlyph>
    <TTGlyph name="X" xMin="40" yMin="0" xMax="547" yMax="700">
      <contour>
        <pt x="547" y="2" on="1"/>
        <pt x="508" y="0" on="1"/>
        <pt x="294" y="328" on="1"/>
        <pt x="80" y="0" on="1"/>
        <pt x="40" y="0" on="1"/>
        <pt x="275" y="360" on="1"/>
        <pt x="59" y="700" on="1"/>
        <pt x="95" y="700" on="1"/>
        <pt x="294" y="390" on="1"/>
        <pt x="493" y="700" on="1"/>
        <pt x="531" y="700" on="1"/>
        <pt x="314" y="360" on="1"/>
      </contour>
    </TTGlyph>
    <TTGlyph name="Xi" xMin="78" yMin="0" xMax="587" yMax="700">
      <contour>
        <pt x="469" y="381" on="1"/>
        <pt x="205" y="381" on="1"/>
        <pt x="205" y="413" on="1"/>
        <pt x="469" y="413" on="1"/>
      </contour>
      <contour>
        <pt x="535" y="669" on="1"/>
        <pt x="223" y="669" on="1"/>
        <pt x="171" y="669" on="0"/>
        <pt x="119" y="625" on="0"/>
        <pt x="105" y="585" on="1"/>
        <pt x="78" y="595" on="1"/>
        <pt x="94" y="651" on="0"/>
        <pt x="164" y="700" on="0"/>
        <pt x="223" y="700" on="1"/>
        <pt x="548" y="700" on="1"/>
      </contour>
      <contour>
        <pt x="560" y="116" on="1"/>
        <pt x="587" y="106" on="1"/>
        <pt x="571" y="50" on="0"/>
        <pt x="501" y="0" on="0"/>
        <pt x="442" y="0" on="1"/>
        <pt x="117" y="0" on="1"/>
        <pt x="130" y="31" on="1"/>
        <pt x="442" y="31" on="1"/>
        <pt x="494" y="31" on="0"/>
        <pt x="546" y="75" on="0"/>
      </contour>
    </TTGlyph>
    <TTGlyph name="Y" xMin="60" yMin="-7" xMax="503" yMax="700">
      <contour>
        <pt x="399" y="-7" on="1"/>
        <pt x="391" y="18" on="1"/>
        <pt x="408" y="24" on="0"/>
        <pt x="424" y="33" on="0"/>
        <pt x="440" y="47" on="1"/>
        <pt x="471" y="74" on="0"/>
        <pt x="471" y="152" on="1"/>
        <pt x="471" y="325" on="1"/>
        <pt x="442" y="282" on="0"/>
        <pt x="337" y="245" on="0"/>
        <pt x="289" y="245" on="1"/>
        <pt x="183" y="245" on="0"/>
        <pt x="60" y="350" on="0"/>
        <pt x="60" y="453" on="1"/>
        <pt x="60" y="700" on="1"/>
        <pt x="92" y="700" on="1"/>
        <pt x="92" y="453" on="1"/>
        <pt x="92" y="368" on="0"/>
        <pt x="193" y="277" on="0"/>
        <pt x="289" y="277" on="1"/>
        <pt x="362" y="277" on="0"/>
        <pt x="461" y="347" on="0"/>
        <pt x="471" y="403" on="1"/>
        <pt x="471" y="700" on="1"/>
        <pt x="503" y="700" on="1"/>
        <pt x="503" y="149" on="1"/>
        <pt x="503" y="15" on="0"/>
      </contour>
    </TTGlyph>
    <TTGlyph name="Y_alt" xMin="49" yMin="0" xMax="521" yMax="700">
      <contour>
        <pt x="300" y="0" on="1"/>
        <pt x="269" y="0" on="1"/>
        <pt x="269" y="341" on="1"/>
        <pt x="49" y="700" on="1"/>
        <pt x="86" y="700" on="1"/>
        <pt x="284" y="377" on="1"/>
        <pt x="484" y="700" on="1"/>
        <pt x="521" y="700" on="1"/>
        <pt x="300" y="342" on="1"/>
      </contour>
    </TTGlyph>
    <TTGlyph name="Yacute" xMin="60" yMin="-7" xMax="503" yMax="872">
      <contour>
        <pt x="399" y="-7" on="1"/>
        <pt x="391" y="18" on="1"/>
        <pt x="408" y="24" on="0"/>
        <pt x="424" y="33" on="0"/>
        <pt x="440" y="47" on="1"/>
        <pt x="471" y="74" on="0"/>
        <pt x="471" y="152" on="1"/>
        <pt x="471" y="325" on="1"/>
        <pt x="442" y="282" on="0"/>
        <pt x="337" y="245" on="0"/>
        <pt x="289" y="245" on="1"/>
        <pt x="183" y="245" on="0"/>
        <pt x="60" y="350" on="0"/>
        <pt x="60" y="453" on="1"/>
        <pt x="60" y="700" on="1"/>
        <pt x="92" y="700" on="1"/>
        <pt x="92" y="453" on="1"/>
        <pt x="92" y="368" on="0"/>
        <pt x="193" y="277" on="0"/>
        <pt x="289" y="277" on="1"/>
        <pt x="362" y="277" on="0"/>
        <pt x="461" y="347" on="0"/>
        <pt x="471" y="403" on="1"/>
        <pt x="471" y="700" on="1"/>
        <pt x="503" y="700" on="1"/>
        <pt x="503" y="149" on="1"/>
        <pt x="503" y="15" on="0"/>
      </contour>
      <contour>
        <pt x="290" y="731" on="1"/>
        <pt x="262" y="731" on="1"/>
        <pt x="316" y="855" on="1"/>
        <pt x="323" y="872" on="0"/>
        <pt x="336" y="872" on="1"/>
        <pt x="354" y="872" on="0"/>
        <pt x="358" y="856" on="1"/>
        <pt x="359" y="853" on="0"/>
        <pt x="359" y="843" on="0"/>
        <pt x="355" y="837" on="1"/>
      </contour>
    </TTGlyph>
    <TTGlyph name="Yacute_alt" xMin="3" yMin="0" xMax="475" yMax="872">
      <contour>
        <pt x="245" y="731" on="1"/>
        <pt x="217" y="731" on="1"/>
        <pt x="271" y="855" on="1"/>
        <pt x="278" y="872" on="0"/>
        <pt x="291" y="872" on="1"/>
        <pt x="309" y="872" on="0"/>
        <pt x="314" y="856" on="1"/>
        <pt x="316" y="846" on="0"/>
        <pt x="310" y="837" on="1"/>
      </contour>
      <contour>
        <pt x="254" y="0" on="1"/>
        <pt x="223" y="0" on="1"/>
        <pt x="223" y="341" on="1"/>
        <pt x="3" y="700" on="1"/>
        <pt x="40" y="700" on="1"/>
        <pt x="238" y="377" on="1"/>
        <pt x="438" y="700" on="1"/>
        <pt x="475" y="700" on="1"/>
        <pt x="254" y="342" on="1"/>
      </contour>
    </TTGlyph>
    <TTGlyph name="Ydieresis" xMin="60" yMin="-7" xMax="503" yMax="700">
      <contour>
        <pt x="399" y="-7" on="1"/>
        <pt x="391" y="18" on="1"/>
        <pt x="408" y="24" on="0"/>
        <pt x="424" y="33" on="0"/>
        <pt x="440" y="47" on="1"/>
        <pt x="471" y="74" on="0"/>
        <pt x="471" y="152" on="1"/>
        <pt x="471" y="325" on="1"/>
        <pt x="442" y="282" on="0"/>
        <pt x="337" y="245" on="0"/>
        <pt x="289" y="245" on="1"/>
        <pt x="183" y="245" on="0"/>
        <pt x="60" y="350" on="0"/>
        <pt x="60" y="453" on="1"/>
        <pt x="60" y="700" on="1"/>
        <pt x="92" y="700" on="1"/>
        <pt x="92" y="453" on="1"/>
        <pt x="92" y="368" on="0"/>
        <pt x="193" y="277" on="0"/>
        <pt x="289" y="277" on="1"/>
        <pt x="362" y="277" on="0"/>
        <pt x="461" y="347" on="0"/>
        <pt x="471" y="403" on="1"/>
        <pt x="471" y="700" on="1"/>
        <pt x="503" y="700" on="1"/>
        <pt x="503" y="149" on="1"/>
        <pt x="503" y="15" on="0"/>
      </contour>
    </TTGlyph>
    <TTGlyph name="Ydieresis_alt" xMin="10" yMin="0" xMax="482" yMax="700">
      <contour>
        <pt x="261" y="0" on="1"/>
        <pt x="230" y="0" on="1"/>
        <pt x="230" y="341" on="1"/>
        <pt x="10" y="700" on="1"/>
        <pt x="47" y="700" on="1"/>
        <pt x="245" y="377" on="1"/>
        <pt x="445" y="700" on="1"/>
        <pt x="482" y="700" on="1"/>
        <pt x="261" y="342" on="1"/>
      </contour>
    </TTGlyph>
    <TTGlyph name="Z" xMin="31" yMin="0" xMax="518" yMax="700">
      <contour>
        <pt x="518" y="0" on="1"/>
        <pt x="31" y="0" on="1"/>
        <pt x="31" y="30" on="1"/>
        <pt x="472" y="670" on="1"/>
        <pt x="45" y="670" on="1"/>
        <pt x="44" y="700" on="1"/>
        <pt x="512" y="700" on="1"/>
        <pt x="512" y="670" on="1"/>
        <pt x="71" y="30" on="1"/>
        <pt x="518" y="30" on="1"/>
      </contour>
    </TTGlyph>
    <TTGlyph name="Zacute" xMin="31" yMin="0" xMax="518" yMax="926">
      <contour>
        <pt x="518" y="0" on="1"/>
        <pt x="31" y="0" on="1"/>
        <pt x="31" y="30" on="1"/>
        <pt x="472" y="670" on="1"/>
        <pt x="45" y="670" on="1"/>
        <pt x="44" y="700" on="1"/>
        <pt x="512" y="700" on="1"/>
        <pt x="512" y="670" on="1"/>
        <pt x="71" y="30" on="1"/>
        <pt x="518" y="30" on="1"/>
      </contour>
      <contour>
        <pt x="307" y="785" on="1"/>
        <pt x="279" y="785" on="1"/>
        <pt x="333" y="909" on="1"/>
        <pt x="340" y="926" on="0"/>
        <pt x="353" y="926" on="1"/>
        <pt x="371" y="926" on="0"/>
        <pt x="376" y="910" on="1"/>
        <pt x="376" y="907" on="0"/>
        <pt x="376" y="897" on="0"/>
        <pt x="372" y="891" on="1"/>
      </contour>
    </TTGlyph>
    <TTGlyph name="Zcaron" xMin="31" yMin="0" xMax="518" yMax="948">
      <contour>
        <pt x="518" y="0" on="1"/>
        <pt x="31" y="0" on="1"/>
        <pt x="31" y="30" on="1"/>
        <pt x="472" y="670" on="1"/>
        <pt x="45" y="670" on="1"/>
        <pt x="44" y="700" on="1"/>
        <pt x="512" y="700" on="1"/>
        <pt x="512" y="670" on="1"/>
        <pt x="71" y="30" on="1"/>
        <pt x="518" y="30" on="1"/>
      </contour>
      <contour>
        <pt x="444" y="925" on="1"/>
        <pt x="302" y="784" on="1"/>
        <pt x="154" y="925" on="1"/>
        <pt x="177" y="948" on="1"/>
        <pt x="301" y="830" on="1"/>
        <pt x="421" y="948" on="1"/>
      </contour>
    </TTGlyph>
    <TTGlyph name="Zdotaccent" xMin="31" yMin="0" xMax="518" yMax="793">
      <contour>
        <pt x="518" y="0" on="1"/>
        <pt x="31" y="0" on="1"/>
        <pt x="31" y="30" on="1"/>
        <pt x="472" y="670" on="1"/>
        <pt x="45" y="670" on="1"/>
        <pt x="44" y="700" on="1"/>
        <pt x="512" y="700" on="1"/>
        <pt x="512" y="670" on="1"/>
        <pt x="71" y="30" on="1"/>
        <pt x="518" y="30" on="1"/>
      </contour>
      <contour>
        <pt x="308" y="764" on="0"/>
        <pt x="296" y="752" on="0"/>
        <pt x="279" y="752" on="0"/>
        <pt x="267" y="764" on="0"/>
        <pt x="267" y="781" on="0"/>
        <pt x="279" y="793" on="0"/>
        <pt x="296" y="793" on="0"/>
        <pt x="308" y="781" on="0"/>
      </contour>
    </TTGlyph>
    <TTGlyph name="Zeta" xMin="78" yMin="0" xMax="565" yMax="700">
      <contour>
        <pt x="565" y="0" on="1"/>
        <pt x="78" y="0" on="1"/>
        <pt x="78" y="30" on="1"/>
        <pt x="519" y="670" on="1"/>
        <pt x="92" y="670" on="1"/>
        <pt x="91" y="700" on="1"/>
        <pt x="559" y="700" on="1"/>
        <pt x="559" y="670" on="1"/>
        <pt x="118" y="30" on="1"/>
        <pt x="565" y="30" on="1"/>
      </contour>
    </TTGlyph>
    <TTGlyph name="_196" xMin="78" yMin="0" xMax="583" yMax="700">
      <contour>
        <pt x="583" y="0" on="1"/>
        <pt x="78" y="0" on="1"/>
        <pt x="312" y="700" on="1"/>
        <pt x="343" y="700" on="1"/>
      </contour>
      <contour>
        <pt x="539" y="30" on="1"/>
        <pt x="328" y="653" on="1"/>
        <pt x="121" y="30" on="1"/>
      </contour>
    </TTGlyph>
    <TTGlyph name="a" xMin="37" yMin="-10" xMax="422" yMax="509">
      <contour>
        <pt x="198" y="402" on="1"/>
        <pt x="309" y="402" on="0"/>
        <pt x="390" y="346" on="1"/>
        <pt x="390" y="482" on="0"/>
        <pt x="217" y="482" on="1"/>
        <pt x="215" y="482" on="0"/>
        <pt x="212" y="482" on="1"/>
        <pt x="214" y="509" on="1"/>
        <pt x="295" y="509" on="0"/>
        <pt x="334" y="490" on="1"/>
        <pt x="355" y="479" on="0"/>
        <pt x="387" y="457" on="0"/>
        <pt x="405" y="421" on="0"/>
        <pt x="417" y="394" on="0"/>
        <pt x="419" y="371" on="1"/>
        <pt x="422" y="336" on="0"/>
        <pt x="422" y="298" on="1"/>
        <pt x="422" y="0" on="1"/>
        <pt x="318" y="-10" on="0"/>
        <pt x="256" y="-10" on="1"/>
        <pt x="37" y="-10" on="0"/>
        <pt x="37" y="169" on="1"/>
        <pt x="37" y="252" on="1"/>
        <pt x="37" y="349" on="0"/>
        <pt x="109" y="384" on="1"/>
        <pt x="146" y="402" on="0"/>
      </contour>
      <contour>
        <pt x="106" y="57" on="0"/>
        <pt x="164" y="27" on="0"/>
        <pt x="238" y="18" on="0"/>
        <pt x="312" y="18" on="0"/>
        <pt x="390" y="28" on="1"/>
        <pt x="390" y="316" on="1"/>
        <pt x="307" y="367" on="0"/>
        <pt x="196" y="372" on="1"/>
        <pt x="193" y="373" on="0"/>
        <pt x="189" y="373" on="1"/>
        <pt x="140" y="373" on="0"/>
        <pt x="69" y="313" on="0"/>
        <pt x="69" y="249" on="1"/>
        <pt x="69" y="162" on="1"/>
        <pt x="69" y="118" on="0"/>
      </contour>
    </TTGlyph>
    <TTGlyph name="aacute" xMin="78" yMin="-10" xMax="463" yMax="679">
      <contour>
        <pt x="239" y="402" on="1"/>
        <pt x="350" y="402" on="0"/>
        <pt x="431" y="346" on="1"/>
        <pt x="431" y="482" on="0"/>
        <pt x="258" y="482" on="1"/>
        <pt x="256" y="482" on="0"/>
        <pt x="253" y="482" on="1"/>
        <pt x="255" y="509" on="1"/>
        <pt x="336" y="509" on="0"/>
        <pt x="375" y="490" on="1"/>
        <pt x="396" y="479" on="0"/>
        <pt x="428" y="457" on="0"/>
        <pt x="446" y="421" on="0"/>
        <pt x="458" y="394" on="0"/>
        <pt x="460" y="371" on="1"/>
        <pt x="463" y="336" on="0"/>
        <pt x="463" y="298" on="1"/>
        <pt x="463" y="0" on="1"/>
        <pt x="359" y="-10" on="0"/>
        <pt x="297" y="-10" on="1"/>
        <pt x="78" y="-10" on="0"/>
        <pt x="78" y="169" on="1"/>
        <pt x="78" y="252" on="1"/>
        <pt x="78" y="349" on="0"/>
        <pt x="150" y="384" on="1"/>
        <pt x="187" y="402" on="0"/>
      </contour>
      <contour>
        <pt x="147" y="57" on="0"/>
        <pt x="205" y="27" on="0"/>
        <pt x="279" y="18" on="0"/>
        <pt x="353" y="18" on="0"/>
        <pt x="431" y="28" on="1"/>
        <pt x="431" y="316" on="1"/>
        <pt x="348" y="367" on="0"/>
        <pt x="238" y="372" on="1"/>
        <pt x="234" y="373" on="0"/>
        <pt x="230" y="373" on="1"/>
        <pt x="181" y="373" on="0"/>
        <pt x="110" y="313" on="0"/>
        <pt x="110" y="249" on="1"/>
        <pt x="110" y="162" on="1"/>
        <pt x="110" y="118" on="0"/>
      </contour>
      <contour>
        <pt x="286" y="538" on="1"/>
        <pt x="258" y="538" on="1"/>
        <pt x="312" y="662" on="1"/>
        <pt x="319" y="679" on="0"/>
        <pt x="332" y="679" on="1"/>
        <pt x="350" y="679" on="0"/>
        <pt x="354" y="663" on="1"/>
        <pt x="355" y="660" on="0"/>
        <pt x="355" y="650" on="0"/>
        <pt x="351" y="644" on="1"/>
      </contour>
    </TTGlyph>
    <TTGlyph name="abreve" xMin="78" yMin="-10" xMax="463" yMax="656">
      <contour>
        <pt x="239" y="402" on="1"/>
        <pt x="350" y="402" on="0"/>
        <pt x="431" y="346" on="1"/>
        <pt x="431" y="482" on="0"/>
        <pt x="258" y="482" on="1"/>
        <pt x="256" y="482" on="0"/>
        <pt x="253" y="482" on="1"/>
        <pt x="255" y="509" on="1"/>
        <pt x="336" y="509" on="0"/>
        <pt x="375" y="490" on="1"/>
        <pt x="396" y="479" on="0"/>
        <pt x="428" y="457" on="0"/>
        <pt x="446" y="421" on="0"/>
        <pt x="458" y="394" on="0"/>
        <pt x="460" y="371" on="1"/>
        <pt x="463" y="336" on="0"/>
        <pt x="463" y="298" on="1"/>
        <pt x="463" y="0" on="1"/>
        <pt x="359" y="-10" on="0"/>
        <pt x="297" y="-10" on="1"/>
        <pt x="78" y="-10" on="0"/>
        <pt x="78" y="169" on="1"/>
        <pt x="78" y="252" on="1"/>
        <pt x="78" y="349" on="0"/>
        <pt x="150" y="384" on="1"/>
        <pt x="187" y="402" on="0"/>
      </contour>
      <contour>
        <pt x="147" y="57" on="0"/>
        <pt x="205" y="27" on="0"/>
        <pt x="279" y="18" on="0"/>
        <pt x="353" y="18" on="0"/>
        <pt x="431" y="28" on="1"/>
        <pt x="431" y="316" on="1"/>
        <pt x="348" y="367" on="0"/>
        <pt x="238" y="372" on="1"/>
        <pt x="234" y="373" on="0"/>
        <pt x="230" y="373" on="1"/>
        <pt x="181" y="373" on="0"/>
        <pt x="110" y="313" on="0"/>
        <pt x="110" y="249" on="1"/>
        <pt x="110" y="162" on="1"/>
        <pt x="110" y="118" on="0"/>
      </contour>
      <contour>
        <pt x="422" y="656" on="1"/>
        <pt x="422" y="651" on="1"/>
        <pt x="422" y="604" on="0"/>
        <pt x="356" y="538" on="0"/>
        <pt x="262" y="538" on="0"/>
        <pt x="196" y="604" on="0"/>
        <pt x="196" y="651" on="1"/>
        <pt x="196" y="656" on="1"/>
        <pt x="225" y="656" on="1"/>
        <pt x="225" y="651" on="1"/>
        <pt x="225" y="620" on="0"/>
        <pt x="272" y="567" on="0"/>
        <pt x="345" y="567" on="0"/>
        <pt x="393" y="620" on="0"/>
        <pt x="393" y="651" on="1"/>
        <pt x="393" y="656" on="1"/>
      </contour>
    </TTGlyph>
    <TTGlyph name="acircumflex" xMin="78" yMin="-10" xMax="463" yMax="720">
      <contour>
        <pt x="239" y="402" on="1"/>
        <pt x="350" y="402" on="0"/>
        <pt x="431" y="346" on="1"/>
        <pt x="431" y="482" on="0"/>
        <pt x="258" y="482" on="1"/>
        <pt x="256" y="482" on="0"/>
        <pt x="253" y="482" on="1"/>
        <pt x="255" y="509" on="1"/>
        <pt x="336" y="509" on="0"/>
        <pt x="375" y="490" on="1"/>
        <pt x="396" y="479" on="0"/>
        <pt x="428" y="457" on="0"/>
        <pt x="446" y="421" on="0"/>
        <pt x="458" y="394" on="0"/>
        <pt x="460" y="371" on="1"/>
        <pt x="463" y="336" on="0"/>
        <pt x="463" y="298" on="1"/>
        <pt x="463" y="0" on="1"/>
        <pt x="359" y="-10" on="0"/>
        <pt x="297" y="-10" on="1"/>
        <pt x="78" y="-10" on="0"/>
        <pt x="78" y="169" on="1"/>
        <pt x="78" y="252" on="1"/>
        <pt x="78" y="349" on="0"/>
        <pt x="150" y="384" on="1"/>
        <pt x="187" y="402" on="0"/>
      </contour>
      <contour>
        <pt x="147" y="57" on="0"/>
        <pt x="205" y="27" on="0"/>
        <pt x="279" y="18" on="0"/>
        <pt x="353" y="18" on="0"/>
        <pt x="431" y="28" on="1"/>
        <pt x="431" y="316" on="1"/>
        <pt x="348" y="367" on="0"/>
        <pt x="238" y="372" on="1"/>
        <pt x="234" y="373" on="0"/>
        <pt x="230" y="373" on="1"/>
        <pt x="181" y="373" on="0"/>
        <pt x="110" y="313" on="0"/>
        <pt x="110" y="249" on="1"/>
        <pt x="110" y="162" on="1"/>
        <pt x="110" y="118" on="0"/>
      </contour>
      <contour>
        <pt x="395" y="555" on="1"/>
        <pt x="276" y="674" on="1"/>
        <pt x="153" y="555" on="1"/>
        <pt x="129" y="579" on="1"/>
        <pt x="277" y="720" on="1"/>
        <pt x="419" y="579" on="1"/>
      </contour>
    </TTGlyph>
    <TTGlyph name="acute" xMin="46" yMin="588" xMax="143" yMax="729">
      <contour>
        <pt x="74" y="588" on="1"/>
        <pt x="46" y="588" on="1"/>
        <pt x="100" y="712" on="1"/>
        <pt x="107" y="729" on="0"/>
        <pt x="120" y="729" on="1"/>
        <pt x="138" y="729" on="0"/>
        <pt x="142" y="713" on="1"/>
        <pt x="143" y="710" on="0"/>
        <pt x="143" y="700" on="0"/>
        <pt x="139" y="694" on="1"/>
      </contour>
    </TTGlyph>
    <TTGlyph name="adieresis" xMin="78" yMin="-10" xMax="463" yMax="509">
      <contour>
        <pt x="239" y="402" on="1"/>
        <pt x="350" y="402" on="0"/>
        <pt x="431" y="346" on="1"/>
        <pt x="431" y="482" on="0"/>
        <pt x="258" y="482" on="1"/>
        <pt x="256" y="482" on="0"/>
        <pt x="253" y="482" on="1"/>
        <pt x="255" y="509" on="1"/>
        <pt x="336" y="509" on="0"/>
        <pt x="375" y="490" on="1"/>
        <pt x="396" y="479" on="0"/>
        <pt x="428" y="457" on="0"/>
        <pt x="446" y="421" on="0"/>
        <pt x="458" y="394" on="0"/>
        <pt x="460" y="371" on="1"/>
        <pt x="463" y="336" on="0"/>
        <pt x="463" y="298" on="1"/>
        <pt x="463" y="0" on="1"/>
        <pt x="359" y="-10" on="0"/>
        <pt x="297" y="-10" on="1"/>
        <pt x="78" y="-10" on="0"/>
        <pt x="78" y="169" on="1"/>
        <pt x="78" y="252" on="1"/>
        <pt x="78" y="349" on="0"/>
        <pt x="150" y="384" on="1"/>
        <pt x="187" y="402" on="0"/>
      </contour>
      <contour>
        <pt x="147" y="57" on="0"/>
        <pt x="205" y="27" on="0"/>
        <pt x="279" y="18" on="0"/>
        <pt x="353" y="18" on="0"/>
        <pt x="431" y="28" on="1"/>
        <pt x="431" y="316" on="1"/>
        <pt x="348" y="367" on="0"/>
        <pt x="238" y="372" on="1"/>
        <pt x="234" y="373" on="0"/>
        <pt x="230" y="373" on="1"/>
        <pt x="181" y="373" on="0"/>
        <pt x="110" y="313" on="0"/>
        <pt x="110" y="249" on="1"/>
        <pt x="110" y="162" on="1"/>
        <pt x="110" y="118" on="0"/>
      </contour>
    </TTGlyph>
    <TTGlyph name="ae" xMin="78" yMin="-12" xMax="793" yMax="510">
      <contour>
        <pt x="596" y="15" on="1"/>
        <pt x="671" y="15" on="0"/>
        <pt x="754" y="61" on="1"/>
        <pt x="768" y="35" on="1"/>
        <pt x="690" y="-12" on="0"/>
        <pt x="505" y="-12" on="0"/>
        <pt x="463" y="38" on="1"/>
        <pt x="463" y="0" on="1"/>
        <pt x="359" y="-10" on="0"/>
        <pt x="297" y="-10" on="1"/>
        <pt x="78" y="-10" on="0"/>
        <pt x="78" y="169" on="1"/>
        <pt x="78" y="252" on="1"/>
        <pt x="78" y="349" on="0"/>
        <pt x="150" y="384" on="1"/>
        <pt x="187" y="402" on="0"/>
        <pt x="239" y="402" on="1"/>
        <pt x="350" y="402" on="0"/>
        <pt x="431" y="346" on="1"/>
        <pt x="431" y="482" on="0"/>
        <pt x="258" y="482" on="1"/>
        <pt x="256" y="482" on="0"/>
        <pt x="253" y="482" on="1"/>
        <pt x="255" y="509" on="1"/>
        <pt x="413" y="509" on="0"/>
        <pt x="448" y="417" on="1"/>
        <pt x="491" y="510" on="0"/>
        <pt x="617" y="510" on="1"/>
        <pt x="700" y="510" on="0"/>
        <pt x="793" y="421" on="0"/>
        <pt x="793" y="342" on="1"/>
        <pt x="793" y="235" on="1"/>
        <pt x="465" y="218" on="1"/>
        <pt x="465" y="133" on="1"/>
        <pt x="465" y="71" on="0"/>
        <pt x="544" y="15" on="0"/>
      </contour>
      <contour>
        <pt x="147" y="57" on="0"/>
        <pt x="205" y="27" on="0"/>
        <pt x="279" y="18" on="0"/>
        <pt x="353" y="18" on="0"/>
        <pt x="431" y="28" on="1"/>
        <pt x="431" y="316" on="1"/>
        <pt x="348" y="367" on="0"/>
        <pt x="238" y="372" on="1"/>
        <pt x="234" y="373" on="0"/>
        <pt x="230" y="373" on="1"/>
        <pt x="181" y="373" on="0"/>
        <pt x="110" y="313" on="0"/>
        <pt x="110" y="249" on="1"/>
        <pt x="110" y="162" on="1"/>
        <pt x="110" y="118" on="0"/>
      </contour>
      <contour>
        <pt x="761" y="265" on="1"/>
        <pt x="761" y="345" on="1"/>
        <pt x="761" y="418" on="0"/>
        <pt x="673" y="481" on="0"/>
        <pt x="553" y="481" on="0"/>
        <pt x="465" y="412" on="0"/>
        <pt x="465" y="339" on="1"/>
        <pt x="465" y="249" on="1"/>
      </contour>
    </TTGlyph>
    <TTGlyph name="agrave" xMin="78" yMin="-10" xMax="463" yMax="679">
      <contour>
        <pt x="239" y="402" on="1"/>
        <pt x="350" y="402" on="0"/>
        <pt x="431" y="346" on="1"/>
        <pt x="431" y="482" on="0"/>
        <pt x="258" y="482" on="1"/>
        <pt x="256" y="482" on="0"/>
        <pt x="253" y="482" on="1"/>
        <pt x="255" y="509" on="1"/>
        <pt x="336" y="509" on="0"/>
        <pt x="375" y="490" on="1"/>
        <pt x="396" y="479" on="0"/>
        <pt x="428" y="457" on="0"/>
        <pt x="446" y="421" on="0"/>
        <pt x="458" y="394" on="0"/>
        <pt x="460" y="371" on="1"/>
        <pt x="463" y="336" on="0"/>
        <pt x="463" y="298" on="1"/>
        <pt x="463" y="0" on="1"/>
        <pt x="359" y="-10" on="0"/>
        <pt x="297" y="-10" on="1"/>
        <pt x="78" y="-10" on="0"/>
        <pt x="78" y="169" on="1"/>
        <pt x="78" y="252" on="1"/>
        <pt x="78" y="349" on="0"/>
        <pt x="150" y="384" on="1"/>
        <pt x="187" y="402" on="0"/>
      </contour>
      <contour>
        <pt x="147" y="57" on="0"/>
        <pt x="205" y="27" on="0"/>
        <pt x="279" y="18" on="0"/>
        <pt x="353" y="18" on="0"/>
        <pt x="431" y="28" on="1"/>
        <pt x="431" y="316" on="1"/>
        <pt x="348" y="367" on="0"/>
        <pt x="238" y="372" on="1"/>
        <pt x="234" y="373" on="0"/>
        <pt x="230" y="373" on="1"/>
        <pt x="181" y="373" on="0"/>
        <pt x="110" y="313" on="0"/>
        <pt x="110" y="249" on="1"/>
        <pt x="110" y="162" on="1"/>
        <pt x="110" y="118" on="0"/>
      </contour>
      <contour>
        <pt x="292" y="538" on="1"/>
        <pt x="264" y="538" on="1"/>
        <pt x="199" y="643" on="1"/>
        <pt x="195" y="649" on="0"/>
        <pt x="195" y="654" on="1"/>
        <pt x="195" y="672" on="0"/>
        <pt x="208" y="677" on="1"/>
        <pt x="213" y="679" on="0"/>
        <pt x="218" y="679" on="1"/>
        <pt x="231" y="679" on="0"/>
        <pt x="238" y="662" on="1"/>
      </contour>
    </TTGlyph>
    <TTGlyph name="alpha" xMin="78" yMin="-5" xMax="466" yMax="507">
      <contour>
        <pt x="227" y="507" on="1"/>
        <pt x="319" y="507" on="0"/>
        <pt x="412" y="459" on="1"/>
        <pt x="424" y="498" on="1"/>
        <pt x="450" y="486" on="1"/>
        <pt x="443" y="443" on="0"/>
        <pt x="443" y="411" on="1"/>
        <pt x="443" y="41" on="1"/>
        <pt x="450" y="30" on="0"/>
        <pt x="466" y="21" on="1"/>
        <pt x="453" y="1" on="1"/>
        <pt x="436" y="4" on="0"/>
        <pt x="421" y="4" on="0"/>
        <pt x="401" y="2" on="1"/>
        <pt x="334" y="-5" on="0"/>
        <pt x="266" y="-5" on="0"/>
        <pt x="237" y="-3" on="0"/>
        <pt x="181" y="5" on="0"/>
        <pt x="149" y="22" on="0"/>
        <pt x="111" y="48" on="0"/>
        <pt x="102" y="66" on="1"/>
        <pt x="78" y="112" on="0"/>
        <pt x="78" y="169" on="1"/>
        <pt x="78" y="354" on="1"/>
        <pt x="78" y="424" on="0"/>
        <pt x="145" y="501" on="0"/>
        <pt x="197" y="506" on="1"/>
        <pt x="212" y="507" on="0"/>
      </contour>
      <contour>
        <pt x="411" y="427" on="1"/>
        <pt x="312" y="477" on="0"/>
        <pt x="226" y="477" on="1"/>
        <pt x="169" y="477" on="0"/>
        <pt x="110" y="412" on="0"/>
        <pt x="110" y="351" on="1"/>
        <pt x="110" y="162" on="1"/>
        <pt x="110" y="94" on="0"/>
        <pt x="186" y="28" on="0"/>
        <pt x="253" y="26" on="1"/>
        <pt x="265" y="26" on="0"/>
        <pt x="337" y="26" on="0"/>
        <pt x="411" y="33" on="1"/>
      </contour>
    </TTGlyph>
    <TTGlyph name="alphatonos" xMin="78" yMin="-5" xMax="466" yMax="679">
      <contour>
        <pt x="227" y="507" on="1"/>
        <pt x="319" y="507" on="0"/>
        <pt x="412" y="459" on="1"/>
        <pt x="424" y="498" on="1"/>
        <pt x="450" y="486" on="1"/>
        <pt x="443" y="443" on="0"/>
        <pt x="443" y="411" on="1"/>
        <pt x="443" y="41" on="1"/>
        <pt x="450" y="30" on="0"/>
        <pt x="466" y="21" on="1"/>
        <pt x="453" y="1" on="1"/>
        <pt x="436" y="4" on="0"/>
        <pt x="421" y="4" on="0"/>
        <pt x="401" y="2" on="1"/>
        <pt x="334" y="-5" on="0"/>
        <pt x="266" y="-5" on="0"/>
        <pt x="237" y="-3" on="0"/>
        <pt x="181" y="5" on="0"/>
        <pt x="149" y="22" on="0"/>
        <pt x="111" y="48" on="0"/>
        <pt x="102" y="66" on="1"/>
        <pt x="78" y="112" on="0"/>
        <pt x="78" y="169" on="1"/>
        <pt x="78" y="354" on="1"/>
        <pt x="78" y="424" on="0"/>
        <pt x="145" y="501" on="0"/>
        <pt x="197" y="506" on="1"/>
        <pt x="212" y="507" on="0"/>
      </contour>
      <contour>
        <pt x="411" y="427" on="1"/>
        <pt x="312" y="477" on="0"/>
        <pt x="226" y="477" on="1"/>
        <pt x="169" y="477" on="0"/>
        <pt x="110" y="412" on="0"/>
        <pt x="110" y="351" on="1"/>
        <pt x="110" y="162" on="1"/>
        <pt x="110" y="94" on="0"/>
        <pt x="186" y="28" on="0"/>
        <pt x="253" y="26" on="1"/>
        <pt x="265" y="26" on="0"/>
        <pt x="337" y="26" on="0"/>
        <pt x="411" y="33" on="1"/>
      </contour>
      <contour>
        <pt x="265" y="538" on="1"/>
        <pt x="237" y="538" on="1"/>
        <pt x="291" y="662" on="1"/>
        <pt x="298" y="679" on="0"/>
        <pt x="311" y="679" on="1"/>
        <pt x="329" y="679" on="0"/>
        <pt x="334" y="663" on="1"/>
        <pt x="334" y="660" on="0"/>
        <pt x="334" y="650" on="0"/>
        <pt x="330" y="644" on="1"/>
      </contour>
    </TTGlyph>
    <TTGlyph name="amacron" xMin="78" yMin="-10" xMax="463" yMax="596">
      <contour>
        <pt x="239" y="402" on="1"/>
        <pt x="350" y="402" on="0"/>
        <pt x="431" y="346" on="1"/>
        <pt x="431" y="482" on="0"/>
        <pt x="258" y="482" on="1"/>
        <pt x="256" y="482" on="0"/>
        <pt x="253" y="482" on="1"/>
        <pt x="255" y="509" on="1"/>
        <pt x="336" y="509" on="0"/>
        <pt x="375" y="490" on="1"/>
        <pt x="396" y="479" on="0"/>
        <pt x="428" y="457" on="0"/>
        <pt x="446" y="421" on="0"/>
        <pt x="458" y="394" on="0"/>
        <pt x="460" y="371" on="1"/>
        <pt x="463" y="336" on="0"/>
        <pt x="463" y="298" on="1"/>
        <pt x="463" y="0" on="1"/>
        <pt x="359" y="-10" on="0"/>
        <pt x="297" y="-10" on="1"/>
        <pt x="78" y="-10" on="0"/>
        <pt x="78" y="169" on="1"/>
        <pt x="78" y="252" on="1"/>
        <pt x="78" y="349" on="0"/>
        <pt x="150" y="384" on="1"/>
        <pt x="187" y="402" on="0"/>
      </contour>
      <contour>
        <pt x="147" y="57" on="0"/>
        <pt x="205" y="27" on="0"/>
        <pt x="279" y="18" on="0"/>
        <pt x="353" y="18" on="0"/>
        <pt x="431" y="28" on="1"/>
        <pt x="431" y="316" on="1"/>
        <pt x="348" y="367" on="0"/>
        <pt x="238" y="372" on="1"/>
        <pt x="234" y="373" on="0"/>
        <pt x="230" y="373" on="1"/>
        <pt x="181" y="373" on="0"/>
        <pt x="110" y="313" on="0"/>
        <pt x="110" y="249" on="1"/>
        <pt x="110" y="162" on="1"/>
        <pt x="110" y="118" on="0"/>
      </contour>
      <contour>
        <pt x="386" y="563" on="1"/>
        <pt x="169" y="563" on="1"/>
        <pt x="169" y="596" on="1"/>
        <pt x="386" y="596" on="1"/>
      </contour>
    </TTGlyph>
    <TTGlyph name="ampersand" xMin="35" yMin="-11" xMax="512" yMax="711">
      <contour>
        <pt x="491" y="16" on="1"/>
        <pt x="482" y="-11" on="1"/>
        <pt x="409" y="11" on="0"/>
        <pt x="403" y="104" on="1"/>
        <pt x="365" y="42" on="0"/>
        <pt x="274" y="-11" on="0"/>
        <pt x="213" y="-11" on="1"/>
        <pt x="123" y="-11" on="0"/>
        <pt x="76" y="52" on="1"/>
        <pt x="35" y="107" on="0"/>
        <pt x="35" y="179" on="1"/>
        <pt x="35" y="233" on="0"/>
        <pt x="72" y="313" on="0"/>
        <pt x="111" y="358" on="0"/>
        <pt x="142" y="380" on="1"/>
        <pt x="185" y="409" on="0"/>
        <pt x="250" y="437" on="1"/>
        <pt x="214" y="442" on="0"/>
        <pt x="187" y="474" on="1"/>
        <pt x="155" y="511" on="0"/>
        <pt x="155" y="569" on="1"/>
        <pt x="155" y="642" on="0"/>
        <pt x="219" y="684" on="1"/>
        <pt x="262" y="711" on="0"/>
        <pt x="345" y="711" on="0"/>
        <pt x="381" y="699" on="1"/>
        <pt x="364" y="672" on="1"/>
        <pt x="336" y="681" on="0"/>
        <pt x="269" y="681" on="0"/>
        <pt x="234" y="656" on="1"/>
        <pt x="187" y="622" on="0"/>
        <pt x="187" y="570" on="1"/>
        <pt x="187" y="561" on="0"/>
        <pt x="189" y="551" on="1"/>
        <pt x="198" y="492" on="0"/>
        <pt x="240" y="471" on="1"/>
        <pt x="267" y="457" on="0"/>
        <pt x="312" y="457" on="0"/>
        <pt x="329" y="461" on="1"/>
        <pt x="400" y="477" on="1"/>
        <pt x="400" y="609" on="1"/>
        <pt x="432" y="609" on="1"/>
        <pt x="432" y="484" on="1"/>
        <pt x="505" y="500" on="1"/>
        <pt x="512" y="469" on="1"/>
        <pt x="432" y="451" on="1"/>
        <pt x="432" y="129" on="1"/>
        <pt x="432" y="36" on="0"/>
      </contour>
      <contour>
        <pt x="400" y="209" on="1"/>
        <pt x="400" y="445" on="1"/>
        <pt x="258" y="414" on="0"/>
        <pt x="195" y="376" on="1"/>
        <pt x="165" y="357" on="0"/>
        <pt x="135" y="332" on="1"/>
        <pt x="67" y="277" on="0"/>
        <pt x="67" y="180" on="1"/>
        <pt x="67" y="118" on="0"/>
        <pt x="140" y="20" on="0"/>
        <pt x="298" y="20" on="0"/>
        <pt x="400" y="139" on="0"/>
      </contour>
    </TTGlyph>
    <TTGlyph name="aogonek" xMin="37" yMin="-213" xMax="477" yMax="509">
      <contour>
        <pt x="198" y="402" on="1"/>
        <pt x="309" y="402" on="0"/>
        <pt x="390" y="346" on="1"/>
        <pt x="390" y="482" on="0"/>
        <pt x="217" y="482" on="1"/>
        <pt x="215" y="482" on="0"/>
        <pt x="212" y="482" on="1"/>
        <pt x="214" y="509" on="1"/>
        <pt x="295" y="509" on="0"/>
        <pt x="334" y="490" on="1"/>
        <pt x="355" y="479" on="0"/>
        <pt x="387" y="457" on="0"/>
        <pt x="405" y="421" on="0"/>
        <pt x="417" y="394" on="0"/>
        <pt x="419" y="371" on="1"/>
        <pt x="422" y="336" on="0"/>
        <pt x="422" y="298" on="1"/>
        <pt x="422" y="0" on="1"/>
        <pt x="420" y="0" on="1"/>
        <pt x="318" y="-75" on="0"/>
        <pt x="318" y="-130" on="1"/>
        <pt x="318" y="-153" on="0"/>
        <pt x="353" y="-184" on="0"/>
        <pt x="380" y="-184" on="1"/>
        <pt x="426" y="-184" on="0"/>
        <pt x="454" y="-139" on="1"/>
        <pt x="477" y="-163" on="1"/>
        <pt x="445" y="-213" on="0"/>
        <pt x="381" y="-213" on="1"/>
        <pt x="364" y="-213" on="0"/>
        <pt x="327" y="-204" on="0"/>
        <pt x="288" y="-163" on="0"/>
        <pt x="288" y="-129" on="1"/>
        <pt x="288" y="-67" on="0"/>
        <pt x="377" y="-4" on="1"/>
        <pt x="305" y="-10" on="0"/>
        <pt x="246" y="-10" on="0"/>
        <pt x="178" y="-7" on="0"/>
        <pt x="119" y="16" on="0"/>
        <pt x="92" y="35" on="1"/>
        <pt x="37" y="73" on="0"/>
        <pt x="37" y="169" on="1"/>
        <pt x="37" y="252" on="1"/>
        <pt x="37" y="349" on="0"/>
        <pt x="109" y="384" on="1"/>
        <pt x="146" y="402" on="0"/>
      </contour>
      <contour>
        <pt x="106" y="57" on="0"/>
        <pt x="164" y="27" on="0"/>
        <pt x="238" y="18" on="0"/>
        <pt x="312" y="18" on="0"/>
        <pt x="390" y="28" on="1"/>
        <pt x="390" y="316" on="1"/>
        <pt x="307" y="367" on="0"/>
        <pt x="196" y="372" on="1"/>
        <pt x="193" y="373" on="0"/>
        <pt x="189" y="373" on="1"/>
        <pt x="140" y="373" on="0"/>
        <pt x="69" y="313" on="0"/>
        <pt x="69" y="249" on="1"/>
        <pt x="69" y="162" on="1"/>
        <pt x="69" y="118" on="0"/>
      </contour>
    </TTGlyph>
    <TTGlyph name="aring" xMin="78" yMin="-10" xMax="463" yMax="708">
      <contour>
        <pt x="261" y="482" on="1"/>
        <pt x="253" y="482" on="1"/>
        <pt x="209" y="486" on="0"/>
        <pt x="148" y="551" on="0"/>
        <pt x="148" y="642" on="0"/>
        <pt x="214" y="708" on="0"/>
        <pt x="308" y="708" on="0"/>
        <pt x="374" y="642" on="0"/>
        <pt x="374" y="538" on="0"/>
        <pt x="326" y="503" on="1"/>
        <pt x="365" y="496" on="0"/>
        <pt x="420" y="463" on="0"/>
        <pt x="447" y="428" on="0"/>
        <pt x="454" y="398" on="1"/>
        <pt x="463" y="359" on="0"/>
        <pt x="463" y="298" on="1"/>
        <pt x="463" y="0" on="1"/>
        <pt x="359" y="-10" on="0"/>
        <pt x="297" y="-10" on="1"/>
        <pt x="78" y="-10" on="0"/>
        <pt x="78" y="169" on="1"/>
        <pt x="78" y="252" on="1"/>
        <pt x="78" y="349" on="0"/>
        <pt x="150" y="384" on="1"/>
        <pt x="187" y="402" on="0"/>
        <pt x="239" y="402" on="1"/>
        <pt x="350" y="402" on="0"/>
        <pt x="431" y="346" on="1"/>
        <pt x="431" y="481" on="0"/>
      </contour>
      <contour>
        <pt x="147" y="57" on="0"/>
        <pt x="205" y="27" on="0"/>
        <pt x="279" y="18" on="0"/>
        <pt x="353" y="18" on="0"/>
        <pt x="431" y="28" on="1"/>
        <pt x="431" y="316" on="1"/>
        <pt x="348" y="367" on="0"/>
        <pt x="238" y="372" on="1"/>
        <pt x="234" y="373" on="0"/>
        <pt x="230" y="373" on="1"/>
        <pt x="181" y="373" on="0"/>
        <pt x="110" y="313" on="0"/>
        <pt x="110" y="249" on="1"/>
        <pt x="110" y="162" on="1"/>
        <pt x="110" y="118" on="0"/>
      </contour>
      <contour>
        <pt x="177" y="560" on="0"/>
        <pt x="226" y="511" on="0"/>
        <pt x="295" y="511" on="0"/>
        <pt x="344" y="560" on="0"/>
        <pt x="344" y="630" on="0"/>
        <pt x="296" y="678" on="0"/>
        <pt x="226" y="678" on="0"/>
        <pt x="177" y="629" on="0"/>
      </contour>
    </TTGlyph>
    <TTGlyph name="asciicircum" xMin="78" yMin="734" xMax="368" yMax="899">
      <contour>
        <pt x="345" y="734" on="1"/>
        <pt x="225" y="854" on="1"/>
        <pt x="100" y="735" on="1"/>
        <pt x="78" y="758" on="1"/>
        <pt x="226" y="899" on="1"/>
        <pt x="368" y="758" on="1"/>
      </contour>
    </TTGlyph>
    <TTGlyph name="asciitilde" xMin="78" yMin="299" xMax="474" yMax="375">
      <contour>
        <pt x="379" y="334" on="1"/>
        <pt x="427" y="334" on="0"/>
        <pt x="458" y="368" on="1"/>
        <pt x="474" y="343" on="1"/>
        <pt x="434" y="302" on="0"/>
        <pt x="374" y="302" on="1"/>
        <pt x="347" y="302" on="0"/>
        <pt x="314" y="312" on="1"/>
        <pt x="314" y="312" on="0"/>
        <pt x="244" y="334" on="1"/>
        <pt x="218" y="342" on="0"/>
        <pt x="192" y="342" on="1"/>
        <pt x="133" y="342" on="0"/>
        <pt x="95" y="299" on="1"/>
        <pt x="78" y="323" on="1"/>
        <pt x="125" y="375" on="0"/>
        <pt x="191" y="375" on="1"/>
        <pt x="222" y="375" on="0"/>
        <pt x="316" y="344" on="1"/>
        <pt x="348" y="334" on="0"/>
      </contour>
    </TTGlyph>
    <TTGlyph name="asterisk" xMin="28" yMin="425" xMax="323" yMax="700">
      <contour>
        <pt x="277" y="444" on="1"/>
        <pt x="252" y="425" on="1"/>
        <pt x="175" y="529" on="1"/>
        <pt x="102" y="425" on="1"/>
        <pt x="76" y="443" on="1"/>
        <pt x="148" y="545" on="1"/>
        <pt x="28" y="589" on="1"/>
        <pt x="39" y="618" on="1"/>
        <pt x="158" y="571" on="1"/>
        <pt x="158" y="700" on="1"/>
        <pt x="191" y="700" on="1"/>
        <pt x="190" y="571" on="1"/>
        <pt x="312" y="618" on="1"/>
        <pt x="323" y="589" on="1"/>
        <pt x="200" y="545" on="1"/>
      </contour>
    </TTGlyph>
    <TTGlyph name="at" xMin="28" yMin="-66" xMax="687" yMax="580">
      <contour>
        <pt x="324" y="54" on="1"/>
        <pt x="162" y="54" on="0"/>
        <pt x="151" y="204" on="1"/>
        <pt x="151" y="305" on="1"/>
        <pt x="151" y="416" on="0"/>
        <pt x="239" y="449" on="1"/>
        <pt x="270" y="460" on="0"/>
        <pt x="308" y="460" on="1"/>
        <pt x="390" y="460" on="0"/>
        <pt x="502" y="408" on="1"/>
        <pt x="500" y="473" on="0"/>
        <pt x="454" y="510" on="1"/>
        <pt x="408" y="549" on="0"/>
        <pt x="204" y="549" on="0"/>
        <pt x="60" y="448" on="0"/>
        <pt x="60" y="342" on="1"/>
        <pt x="60" y="190" on="1"/>
        <pt x="60" y="84" on="0"/>
        <pt x="206" y="-35" on="0"/>
        <pt x="324" y="-35" on="1"/>
        <pt x="456" y="-35" on="0"/>
        <pt x="622" y="75" on="0"/>
        <pt x="622" y="162" on="1"/>
        <pt x="622" y="363" on="1"/>
        <pt x="622" y="422" on="0"/>
        <pt x="639" y="472" on="0"/>
        <pt x="676" y="491" on="1"/>
        <pt x="687" y="466" on="1"/>
        <pt x="654" y="451" on="0"/>
        <pt x="654" y="396" on="1"/>
        <pt x="654" y="171" on="1"/>
        <pt x="654" y="108" on="0"/>
        <pt x="593" y="12" on="0"/>
        <pt x="543" y="-14" on="1"/>
        <pt x="443" y="-66" on="0"/>
        <pt x="200" y="-66" on="0"/>
        <pt x="28" y="63" on="0"/>
        <pt x="28" y="189" on="1"/>
        <pt x="28" y="340" on="1"/>
        <pt x="28" y="452" on="0"/>
        <pt x="94" y="508" on="1"/>
        <pt x="150" y="554" on="0"/>
        <pt x="263" y="580" on="0"/>
        <pt x="313" y="580" on="1"/>
        <pt x="450" y="580" on="0"/>
        <pt x="504" y="507" on="1"/>
        <pt x="536" y="464" on="0"/>
        <pt x="536" y="397" on="1"/>
        <pt x="573" y="381" on="1"/>
        <pt x="573" y="350" on="1"/>
        <pt x="536" y="366" on="1"/>
        <pt x="536" y="91" on="1"/>
        <pt x="400" y="54" on="0"/>
      </contour>
      <contour>
        <pt x="503" y="117" on="1"/>
        <pt x="503" y="377" on="1"/>
        <pt x="399" y="429" on="0"/>
        <pt x="299" y="429" on="1"/>
        <pt x="250" y="429" on="0"/>
        <pt x="182" y="367" on="0"/>
        <pt x="182" y="302" on="1"/>
        <pt x="182" y="206" on="1"/>
        <pt x="182" y="156" on="0"/>
        <pt x="208" y="126" on="1"/>
        <pt x="245" y="85" on="0"/>
        <pt x="407" y="85" on="0"/>
      </contour>
    </TTGlyph>
    <TTGlyph name="atilde" xMin="78" yMin="-10" xMax="463" yMax="637">
      <contour>
        <pt x="239" y="402" on="1"/>
        <pt x="350" y="402" on="0"/>
        <pt x="431" y="346" on="1"/>
        <pt x="431" y="482" on="0"/>
        <pt x="258" y="482" on="1"/>
        <pt x="256" y="482" on="0"/>
        <pt x="253" y="482" on="1"/>
        <pt x="255" y="509" on="1"/>
        <pt x="336" y="509" on="0"/>
        <pt x="375" y="490" on="1"/>
        <pt x="396" y="479" on="0"/>
        <pt x="428" y="457" on="0"/>
        <pt x="446" y="421" on="0"/>
        <pt x="458" y="394" on="0"/>
        <pt x="460" y="371" on="1"/>
        <pt x="463" y="336" on="0"/>
        <pt x="463" y="298" on="1"/>
        <pt x="463" y="0" on="1"/>
        <pt x="359" y="-10" on="0"/>
        <pt x="297" y="-10" on="1"/>
        <pt x="78" y="-10" on="0"/>
        <pt x="78" y="169" on="1"/>
        <pt x="78" y="252" on="1"/>
        <pt x="78" y="349" on="0"/>
        <pt x="150" y="384" on="1"/>
        <pt x="187" y="402" on="0"/>
      </contour>
      <contour>
        <pt x="147" y="57" on="0"/>
        <pt x="205" y="27" on="0"/>
        <pt x="279" y="18" on="0"/>
        <pt x="353" y="18" on="0"/>
        <pt x="431" y="28" on="1"/>
        <pt x="431" y="316" on="1"/>
        <pt x="348" y="367" on="0"/>
        <pt x="238" y="372" on="1"/>
        <pt x="234" y="373" on="0"/>
        <pt x="230" y="373" on="1"/>
        <pt x="181" y="373" on="0"/>
        <pt x="110" y="313" on="0"/>
        <pt x="110" y="249" on="1"/>
        <pt x="110" y="162" on="1"/>
        <pt x="110" y="118" on="0"/>
      </contour>
      <contour>
        <pt x="212" y="637" on="1"/>
        <pt x="238" y="637" on="0"/>
        <pt x="303" y="607" on="1"/>
        <pt x="329" y="595" on="0"/>
        <pt x="393" y="595" on="0"/>
        <pt x="423" y="627" on="1"/>
        <pt x="439" y="603" on="1"/>
        <pt x="398" y="562" on="0"/>
        <pt x="355" y="562" on="1"/>
        <pt x="333" y="562" on="0"/>
        <pt x="280" y="583" on="0"/>
        <pt x="260" y="592" on="1"/>
        <pt x="231" y="605" on="0"/>
        <pt x="209" y="605" on="1"/>
        <pt x="167" y="605" on="0"/>
        <pt x="129" y="563" on="1"/>
        <pt x="113" y="587" on="1"/>
        <pt x="158" y="637" on="0"/>
      </contour>
    </TTGlyph>
    <TTGlyph name="b" xMin="78" yMin="-12" xMax="447" yMax="700">
      <contour>
        <pt x="110" y="476" on="1"/>
        <pt x="171" y="509" on="0"/>
        <pt x="262" y="509" on="1"/>
        <pt x="321" y="509" on="0"/>
        <pt x="362" y="490" on="1"/>
        <pt x="447" y="451" on="0"/>
        <pt x="447" y="346" on="1"/>
        <pt x="447" y="157" on="1"/>
        <pt x="447" y="58" on="0"/>
        <pt x="369" y="18" on="1"/>
        <pt x="310" y="-12" on="0"/>
        <pt x="164" y="-12" on="0"/>
        <pt x="78" y="0" on="1"/>
        <pt x="78" y="700" on="1"/>
        <pt x="110" y="700" on="1"/>
      </contour>
      <contour>
        <pt x="221" y="18" on="1"/>
        <pt x="415" y="18" on="0"/>
        <pt x="415" y="156" on="1"/>
        <pt x="415" y="343" on="1"/>
        <pt x="415" y="393" on="0"/>
        <pt x="369" y="458" on="0"/>
        <pt x="298" y="480" on="0"/>
        <pt x="256" y="480" on="1"/>
        <pt x="173" y="480" on="0"/>
        <pt x="110" y="446" on="1"/>
        <pt x="110" y="30" on="1"/>
        <pt x="169" y="18" on="0"/>
      </contour>
    </TTGlyph>
    <TTGlyph name="backslash" xMin="78" yMin="-114" xMax="435" yMax="817">
      <contour>
        <pt x="435" y="-114" on="1"/>
        <pt x="401" y="-114" on="1"/>
        <pt x="78" y="817" on="1"/>
        <pt x="111" y="817" on="1"/>
      </contour>
    </TTGlyph>
    <TTGlyph name="bar" xMin="78" yMin="-114" xMax="109" yMax="817">
      <contour>
        <pt x="109" y="-114" on="1"/>
        <pt x="78" y="-114" on="1"/>
        <pt x="78" y="817" on="1"/>
        <pt x="109" y="817" on="1"/>
      </contour>
    </TTGlyph>
    <TTGlyph name="beta" xMin="78" yMin="-161" xMax="448" yMax="701">
      <contour>
        <pt x="402" y="25" on="0"/>
        <pt x="332" y="-8" on="0"/>
        <pt x="251" y="-19" on="0"/>
        <pt x="174" y="-19" on="0"/>
        <pt x="110" y="-9" on="1"/>
        <pt x="110" y="-161" on="1"/>
        <pt x="78" y="-161" on="1"/>
        <pt x="78" y="537" on="1"/>
        <pt x="78" y="614" on="0"/>
        <pt x="147" y="700" on="0"/>
        <pt x="276" y="701" on="0"/>
        <pt x="337" y="629" on="0"/>
        <pt x="337" y="587" on="1"/>
        <pt x="337" y="528" on="0"/>
        <pt x="290" y="497" on="1"/>
        <pt x="361" y="492" on="0"/>
        <pt x="448" y="400" on="0"/>
        <pt x="448" y="330" on="1"/>
        <pt x="448" y="146" on="1"/>
        <pt x="448" y="95" on="0"/>
      </contour>
      <contour>
        <pt x="223" y="10" on="1"/>
        <pt x="416" y="10" on="0"/>
        <pt x="416" y="146" on="1"/>
        <pt x="416" y="327" on="1"/>
        <pt x="416" y="391" on="0"/>
        <pt x="345" y="461" on="0"/>
        <pt x="294" y="465" on="1"/>
        <pt x="279" y="466" on="0"/>
        <pt x="264" y="466" on="1"/>
        <pt x="176" y="466" on="0"/>
        <pt x="110" y="432" on="1"/>
        <pt x="110" y="22" on="1"/>
        <pt x="170" y="10" on="0"/>
      </contour>
      <contour>
        <pt x="110" y="534" on="1"/>
        <pt x="110" y="463" on="1"/>
        <pt x="132" y="475" on="0"/>
        <pt x="246" y="506" on="1"/>
        <pt x="286" y="517" on="0"/>
        <pt x="299" y="557" on="1"/>
        <pt x="304" y="571" on="0"/>
        <pt x="304" y="610" on="0"/>
        <pt x="289" y="634" on="1"/>
        <pt x="266" y="670" on="0"/>
        <pt x="218" y="670" on="1"/>
        <pt x="110" y="670" on="0"/>
      </contour>
    </TTGlyph>
    <TTGlyph name="braceleft" xMin="78" yMin="-116" xMax="269" yMax="822">
      <contour>
        <pt x="269" y="-92" on="1"/>
        <pt x="258" y="-116" on="1"/>
        <pt x="193" y="-78" on="0"/>
        <pt x="152" y="10" on="0"/>
        <pt x="152" y="115" on="1"/>
        <pt x="152" y="247" on="1"/>
        <pt x="152" y="266" on="0"/>
        <pt x="120" y="315" on="0"/>
        <pt x="99" y="335" on="0"/>
        <pt x="78" y="354" on="1"/>
        <pt x="102" y="373" on="0"/>
        <pt x="150" y="435" on="0"/>
        <pt x="150" y="462" on="1"/>
        <pt x="150" y="601" on="1"/>
        <pt x="150" y="698" on="0"/>
        <pt x="192" y="785" on="0"/>
        <pt x="256" y="822" on="1"/>
        <pt x="267" y="798" on="1"/>
        <pt x="245" y="783" on="0"/>
        <pt x="229" y="770" on="0"/>
        <pt x="212" y="750" on="1"/>
        <pt x="182" y="714" on="0"/>
        <pt x="182" y="641" on="1"/>
        <pt x="182" y="456" on="1"/>
        <pt x="182" y="417" on="0"/>
        <pt x="119" y="354" on="1"/>
        <pt x="128" y="346" on="0"/>
        <pt x="139" y="334" on="0"/>
        <pt x="154" y="318" on="0"/>
        <pt x="162" y="307" on="0"/>
        <pt x="173" y="291" on="0"/>
        <pt x="176" y="284" on="1"/>
        <pt x="184" y="265" on="0"/>
        <pt x="184" y="253" on="1"/>
        <pt x="184" y="72" on="1"/>
        <pt x="184" y="8" on="0"/>
        <pt x="223" y="-65" on="0"/>
      </contour>
    </TTGlyph>
    <TTGlyph name="braceright" xMin="78" yMin="-116" xMax="269" yMax="822">
      <contour>
        <pt x="89" y="-116" on="1"/>
        <pt x="78" y="-92" on="1"/>
        <pt x="124" y="-65" on="0"/>
        <pt x="163" y="8" on="0"/>
        <pt x="163" y="72" on="1"/>
        <pt x="163" y="253" on="1"/>
        <pt x="163" y="275" on="0"/>
        <pt x="185" y="307" on="0"/>
        <pt x="193" y="318" on="0"/>
        <pt x="208" y="334" on="0"/>
        <pt x="211" y="337" on="1"/>
        <pt x="220" y="346" on="0"/>
        <pt x="228" y="354" on="1"/>
        <pt x="165" y="417" on="0"/>
        <pt x="165" y="456" on="1"/>
        <pt x="165" y="641" on="1"/>
        <pt x="165" y="714" on="0"/>
        <pt x="134" y="750" on="1"/>
        <pt x="118" y="770" on="0"/>
        <pt x="102" y="783" on="0"/>
        <pt x="80" y="798" on="1"/>
        <pt x="91" y="822" on="1"/>
        <pt x="155" y="785" on="0"/>
        <pt x="197" y="698" on="0"/>
        <pt x="197" y="601" on="1"/>
        <pt x="197" y="462" on="1"/>
        <pt x="197" y="435" on="0"/>
        <pt x="245" y="373" on="0"/>
        <pt x="269" y="354" on="1"/>
        <pt x="248" y="335" on="0"/>
        <pt x="227" y="315" on="0"/>
        <pt x="195" y="266" on="0"/>
        <pt x="195" y="247" on="1"/>
        <pt x="195" y="115" on="1"/>
        <pt x="195" y="10" on="0"/>
        <pt x="154" y="-78" on="0"/>
      </contour>
    </TTGlyph>
    <TTGlyph name="bracketleft" xMin="78" yMin="-114" xMax="239" yMax="817">
      <contour>
        <pt x="239" y="-114" on="1"/>
        <pt x="78" y="-114" on="1"/>
        <pt x="78" y="817" on="1"/>
        <pt x="239" y="817" on="1"/>
        <pt x="239" y="790" on="1"/>
        <pt x="110" y="786" on="1"/>
        <pt x="110" y="-82" on="1"/>
        <pt x="239" y="-87" on="1"/>
      </contour>
    </TTGlyph>
    <TTGlyph name="bracketright" xMin="78" yMin="-114" xMax="239" yMax="817">
      <contour>
        <pt x="239" y="-114" on="1"/>
        <pt x="78" y="-114" on="1"/>
        <pt x="78" y="-87" on="1"/>
        <pt x="207" y="-82" on="1"/>
        <pt x="207" y="786" on="1"/>
        <pt x="78" y="790" on="1"/>
        <pt x="78" y="817" on="1"/>
        <pt x="239" y="817" on="1"/>
      </contour>
    </TTGlyph>
    <TTGlyph name="breve" xMin="46" yMin="582" xMax="272" yMax="700">
      <contour>
        <pt x="272" y="700" on="1"/>
        <pt x="272" y="695" on="1"/>
        <pt x="272" y="648" on="0"/>
        <pt x="206" y="582" on="0"/>
        <pt x="112" y="582" on="0"/>
        <pt x="46" y="648" on="0"/>
        <pt x="46" y="695" on="1"/>
        <pt x="46" y="700" on="1"/>
        <pt x="75" y="700" on="1"/>
        <pt x="75" y="695" on="1"/>
        <pt x="75" y="664" on="0"/>
        <pt x="122" y="611" on="0"/>
        <pt x="195" y="611" on="0"/>
        <pt x="243" y="664" on="0"/>
        <pt x="243" y="695" on="1"/>
        <pt x="243" y="700" on="1"/>
      </contour>
    </TTGlyph>
    <TTGlyph name="bullet" xMin="78" yMin="158" xMax="435" yMax="515">
      <contour>
        <pt x="330" y="158" on="0"/>
        <pt x="182" y="158" on="0"/>
        <pt x="78" y="263" on="0"/>
        <pt x="78" y="411" on="0"/>
        <pt x="182" y="515" on="0"/>
        <pt x="330" y="515" on="0"/>
        <pt x="435" y="411" on="0"/>
        <pt x="435" y="263" on="0"/>
      </contour>
    </TTGlyph>
    <TTGlyph name="c" xMin="36" yMin="-11" xMax="358" yMax="510">
      <contour>
        <pt x="243" y="19" on="1"/>
        <pt x="294" y="19" on="0"/>
        <pt x="351" y="34" on="1"/>
        <pt x="358" y="6" on="1"/>
        <pt x="294" y="-11" on="0"/>
        <pt x="190" y="-11" on="0"/>
        <pt x="140" y="5" on="1"/>
        <pt x="36" y="39" on="0"/>
        <pt x="36" y="180" on="1"/>
        <pt x="36" y="308" on="1"/>
        <pt x="36" y="379" on="0"/>
        <pt x="64" y="427" on="1"/>
        <pt x="112" y="510" on="0"/>
        <pt x="222" y="510" on="1"/>
        <pt x="288" y="510" on="0"/>
        <pt x="356" y="478" on="1"/>
        <pt x="346" y="451" on="1"/>
        <pt x="286" y="480" on="0"/>
        <pt x="190" y="480" on="0"/>
        <pt x="119" y="455" on="0"/>
        <pt x="68" y="374" on="0"/>
        <pt x="68" y="314" on="1"/>
        <pt x="68" y="169" on="1"/>
        <pt x="68" y="19" on="0"/>
      </contour>
    </TTGlyph>
</ttFont>
